Name Sans-Display Ultra.ufo
<glyph name="numbersign" format="2">
	<advance width="769"/>
	<unicode hex="0023"/>
	<guideline y="727" name="capCenter"/>
	<guideline x="46" y="426" angle="90"/>
	<guideline x="1523" y="1034" angle="90"/>
	<outline>
		<contour>
			<point x="223" y="727" type="line"/>
			<point x="26" y="0" type="line"/>
			<point x="244" y="0" type="line"/>
			<point x="440" y="727" type="line"/>
		</contour>
		<contour>
			<point x="526" y="727" type="line"/>
			<point x="330" y="0" type="line"/>
			<point x="547" y="0" type="line"/>
			<point x="743" y="727" type="line"/>
		</contour>
		<contour>
			<point x="25" y="399" type="line"/>
			<point x="244" y="399" type="line"/>
			<point x="263" y="404" type="line"/>
			<point x="497" y="404" type="line"/>
			<point x="516" y="399" type="line"/>
			<point x="759" y="399" type="line"/>
			<point x="759" y="636" type="line"/>
			<point x="25" y="636" type="line"/>
		</contour>
		<contour>
			<point x="10" y="101" type="line"/>
			<point x="744" y="101" type="line"/>
			<point x="744" y="325" type="line"/>
			<point x="516" y="325" type="line"/>
			<point x="497" y="320" type="line"/>
			<point x="262" y="320" type="line"/>
			<point x="244" y="325" type="line"/>
			<point x="10" y="325" type="line"/>
		</contour>
	</outline>
</glyph>
<glyph name="dollar" format="2">
	<advance width="620"/>
	<unicode hex="0024"/>
	<outline>
		<contour>
			<point x="20" y="505" type="curve" smooth="yes"/>
			<point x="20" y="383"/>
			<point x="90" y="310"/>
			<point x="252" y="270" type="curve" smooth="yes"/>
			<point x="327" y="251" type="line" smooth="yes"/>
			<point x="347" y="246"/>
			<point x="357" y="236"/>
			<point x="357" y="221" type="curve" smooth="yes"/>
			<point x="357" y="204"/>
			<point x="339" y="193"/>
			<point x="310" y="193" type="curve" smooth="yes"/>
			<point x="266" y="193"/>
			<point x="244" y="209"/>
			<point x="235" y="248" type="curve"/>
			<point x="6" y="214" type="line"/>
			<point x="26" y="71"/>
			<point x="139" y="-19"/>
			<point x="315" y="-19" type="curve" smooth="yes"/>
			<point x="494" y="-19"/>
			<point x="612" y="81"/>
			<point x="612" y="238" type="curve" smooth="yes"/>
			<point x="612" y="368"/>
			<point x="544" y="434"/>
			<point x="383" y="472" type="curve" smooth="yes"/>
			<point x="309" y="489" type="line" smooth="yes"/>
			<point x="286" y="494"/>
			<point x="276" y="503"/>
			<point x="276" y="516" type="curve" smooth="yes"/>
			<point x="276" y="530"/>
			<point x="293" y="539"/>
			<point x="321" y="539" type="curve" smooth="yes"/>
			<point x="354" y="539"/>
			<point x="379" y="523"/>
			<point x="386" y="498" type="curve"/>
			<point x="606" y="529" type="line"/>
			<point x="573" y="667"/>
			<point x="472" y="746"/>
			<point x="317" y="746" type="curve" smooth="yes"/>
			<point x="136" y="746"/>
			<point x="20" y="652"/>
		</contour>
		<contour>
			<point x="449" y="807" type="line"/>
			<point x="219" y="807" type="line"/>
			<point x="219" y="649" type="line"/>
			<point x="449" y="649" type="line"/>
		</contour>
		<contour>
			<point x="200" y="-83" type="line"/>
			<point x="430" y="-83" type="line"/>
			<point x="430" y="108" type="line"/>
			<point x="200" y="108" type="line"/>
		</contour>
		<contour>
			<point x="338" y="572" type="line"/>
			<point x="314" y="572" type="line"/>
			<point x="314" y="439" type="line"/>
			<point x="296" y="325" type="line"/>
			<point x="296" y="142" type="line"/>
			<point x="320" y="141" type="line"/>
			<point x="320" y="320" type="line"/>
			<point x="338" y="435" type="line"/>
		</contour>
	</outline>
</glyph>
<glyph name="percent" format="2">
	<advance width="805"/>
	<unicode hex="0025"/>
	<guideline x="1427" y="377" angle="0"/>
	<guideline x="708" y="1079" angle="0"/>
	<outline>
		<contour>
			<point x="224" y="332" type="curve" smooth="yes"/>
			<point x="100" y="332"/>
			<point x="10" y="417"/>
			<point x="10" y="540" type="curve" smooth="yes"/>
			<point x="10" y="662"/>
			<point x="100" y="747"/>
			<point x="224" y="747" type="curve" smooth="yes"/>
			<point x="349" y="747"/>
			<point x="438" y="662"/>
			<point x="438" y="540" type="curve" smooth="yes"/>
			<point x="438" y="417"/>
			<point x="349" y="332"/>
		</contour>
		<contour>
			<point x="224" y="492" type="curve" smooth="yes"/>
			<point x="251" y="492"/>
			<point x="271" y="511"/>
			<point x="271" y="540" type="curve" smooth="yes"/>
			<point x="271" y="568"/>
			<point x="251" y="586"/>
			<point x="224" y="586" type="curve" smooth="yes"/>
			<point x="197" y="586"/>
			<point x="178" y="568"/>
			<point x="178" y="540" type="curve" smooth="yes"/>
			<point x="178" y="511"/>
			<point x="197" y="492"/>
		</contour>
		<contour>
			<point x="582" y="-20" type="curve" smooth="yes"/>
			<point x="457" y="-20"/>
			<point x="367" y="66"/>
			<point x="367" y="189" type="curve" smooth="yes"/>
			<point x="367" y="311"/>
			<point x="457" y="396"/>
			<point x="582" y="396" type="curve" smooth="yes"/>
			<point x="706" y="396"/>
			<point x="795" y="311"/>
			<point x="795" y="189" type="curve" smooth="yes"/>
			<point x="795" y="66"/>
			<point x="706" y="-20"/>
		</contour>
		<contour>
			<point x="581" y="141" type="curve" smooth="yes"/>
			<point x="608" y="141"/>
			<point x="628" y="159"/>
			<point x="628" y="189" type="curve" smooth="yes"/>
			<point x="628" y="217"/>
			<point x="608" y="236"/>
			<point x="581" y="236" type="curve" smooth="yes"/>
			<point x="554" y="236"/>
			<point x="535" y="217"/>
			<point x="535" y="189" type="curve" smooth="yes"/>
			<point x="535" y="159"/>
			<point x="554" y="141"/>
		</contour>
		<contour>
			<point x="774" y="727" type="line"/>
			<point x="597" y="436" type="line"/>
			<point x="466" y="436" type="line"/>
			<point x="538" y="727" type="line"/>
		</contour>
		<contour>
			<point x="35" y="0" type="line"/>
			<point x="207" y="292" type="line"/>
			<point x="338" y="292" type="line"/>
			<point x="271" y="0" type="line"/>
		</contour>
	</outline>
</glyph>
<glyph name="ampersand" format="2">
	<advance width="741"/>
	<unicode hex="0026"/>
	<guideline x="670" y="441" angle="312.4595"/>
	<guideline x="1257" y="427" angle="132.8229"/>
	<outline>
		<contour>
			<point x="475" y="68" type="line"/>
			<point x="441" y="68" type="line"/>
			<point x="399" y="19"/>
			<point x="333" y="-14"/>
			<point x="245" y="-14" type="curve" smooth="yes"/>
			<point x="90" y="-15"/>
			<point x="8" y="69"/>
			<point x="8" y="189" type="curve" smooth="yes"/>
			<point x="8" y="292"/>
			<point x="65" y="351"/>
			<point x="152" y="382" type="curve"/>
			<point x="152" y="421" type="line"/>
			<point x="278" y="282" type="line"/>
			<point x="252" y="266"/>
			<point x="241" y="249"/>
			<point x="241" y="226" type="curve" smooth="yes"/>
			<point x="241" y="204"/>
			<point x="255" y="187"/>
			<point x="277" y="187" type="curve" smooth="yes"/>
			<point x="300" y="187"/>
			<point x="314" y="195"/>
			<point x="335" y="221" type="curve"/>
		</contour>
		<contour>
			<point x="103" y="535" type="curve"/>
			<point x="103" y="661"/>
			<point x="199" y="750"/>
			<point x="365" y="750" type="curve" smooth="yes"/>
			<point x="523" y="750"/>
			<point x="607" y="670"/>
			<point x="607" y="561" type="curve" smooth="yes"/>
			<point x="607" y="480"/>
			<point x="549" y="430"/>
			<point x="483" y="406" type="curve"/>
			<point x="483" y="371" type="line"/>
			<point x="367" y="497" type="line"/>
			<point x="403" y="513"/>
			<point x="421" y="530"/>
			<point x="421" y="553" type="curve" smooth="yes"/>
			<point x="421" y="569"/>
			<point x="410" y="583"/>
			<point x="391" y="583" type="curve"/>
			<point x="372" y="583"/>
			<point x="362" y="568"/>
			<point x="362" y="553" type="curve" smooth="yes"/>
			<point x="362" y="538"/>
			<point x="368" y="526"/>
			<point x="389" y="503" type="curve" smooth="yes"/>
			<point x="631" y="241" type="line" smooth="yes"/>
			<point x="658" y="211"/>
			<point x="679" y="204"/>
			<point x="730" y="204" type="curve"/>
			<point x="699" y="-15" type="line"/>
			<point x="560" y="-15"/>
			<point x="507" y="1"/>
			<point x="440" y="74" type="curve" smooth="yes"/>
			<point x="161" y="377" type="line" smooth="yes"/>
			<point x="122" y="419"/>
			<point x="103" y="474"/>
		</contour>
		<contour>
			<point x="733" y="326" type="line"/>
			<point x="695" y="286"/>
			<point x="666" y="254"/>
			<point x="629" y="214" type="curve"/>
			<point x="490" y="364" type="line"/>
			<point x="523" y="364" type="line"/>
			<point x="551" y="393"/>
			<point x="574" y="417"/>
			<point x="601" y="447" type="curve"/>
		</contour>
	</outline>
</glyph>
<glyph name="quotesingle" format="2">
	<advance width="285"/>
	<unicode hex="0027"/>
	<outline>
		<contour>
			<point x="15" y="597" type="line"/>
			<point x="15" y="747" type="line"/>
			<point x="270" y="747" type="line"/>
			<point x="270" y="597" type="line"/>
			<point x="200" y="353" type="line"/>
			<point x="85" y="353" type="line"/>
		</contour>
	</outline>
</glyph>
<glyph name="parenleft" format="2">
	<advance width="349"/>
	<unicode hex="0028"/>
	<outline>
		<contour>
			<point x="10" y="344" type="curve" smooth="yes"/>
			<point x="10" y="525"/>
			<point x="54" y="669"/>
			<point x="158" y="793" type="curve"/>
			<point x="344" y="744" type="line"/>
			<point x="288" y="622"/>
			<point x="261" y="494"/>
			<point x="260" y="344" type="curve" smooth="yes"/>
			<point x="260" y="194"/>
			<point x="288" y="67"/>
			<point x="344" y="-57" type="curve"/>
			<point x="158" y="-105" type="line"/>
			<point x="54" y="20"/>
			<point x="11" y="163"/>
		</contour>
	</outline>
</glyph>
<glyph name="asterisk" format="2">
	<advance width="572"/>
	<unicode hex="002A"/>
	<outline>
		<contour>
			<point x="181" y="745" type="line"/>
			<point x="236" y="561" type="line"/>
			<point x="335" y="561" type="line"/>
			<point x="390" y="745" type="line"/>
		</contour>
		<contour>
			<point x="13" y="471" type="line"/>
			<point x="206" y="467" type="line"/>
			<point x="236" y="561" type="line"/>
			<point x="78" y="670" type="line"/>
		</contour>
		<contour>
			<point x="223" y="228" type="line"/>
			<point x="286" y="409" type="line"/>
			<point x="206" y="467" type="line"/>
			<point x="53" y="350" type="line"/>
		</contour>
		<contour>
			<point x="520" y="351" type="line"/>
			<point x="366" y="467" type="line"/>
			<point x="286" y="409" type="line"/>
			<point x="351" y="228" type="line"/>
		</contour>
		<contour>
			<point x="494" y="671" type="line"/>
			<point x="335" y="561" type="line"/>
			<point x="366" y="467" type="line"/>
			<point x="559" y="473" type="line"/>
		</contour>
		<contour>
			<point x="349" y="401" type="line"/>
			<point x="395" y="524" type="line"/>
			<point x="285" y="608" type="line"/>
			<point x="178" y="524" type="line"/>
			<point x="219" y="401" type="line"/>
		</contour>
	</outline>
</glyph>
<glyph name="plus" format="2">
	<advance width="620"/>
	<unicode hex="002B"/>
	<outline>
		<contour>
			<point x="36" y="179" type="line"/>
			<point x="584" y="179" type="line"/>
			<point x="584" y="403" type="line"/>
			<point x="36" y="403" type="line"/>
		</contour>
		<contour>
			<point x="422" y="17" type="line"/>
			<point x="422" y="565" type="line"/>
			<point x="198" y="565" type="line"/>
			<point x="198" y="17" type="line"/>
		</contour>
	</outline>
</glyph>
<glyph name="comma" format="2">
	<advance width="285"/>
	<unicode hex="002C"/>
	<outline>
		<contour>
			<point x="20" y="0" type="line"/>
			<point x="20" y="227" type="line"/>
			<point x="265" y="227" type="line"/>
			<point x="265" y="0" type="line"/>
			<point x="180" y="-168" type="line"/>
			<point x="34" y="-168" type="line"/>
			<point x="95" y="-6" type="line"/>
			<point x="92" y="0" type="line"/>
		</contour>
	</outline>
</glyph>
<glyph name="hyphen" format="2">
	<advance width="357"/>
	<unicode hex="002D"/>
	<outline>
		<contour>
			<point x="20" y="178" type="line"/>
			<point x="337" y="178" type="line"/>
			<point x="337" y="403" type="line"/>
			<point x="20" y="403" type="line"/>
		</contour>
	</outline>
</glyph>
<glyph name="period" format="2">
	<advance width="285"/>
	<unicode hex="002E"/>
	<outline>
		<contour>
			<point x="20" y="0" type="line"/>
			<point x="20" y="227" type="line"/>
			<point x="265" y="227" type="line"/>
			<point x="265" y="0" type="line"/>
		</contour>
	</outline>
</glyph>
<glyph name="slash" format="2">
	<advance width="430"/>
	<unicode hex="002F"/>
	<outline>
		<contour>
			<point x="439" y="783" type="line"/>
			<point x="233" y="-122" type="line"/>
			<point x="-10" y="-122" type="line"/>
			<point x="197" y="783" type="line"/>
		</contour>
	</outline>
</glyph>
<glyph name="zero" format="2">
	<advance width="620"/>
	<unicode hex="0030"/>
	<outline>
		<contour>
			<point x="309" y="-15" type="curve" smooth="yes"/>
			<point x="121" y="-15"/>
			<point x="8" y="102"/>
			<point x="8" y="363" type="curve" smooth="yes"/>
			<point x="8" y="623"/>
			<point x="121" y="742"/>
			<point x="309" y="742" type="curve" smooth="yes"/>
			<point x="497" y="742"/>
			<point x="613" y="623"/>
			<point x="613" y="363" type="curve" smooth="yes"/>
			<point x="613" y="102"/>
			<point x="497" y="-14"/>
		</contour>
		<contour>
			<point x="309" y="224" type="curve" smooth="yes"/>
			<point x="338" y="224"/>
			<point x="353" y="256"/>
			<point x="353" y="363" type="curve" smooth="yes"/>
			<point x="353" y="470"/>
			<point x="338" y="504"/>
			<point x="309" y="504" type="curve" smooth="yes"/>
			<point x="279" y="504"/>
			<point x="268" y="470"/>
			<point x="268" y="363" type="curve" smooth="yes"/>
			<point x="268" y="256"/>
			<point x="279" y="224"/>
		</contour>
	</outline>
</glyph>
<glyph name="one" format="2">
	<advance width="340"/>
	<unicode hex="0031"/>
	<outline>
		<contour>
			<point x="320" y="727" type="line"/>
			<point x="320" y="0" type="line"/>
			<point x="77" y="0" type="line"/>
			<point x="77" y="450" type="line"/>
			<point x="75" y="450" type="line"/>
			<point x="55" y="450"/>
			<point x="33" y="450"/>
			<point x="13" y="450" type="curve"/>
			<point x="13" y="620" type="line"/>
			<point x="73" y="641"/>
			<point x="117" y="676"/>
			<point x="149" y="727" type="curve"/>
		</contour>
	</outline>
</glyph>
<glyph name="two" format="2">
	<advance width="588"/>
	<unicode hex="0032"/>
	<outline>
		<contour>
			<point x="10" y="0" type="line"/>
			<point x="548" y="0" type="line"/>
			<point x="588" y="213" type="line"/>
			<point x="211" y="213" type="line"/>
			<point x="299" y="204" type="line"/>
			<point x="296" y="226"/>
			<point x="301" y="233"/>
			<point x="347" y="256" type="curve" smooth="yes"/>
			<point x="400" y="281" type="line" smooth="yes"/>
			<point x="509" y="334"/>
			<point x="580" y="402"/>
			<point x="580" y="508" type="curve" smooth="yes"/>
			<point x="580" y="655"/>
			<point x="465" y="742"/>
			<point x="286" y="742" type="curve" smooth="yes"/>
			<point x="105" y="742"/>
			<point x="1" y="638"/>
			<point x="14" y="500" type="curve"/>
			<point x="237" y="485" type="line"/>
			<point x="230" y="519"/>
			<point x="244" y="545"/>
			<point x="279" y="545" type="curve" smooth="yes"/>
			<point x="308" y="545"/>
			<point x="323" y="529"/>
			<point x="323" y="506" type="curve" smooth="yes"/>
			<point x="323" y="479"/>
			<point x="304" y="468"/>
			<point x="232" y="422" type="curve" smooth="yes"/>
			<point x="187" y="393" type="line" smooth="yes"/>
			<point x="73" y="319"/>
			<point x="10" y="234"/>
			<point x="10" y="58" type="curve" smooth="yes"/>
		</contour>
	</outline>
</glyph>
<glyph name="three" format="2">
	<advance width="613"/>
	<unicode hex="0033"/>
	<outline>
		<contour>
			<point x="589" y="545" type="curve" smooth="yes"/>
			<point x="589" y="456"/>
			<point x="524" y="400"/>
			<point x="419" y="388" type="curve"/>
			<point x="453" y="442" type="line"/>
			<point x="453" y="345" type="line"/>
			<point x="415" y="391" type="line"/>
			<point x="555" y="387"/>
			<point x="608" y="301"/>
			<point x="608" y="213" type="curve" smooth="yes"/>
			<point x="608" y="87"/>
			<point x="501" y="-14"/>
			<point x="307" y="-14" type="curve" smooth="yes"/>
			<point x="127" y="-14"/>
			<point x="27" y="78"/>
			<point x="9" y="233" type="curve"/>
			<point x="229" y="259" type="line"/>
			<point x="232" y="210"/>
			<point x="259" y="188"/>
			<point x="297" y="188" type="curve" smooth="yes"/>
			<point x="340" y="188"/>
			<point x="358" y="210"/>
			<point x="358" y="239" type="curve" smooth="yes"/>
			<point x="358" y="274"/>
			<point x="335" y="293"/>
			<point x="281" y="293" type="curve"/>
			<point x="253" y="293" type="line"/>
			<point x="253" y="461" type="line"/>
			<point x="275" y="461" type="line"/>
			<point x="318" y="461"/>
			<point x="333" y="483"/>
			<point x="333" y="507" type="curve" smooth="yes"/>
			<point x="333" y="525"/>
			<point x="321" y="549"/>
			<point x="289" y="549" type="curve" smooth="yes"/>
			<point x="254" y="549"/>
			<point x="240" y="526"/>
			<point x="239" y="501" type="curve"/>
			<point x="31" y="521" type="line"/>
			<point x="43" y="661"/>
			<point x="152" y="742"/>
			<point x="316" y="742" type="curve" smooth="yes"/>
			<point x="493" y="742"/>
			<point x="589" y="652"/>
		</contour>
	</outline>
</glyph>
<glyph name="four" format="2">
	<advance width="624"/>
	<unicode hex="0034"/>
	<outline>
		<contour>
			<point x="13" y="91" type="line"/>
			<point x="13" y="255" type="line"/>
			<point x="341" y="727" type="line"/>
			<point x="567" y="727" type="line"/>
			<point x="567" y="0" type="line"/>
			<point x="307" y="0" type="line"/>
			<point x="307" y="199" type="line"/>
			<point x="307" y="474" type="line"/>
			<point x="362" y="385" type="line"/>
			<point x="267" y="385" type="line"/>
			<point x="370" y="484" type="line"/>
			<point x="198" y="228" type="line"/>
			<point x="235" y="322" type="line"/>
			<point x="235" y="243" type="line"/>
			<point x="151" y="279" type="line"/>
			<point x="612" y="279" type="line"/>
			<point x="612" y="91" type="line"/>
		</contour>
	</outline>
</glyph>
<glyph name="five" format="2">
	<advance width="620"/>
	<unicode hex="0035"/>
	<outline>
		<contour>
			<point x="390" y="488" type="curve" smooth="yes"/>
			<point x="529" y="488"/>
			<point x="612" y="394"/>
			<point x="612" y="254" type="curve" smooth="yes"/>
			<point x="612" y="86"/>
			<point x="497" y="-14"/>
			<point x="308" y="-14" type="curve" smooth="yes"/>
			<point x="141" y="-14"/>
			<point x="44" y="62"/>
			<point x="6" y="210" type="curve"/>
			<point x="242" y="258" type="line"/>
			<point x="251" y="221"/>
			<point x="272" y="205"/>
			<point x="304" y="205" type="curve" smooth="yes"/>
			<point x="337" y="205"/>
			<point x="361" y="229"/>
			<point x="361" y="271" type="curve" smooth="yes"/>
			<point x="361" y="308"/>
			<point x="338" y="333"/>
			<point x="304" y="333" type="curve" smooth="yes"/>
			<point x="273" y="333"/>
			<point x="252" y="314"/>
			<point x="243" y="287" type="curve"/>
			<point x="22" y="329" type="line"/>
			<point x="22" y="727" type="line"/>
			<point x="611" y="727" type="line"/>
			<point x="579" y="524" type="line"/>
			<point x="273" y="524" type="line"/>
			<point x="273" y="430" type="line"/>
			<point x="232" y="478" type="line"/>
			<point x="323" y="444" type="line"/>
			<point x="213" y="397" type="line"/>
			<point x="258" y="461"/>
			<point x="307" y="488"/>
		</contour>
	</outline>
</glyph>
<glyph name="six" format="2">
	<advance width="620"/>
	<unicode hex="0036"/>
	<outline>
		<contour>
			<point x="326" y="194" type="curve" smooth="yes"/>
			<point x="358" y="194"/>
			<point x="381" y="218"/>
			<point x="381" y="255" type="curve" smooth="yes"/>
			<point x="381" y="292"/>
			<point x="358" y="315"/>
			<point x="326" y="315" type="curve" smooth="yes"/>
			<point x="295" y="315"/>
			<point x="272" y="292"/>
			<point x="272" y="255" type="curve" smooth="yes"/>
			<point x="272" y="218"/>
			<point x="295" y="194"/>
		</contour>
		<contour>
			<point x="9" y="350" type="curve" smooth="yes"/>
			<point x="9" y="609"/>
			<point x="127" y="741"/>
			<point x="330" y="741" type="curve" smooth="yes"/>
			<point x="488" y="741"/>
			<point x="579" y="665"/>
			<point x="607" y="534" type="curve"/>
			<point x="377" y="505" type="line"/>
			<point x="371" y="536"/>
			<point x="354" y="550"/>
			<point x="330" y="550" type="curve" smooth="yes"/>
			<point x="290" y="550"/>
			<point x="265" y="524"/>
			<point x="265" y="418" type="curve" smooth="yes"/>
			<point x="265" y="393"/>
			<point x="267" y="362"/>
			<point x="270" y="333" type="curve"/>
			<point x="206" y="467" type="line"/>
			<point x="318" y="406" type="line"/>
			<point x="191" y="322" type="line"/>
			<point x="237" y="424"/>
			<point x="296" y="476"/>
			<point x="393" y="476" type="curve" smooth="yes"/>
			<point x="532" y="476"/>
			<point x="612" y="376"/>
			<point x="612" y="245" type="curve" smooth="yes"/>
			<point x="612" y="104"/>
			<point x="513" y="-15"/>
			<point x="319" y="-15" type="curve" smooth="yes"/>
			<point x="120" y="-15"/>
			<point x="9" y="113"/>
		</contour>
	</outline>
</glyph>
<glyph name="seven" format="2">
	<advance width="556"/>
	<unicode hex="0037"/>
	<outline>
		<contour>
			<point x="544" y="727" type="line"/>
			<point x="544" y="561" type="line"/>
			<point x="417" y="374"/>
			<point x="379" y="219"/>
			<point x="379" y="70" type="curve" smooth="yes"/>
			<point x="379" y="0" type="line"/>
			<point x="95" y="0" type="line"/>
			<point x="95" y="70" type="line" smooth="yes"/>
			<point x="95" y="227"/>
			<point x="167" y="392"/>
			<point x="344" y="528" type="curve"/>
			<point x="291" y="463" type="line"/>
			<point x="291" y="555" type="line"/>
			<point x="344" y="489" type="line"/>
			<point x="13" y="489" type="line"/>
			<point x="13" y="727" type="line"/>
		</contour>
	</outline>
</glyph>
<glyph name="eight" format="2">
	<advance width="620"/>
	<unicode hex="0038"/>
	<outline>
		<contour>
			<point x="306" y="742" type="curve" smooth="yes"/>
			<point x="130" y="742"/>
			<point x="31" y="649"/>
			<point x="31" y="523" type="curve" smooth="yes"/>
			<point x="31" y="446"/>
			<point x="66" y="396"/>
			<point x="126" y="353" type="curve"/>
			<point x="126" y="350" type="line"/>
			<point x="48" y="324"/>
			<point x="8" y="265"/>
			<point x="8" y="191" type="curve" smooth="yes"/>
			<point x="8" y="63"/>
			<point x="125" y="-14"/>
			<point x="297" y="-14" type="curve" smooth="yes"/>
			<point x="483" y="-14"/>
			<point x="613" y="79"/>
			<point x="613" y="230" type="curve" smooth="yes"/>
			<point x="613" y="319"/>
			<point x="581" y="378"/>
			<point x="493" y="422" type="curve"/>
			<point x="493" y="424" type="line"/>
			<point x="547" y="453"/>
			<point x="584" y="495"/>
			<point x="584" y="557" type="curve" smooth="yes"/>
			<point x="584" y="661"/>
			<point x="492" y="742"/>
		</contour>
		<contour>
			<point x="309" y="482" type="line" smooth="yes"/>
			<point x="273" y="492"/>
			<point x="267" y="506"/>
			<point x="267" y="520" type="curve" smooth="yes"/>
			<point x="267" y="537"/>
			<point x="282" y="550"/>
			<point x="314" y="550" type="curve" smooth="yes"/>
			<point x="347" y="550"/>
			<point x="367" y="536"/>
			<point x="367" y="514" type="curve" smooth="yes"/>
			<point x="367" y="498"/>
			<point x="358" y="485"/>
			<point x="340" y="474" type="curve"/>
		</contour>
		<contour>
			<point x="297" y="196" type="curve" smooth="yes"/>
			<point x="262" y="196"/>
			<point x="240" y="212"/>
			<point x="240" y="238" type="curve" smooth="yes"/>
			<point x="240" y="256"/>
			<point x="249" y="272"/>
			<point x="271" y="286" type="curve"/>
			<point x="299" y="280" type="line" smooth="yes"/>
			<point x="336" y="272"/>
			<point x="350" y="258"/>
			<point x="350" y="236" type="curve" smooth="yes"/>
			<point x="350" y="211"/>
			<point x="329" y="196"/>
		</contour>
	</outline>
</glyph>
<glyph name="nine" format="2">
	<advance width="620"/>
	<unicode hex="0039"/>
	<outline>
		<contour>
			<point x="294" y="529" type="curve" smooth="yes"/>
			<point x="263" y="529"/>
			<point x="240" y="505"/>
			<point x="240" y="468" type="curve" smooth="yes"/>
			<point x="240" y="431"/>
			<point x="263" y="408"/>
			<point x="294" y="408" type="curve" smooth="yes"/>
			<point x="326" y="408"/>
			<point x="349" y="431"/>
			<point x="349" y="468" type="curve" smooth="yes"/>
			<point x="349" y="505"/>
			<point x="326" y="529"/>
		</contour>
		<contour>
			<point x="611" y="373" type="curve" smooth="yes"/>
			<point x="611" y="117"/>
			<point x="493" y="-15"/>
			<point x="294" y="-15" type="curve" smooth="yes"/>
			<point x="132" y="-15"/>
			<point x="40" y="60"/>
			<point x="13" y="189" type="curve"/>
			<point x="244" y="218" type="line"/>
			<point x="249" y="186"/>
			<point x="267" y="173"/>
			<point x="290" y="173" type="curve" smooth="yes"/>
			<point x="329" y="173"/>
			<point x="356" y="199"/>
			<point x="356" y="305" type="curve" smooth="yes"/>
			<point x="356" y="330"/>
			<point x="354" y="361"/>
			<point x="350" y="390" type="curve"/>
			<point x="425" y="269" type="line"/>
			<point x="299" y="304" type="line"/>
			<point x="417" y="419" type="line"/>
			<point x="384" y="299"/>
			<point x="332" y="247"/>
			<point x="240" y="247" type="curve" smooth="yes"/>
			<point x="88" y="247"/>
			<point x="7" y="347"/>
			<point x="7" y="478" type="curve" smooth="yes"/>
			<point x="7" y="632"/>
			<point x="114" y="741"/>
			<point x="301" y="741" type="curve" smooth="yes"/>
			<point x="501" y="741"/>
			<point x="611" y="613"/>
		</contour>
	</outline>
</glyph>
<glyph name="less" format="2">
	<advance width="620"/>
	<unicode hex="003C"/>
	<outline>
		<contour>
			<point x="593" y="600" type="line" smooth="yes"/>
			<point x="28" y="396" type="line"/>
			<point x="28" y="185" type="line"/>
			<point x="593" y="0" type="line"/>
			<point x="593" y="221" type="line"/>
			<point x="292" y="318" type="line"/>
			<point x="366" y="267" type="line"/>
			<point x="366" y="323" type="line"/>
			<point x="292" y="272" type="line"/>
			<point x="593" y="378" type="line"/>
		</contour>
	</outline>
</glyph>
<glyph name="greater" format="2">
	<advance width="620"/>
	<unicode hex="003E"/>
	<outline>
		<contour>
			<point x="28" y="600" type="line" smooth="yes"/>
			<point x="593" y="402" type="line"/>
			<point x="593" y="179" type="line"/>
			<point x="28" y="0" type="line"/>
			<point x="28" y="222" type="line"/>
			<point x="328" y="319" type="line"/>
			<point x="254" y="268" type="line"/>
			<point x="254" y="324" type="line"/>
			<point x="328" y="273" type="line"/>
			<point x="28" y="378" type="line"/>
		</contour>
	</outline>
</glyph>
<glyph name="question" format="2">
	<advance width="501"/>
	<unicode hex="003F"/>
	<outline>
		<contour>
			<point x="133" y="339" type="line" smooth="yes"/>
			<point x="133" y="397"/>
			<point x="156" y="432"/>
			<point x="195" y="456" type="curve" smooth="yes"/>
			<point x="234" y="480" type="line" smooth="yes"/>
			<point x="267" y="501"/>
			<point x="275" y="510"/>
			<point x="275" y="529" type="curve" smooth="yes"/>
			<point x="275" y="544"/>
			<point x="265" y="560"/>
			<point x="239" y="560" type="curve" smooth="yes"/>
			<point x="214" y="560"/>
			<point x="198" y="545"/>
			<point x="195" y="522" type="curve"/>
			<point x="13" y="550" type="line"/>
			<point x="36" y="666"/>
			<point x="110" y="745"/>
			<point x="255" y="745" type="curve" smooth="yes"/>
			<point x="402" y="745"/>
			<point x="488" y="652"/>
			<point x="488" y="532" type="curve" smooth="yes"/>
			<point x="488" y="454"/>
			<point x="457" y="404"/>
			<point x="404" y="370" type="curve" smooth="yes"/>
			<point x="368" y="346" type="line" smooth="yes"/>
			<point x="351" y="336"/>
			<point x="345" y="328"/>
			<point x="345" y="310" type="curve" smooth="yes"/>
			<point x="345" y="263" type="line"/>
			<point x="133" y="263" type="line"/>
		</contour>
		<component base="period" xOffset="96"/>
	</outline>
</glyph>
<glyph name="at" format="2">
	<advance width="972"/>
	<unicode hex="0040"/>
	<outline>
		<contour>
			<point x="486" y="347" type="curve" smooth="yes"/>
			<point x="514" y="347"/>
			<point x="534" y="330"/>
			<point x="534" y="302" type="curve" smooth="yes"/>
			<point x="534" y="301" type="line" smooth="yes"/>
			<point x="534" y="273"/>
			<point x="514" y="255"/>
			<point x="486" y="255" type="curve" smooth="yes"/>
			<point x="459" y="255"/>
			<point x="439" y="273"/>
			<point x="439" y="301" type="curve" smooth="yes"/>
			<point x="439" y="330"/>
			<point x="459" y="347"/>
		</contour>
		<contour>
			<point x="496" y="767" type="curve" smooth="yes"/>
			<point x="206" y="767"/>
			<point x="15" y="583"/>
			<point x="15" y="299" type="curve" smooth="yes"/>
			<point x="15" y="23"/>
			<point x="219" y="-158"/>
			<point x="464" y="-158" type="curve" smooth="yes"/>
			<point x="637" y="-158"/>
			<point x="737" y="-115"/>
			<point x="826" y="-18" type="curve"/>
			<point x="658" y="51" type="line"/>
			<point x="605" y="2"/>
			<point x="551" y="-15"/>
			<point x="464" y="-15" type="curve" smooth="yes"/>
			<point x="300" y="-15"/>
			<point x="172" y="98"/>
			<point x="172" y="298" type="curve" smooth="yes"/>
			<point x="172" y="495"/>
			<point x="294" y="615"/>
			<point x="489" y="615" type="curve" smooth="yes"/>
			<point x="693" y="615"/>
			<point x="801" y="515"/>
			<point x="801" y="341" type="curve" smooth="yes"/>
			<point x="801" y="261"/>
			<point x="784" y="209"/>
			<point x="756" y="209" type="curve" smooth="yes"/>
			<point x="745" y="209"/>
			<point x="738" y="215"/>
			<point x="738" y="230" type="curve" smooth="yes"/>
			<point x="738" y="504" type="line"/>
			<point x="594" y="504" type="line"/>
			<point x="586" y="458" type="line"/>
			<point x="580" y="458" type="line"/>
			<point x="549" y="505"/>
			<point x="507" y="530"/>
			<point x="433" y="530" type="curve" smooth="yes"/>
			<point x="319" y="530"/>
			<point x="226" y="447"/>
			<point x="226" y="298" type="curve" smooth="yes"/>
			<point x="226" y="149"/>
			<point x="319" y="64"/>
			<point x="440" y="64" type="curve" smooth="yes"/>
			<point x="508" y="64"/>
			<point x="556" y="85"/>
			<point x="584" y="127" type="curve"/>
			<point x="675" y="127" type="line"/>
			<point x="586" y="135" type="line"/>
			<point x="594" y="123" type="line" smooth="yes"/>
			<point x="614" y="92"/>
			<point x="660" y="66"/>
			<point x="734" y="66" type="curve" smooth="yes"/>
			<point x="876" y="66"/>
			<point x="957" y="178"/>
			<point x="957" y="352" type="curve" smooth="yes"/>
			<point x="957" y="563"/>
			<point x="815" y="767"/>
		</contour>
	</outline>
</glyph>
<glyph name="A" format="2">
	<advance width="747"/>
	<unicode hex="0041"/>
	<anchor x="754" y="0" name="ogonek"/>
	<anchor x="369" y="727" name="top"/>
	<anchor x="369" y="727" name="ring"/>
	<anchor x="373" y="0" name="bottom"/>
	<outline>
		<contour>
			<point x="109" y="64" type="line"/>
			<point x="576" y="64" type="line"/>
			<point x="492" y="188" type="line"/>
			<point x="193" y="188" type="line"/>
		</contour>
		<contour>
			<point x="439" y="0" type="line"/>
			<point x="754" y="0" type="line"/>
			<point x="512" y="727" type="line"/>
			<point x="235" y="727" type="line"/>
			<point x="-8" y="0" type="line"/>
			<point x="255" y="0" type="line"/>
			<point x="346" y="305" type="line"/>
			<point x="288" y="301" type="line"/>
			<point x="406" y="301" type="line"/>
			<point x="349" y="305" type="line"/>
		</contour>
	</outline>
</glyph>
<glyph name="B" format="2">
	<advance width="730"/>
	<unicode hex="0042"/>
	<outline>
		<contour>
			<point x="20" y="0" type="line"/>
			<point x="455" y="0" type="line" smooth="yes"/>
			<point x="628" y="0"/>
			<point x="725" y="90"/>
			<point x="725" y="212" type="curve" smooth="yes"/>
			<point x="725" y="299"/>
			<point x="675" y="368"/>
			<point x="567" y="378" type="curve"/>
			<point x="611" y="344" type="line"/>
			<point x="611" y="403" type="line"/>
			<point x="567" y="364" type="line"/>
			<point x="652" y="376"/>
			<point x="704" y="438"/>
			<point x="704" y="526" type="curve" smooth="yes"/>
			<point x="704" y="644"/>
			<point x="612" y="727"/>
			<point x="434" y="727" type="curve" smooth="yes"/>
			<point x="20" y="727" type="line"/>
		</contour>
		<contour>
			<point x="365" y="514" type="line" smooth="yes"/>
			<point x="397" y="514"/>
			<point x="414" y="500"/>
			<point x="414" y="473" type="curve" smooth="yes"/>
			<point x="414" y="446"/>
			<point x="396" y="430"/>
			<point x="366" y="430" type="curve" smooth="yes"/>
			<point x="317" y="430" type="line"/>
			<point x="317" y="514" type="line"/>
		</contour>
		<contour>
			<point x="375" y="301" type="line" smooth="yes"/>
			<point x="407" y="301"/>
			<point x="424" y="286"/>
			<point x="424" y="258" type="curve" smooth="yes"/>
			<point x="424" y="229"/>
			<point x="406" y="212"/>
			<point x="376" y="212" type="curve" smooth="yes"/>
			<point x="317" y="212" type="line"/>
			<point x="317" y="301" type="line"/>
		</contour>
	</outline>
</glyph>
<glyph name="C" format="2">
	<advance width="796"/>
	<unicode hex="0043"/>
	<guideline x="335" y="725" angle="0"/>
	<anchor x="398" y="727" name="top"/>
	<anchor x="400" y="0" name="bottom"/>
	<outline>
		<contour>
			<point x="10" y="363" type="curve" smooth="yes"/>
			<point x="10" y="136"/>
			<point x="169" y="-20"/>
			<point x="400" y="-20" type="curve" smooth="yes"/>
			<point x="626" y="-20"/>
			<point x="773" y="115"/>
			<point x="787" y="346" type="curve"/>
			<point x="491" y="346" type="line"/>
			<point x="483" y="290"/>
			<point x="456" y="261"/>
			<point x="411" y="261" type="curve" smooth="yes"/>
			<point x="359" y="261"/>
			<point x="325" y="301"/>
			<point x="325" y="363" type="curve" smooth="yes"/>
			<point x="325" y="424"/>
			<point x="359" y="465"/>
			<point x="411" y="465" type="curve" smooth="yes"/>
			<point x="456" y="465"/>
			<point x="483" y="436"/>
			<point x="491" y="380" type="curve"/>
			<point x="787" y="380" type="line"/>
			<point x="766" y="619"/>
			<point x="622" y="747"/>
			<point x="400" y="747" type="curve" smooth="yes"/>
			<point x="170" y="747"/>
			<point x="10" y="590"/>
		</contour>
	</outline>
</glyph>
<glyph name="D" format="2">
	<advance width="747"/>
	<unicode hex="0044"/>
	<anchor x="351" y="727" name="top"/>
	<outline>
		<contour>
			<point x="364" y="0" type="curve" smooth="yes"/>
			<point x="20" y="0" type="line"/>
			<point x="20" y="727" type="line"/>
			<point x="354" y="727" type="line" smooth="yes"/>
			<point x="570" y="727"/>
			<point x="737" y="594"/>
			<point x="737" y="363" type="curve" smooth="yes"/>
			<point x="737" y="131"/>
			<point x="574" y="0"/>
		</contour>
		<contour>
			<point x="341" y="459" type="curve" smooth="yes"/>
			<point x="312" y="459" type="line"/>
			<point x="312" y="269" type="line"/>
			<point x="340" y="269" type="line" smooth="yes"/>
			<point x="396" y="269"/>
			<point x="435" y="304"/>
			<point x="435" y="364" type="curve" smooth="yes"/>
			<point x="435" y="424"/>
			<point x="396" y="459"/>
		</contour>
	</outline>
</glyph>
<glyph name="F" format="2">
	<advance width="576"/>
	<unicode hex="0046"/>
	<guideline x="0" y="0" angle="270"/>
	<guideline x="97" y="0" angle="270"/>
	<guideline x="194" y="0" angle="270"/>
	<guideline x="291" y="0" angle="270"/>
	<guideline x="388" y="0" angle="270"/>
	<guideline x="485" y="0" angle="270"/>
	<guideline x="582" y="0" angle="270"/>
	<guideline x="679" y="0" angle="270"/>
	<guideline x="776" y="0" angle="270"/>
	<guideline x="873" y="0" angle="270"/>
	<guideline x="970" y="0" angle="270"/>
	<guideline x="1067" y="0" angle="270"/>
	<guideline x="1164" y="0" angle="270"/>
	<guideline y="0"/>
	<guideline y="97"/>
	<guideline y="194"/>
	<guideline y="291"/>
	<guideline y="388"/>
	<guideline y="485"/>
	<guideline x="1088" y="580" angle="0"/>
	<guideline y="679"/>
	<guideline y="776"/>
	<guideline y="873"/>
	<guideline y="970"/>
	<guideline y="1067"/>
	<guideline y="1164"/>
	<guideline y="1261"/>
	<guideline y="1358"/>
	<guideline y="1455"/>
	<guideline y="1552"/>
	<guideline y="1649"/>
	<guideline y="1746"/>
	<guideline y="0"/>
	<guideline y="-97"/>
	<guideline y="-194"/>
	<guideline y="-291"/>
	<outline>
		<contour>
			<point x="559" y="453" type="line"/>
			<point x="559" y="727" type="line"/>
			<point x="30" y="727" type="line"/>
			<point x="30" y="0" type="line"/>
			<point x="327" y="0" type="line"/>
			<point x="327" y="145" type="line"/>
			<point x="502" y="145" type="line"/>
			<point x="502" y="383" type="line"/>
			<point x="327" y="383" type="line"/>
			<point x="327" y="453" type="line"/>
		</contour>
	</outline>
</glyph>
<glyph name="G" format="2">
	<advance width="774"/>
	<unicode hex="0047"/>
	<anchor x="398" y="727" name="top"/>
	<anchor x="398" y="0" name="bottom"/>
	<outline>
		<contour>
			<point x="396" y="405" type="line"/>
			<point x="396" y="280" type="line"/>
			<point x="476" y="280" type="line"/>
			<point x="468" y="312" type="line"/>
			<point x="468" y="299" type="line"/>
			<point x="468" y="263"/>
			<point x="447" y="242"/>
			<point x="410" y="242" type="curve" smooth="yes"/>
			<point x="349" y="242"/>
			<point x="320" y="290"/>
			<point x="320" y="357" type="curve" smooth="yes"/>
			<point x="320" y="426"/>
			<point x="346" y="475"/>
			<point x="402" y="475" type="curve" smooth="yes"/>
			<point x="430" y="475"/>
			<point x="450" y="458"/>
			<point x="457" y="431" type="curve"/>
			<point x="758" y="431" type="line"/>
			<point x="735" y="606"/>
			<point x="625" y="747"/>
			<point x="398" y="747" type="curve" smooth="yes"/>
			<point x="170" y="747"/>
			<point x="10" y="598"/>
			<point x="10" y="363" type="curve" smooth="yes"/>
			<point x="10" y="132"/>
			<point x="159" y="-15"/>
			<point x="387" y="-15" type="curve" smooth="yes"/>
			<point x="479" y="-15"/>
			<point x="553" y="6"/>
			<point x="609" y="54" type="curve"/>
			<point x="615" y="54" type="line"/>
			<point x="639" y="0" type="line"/>
			<point x="759" y="0" type="line"/>
			<point x="759" y="405" type="line"/>
		</contour>
	</outline>
</glyph>
<glyph name="H" format="2">
	<advance width="727"/>
	<unicode hex="0048"/>
	<guideline x="0" y="0" angle="270"/>
	<guideline x="97" y="0" angle="270"/>
	<guideline x="194" y="0" angle="270"/>
	<guideline x="291" y="0" angle="270"/>
	<guideline x="388" y="0" angle="270"/>
	<guideline x="485" y="0" angle="270"/>
	<guideline x="582" y="0" angle="270"/>
	<guideline x="679" y="0" angle="270"/>
	<guideline x="776" y="0" angle="270"/>
	<guideline x="873" y="0" angle="270"/>
	<guideline x="970" y="0" angle="270"/>
	<guideline x="1067" y="0" angle="270"/>
	<guideline x="1164" y="0" angle="270"/>
	<guideline x="1261" y="0" angle="270"/>
	<guideline x="1358" y="0" angle="270"/>
	<guideline x="1455" y="0" angle="270"/>
	<guideline y="0"/>
	<guideline y="97"/>
	<guideline y="194"/>
	<guideline y="291"/>
	<guideline y="388"/>
	<guideline y="485"/>
	<guideline y="582"/>
	<guideline y="679"/>
	<guideline y="776"/>
	<guideline y="873"/>
	<guideline y="970"/>
	<guideline y="1067"/>
	<guideline y="1164"/>
	<guideline y="1261"/>
	<guideline y="1358"/>
	<guideline y="1455"/>
	<guideline y="1552"/>
	<guideline y="1649"/>
	<guideline y="1746"/>
	<guideline y="0"/>
	<guideline y="-97"/>
	<guideline y="-194"/>
	<guideline y="-291"/>
	<outline>
		<contour>
			<point x="322" y="727" type="line"/>
			<point x="322" y="0" type="line"/>
			<point x="20" y="0" type="line"/>
			<point x="20" y="727" type="line"/>
		</contour>
		<contour>
			<point x="155" y="243" type="line"/>
			<point x="155" y="485" type="line"/>
			<point x="589" y="485" type="line"/>
			<point x="589" y="243" type="line"/>
		</contour>
		<contour>
			<point x="707" y="727" type="line"/>
			<point x="707" y="0" type="line"/>
			<point x="405" y="0" type="line"/>
			<point x="405" y="727" type="line"/>
		</contour>
	</outline>
</glyph>
<glyph name="I" format="2">
	<advance width="337"/>
	<unicode hex="0049"/>
	<anchor x="317" y="0" name="ogonek"/>
	<anchor x="169" y="0" name="bottom"/>
	<anchor x="169" y="727" name="top"/>
	<outline>
		<contour>
			<point x="317" y="727" type="line"/>
			<point x="20" y="727" type="line"/>
			<point x="20" y="0" type="line"/>
			<point x="317" y="0" type="line"/>
		</contour>
	</outline>
</glyph>
<glyph name="J" format="2">
	<advance width="421"/>
	<unicode hex="004A"/>
	<outline>
		<contour>
			<point x="15" y="0" type="curve"/>
			<point x="15" y="254" type="line"/>
			<point x="45" y="250"/>
			<point x="61" y="248"/>
			<point x="86" y="248" type="curve" smooth="yes"/>
			<point x="99" y="248"/>
			<point x="106" y="255"/>
			<point x="106" y="266" type="curve" smooth="yes"/>
			<point x="106" y="727" type="line"/>
			<point x="403" y="727" type="line"/>
			<point x="404" y="223" type="line" smooth="yes"/>
			<point x="404" y="59"/>
			<point x="305" y="-15"/>
			<point x="150" y="-15" type="curve" smooth="yes"/>
			<point x="101" y="-15"/>
			<point x="59" y="-11"/>
		</contour>
	</outline>
</glyph>
<glyph name="K" format="2">
	<advance width="761"/>
	<unicode hex="004B"/>
	<guideline x="449.89" y="174.25" angle="220.1026"/>
	<anchor x="369" y="727" name="top"/>
	<anchor x="369" y="0" name="bottom"/>
	<outline>
		<contour>
			<point x="317" y="727" type="line"/>
			<point x="317" y="0" type="line"/>
			<point x="20" y="0" type="line"/>
			<point x="20" y="727" type="line"/>
		</contour>
		<contour>
			<point x="774" y="727" type="line"/>
			<point x="507" y="352" type="line"/>
			<point x="410" y="325" type="line"/>
			<point x="281" y="146" type="line"/>
			<point x="277" y="552" type="line"/>
			<point x="323" y="552" type="line"/>
			<point x="434" y="727" type="line"/>
		</contour>
		<contour>
			<point x="427" y="0" type="line"/>
			<point x="335" y="213" type="line"/>
			<point x="297" y="213" type="line"/>
			<point x="530" y="520" type="line"/>
			<point x="771" y="0" type="line"/>
		</contour>
	</outline>
</glyph>
<glyph name="L" format="2">
	<advance width="540"/>
	<unicode hex="004C"/>
	<anchor x="168" y="727" name="top"/>
	<anchor x="265" y="0" name="bottom"/>
	<outline>
		<contour>
			<point x="317" y="727" type="line"/>
			<point x="20" y="727" type="line"/>
			<point x="20" y="0" type="line"/>
			<point x="526" y="0" type="line"/>
			<point x="526" y="269" type="line"/>
			<point x="317" y="269" type="line"/>
		</contour>
	</outline>
</glyph>
<glyph name="M" format="2">
	<advance width="894"/>
	<unicode hex="004D"/>
	<outline>
		<contour>
			<point x="20" y="0" type="line"/>
			<point x="20" y="727" type="line"/>
			<point x="340" y="727" type="line"/>
			<point x="512" y="372" type="line"/>
			<point x="358" y="509" type="line"/>
			<point x="535" y="509" type="line"/>
			<point x="386" y="372" type="line"/>
			<point x="557" y="727" type="line"/>
			<point x="874" y="727" type="line"/>
			<point x="874" y="0" type="line"/>
			<point x="595" y="0" type="line"/>
			<point x="595" y="459" type="line"/>
			<point x="752" y="209" type="line"/>
			<point x="514" y="209" type="line"/>
			<point x="675" y="390" type="line"/>
			<point x="489" y="0" type="line"/>
			<point x="406" y="0" type="line"/>
			<point x="220" y="390" type="line"/>
			<point x="379" y="209" type="line"/>
			<point x="143" y="209" type="line"/>
			<point x="300" y="459" type="line"/>
			<point x="300" y="0" type="line"/>
		</contour>
	</outline>
</glyph>
<glyph name="N" format="2">
	<advance width="723"/>
	<unicode hex="004E"/>
	<guideline x="163.96" y="50.28" angle="270"/>
	<anchor x="363" y="727" name="top"/>
	<anchor x="363" y="0" name="bottom"/>
	<outline>
		<contour>
			<point x="20" y="0" type="line"/>
			<point x="20" y="727" type="line"/>
			<point x="254" y="727" type="line"/>
			<point x="439" y="475" type="line"/>
			<point x="383" y="514" type="line"/>
			<point x="458" y="514" type="line"/>
			<point x="414" y="475" type="line"/>
			<point x="414" y="727" type="line"/>
			<point x="703" y="727" type="line"/>
			<point x="703" y="0" type="line"/>
			<point x="470" y="0" type="line"/>
			<point x="285" y="251" type="line"/>
			<point x="340" y="212" type="line"/>
			<point x="266" y="212" type="line"/>
			<point x="309" y="251" type="line"/>
			<point x="309" y="0" type="line"/>
		</contour>
	</outline>
</glyph>
<glyph name="O" format="2">
	<advance width="817"/>
	<unicode hex="004F"/>
	<anchor x="406" y="727" name="top"/>
	<anchor x="409" y="-20" name="bottom"/>
	<outline>
		<contour>
			<point x="406" y="-20" type="curve" smooth="yes"/>
			<point x="188" y="-20"/>
			<point x="10" y="125"/>
			<point x="10" y="363" type="curve" smooth="yes"/>
			<point x="10" y="601"/>
			<point x="188" y="747"/>
			<point x="406" y="747" type="curve" smooth="yes"/>
			<point x="624" y="747"/>
			<point x="807" y="601"/>
			<point x="807" y="363" type="curve" smooth="yes"/>
			<point x="807" y="125"/>
			<point x="625" y="-20"/>
		</contour>
		<contour>
			<point x="407" y="263" type="curve" smooth="yes"/>
			<point x="460" y="263"/>
			<point x="496" y="304"/>
			<point x="496" y="363" type="curve" smooth="yes"/>
			<point x="496" y="422"/>
			<point x="460" y="465"/>
			<point x="407" y="465" type="curve" smooth="yes"/>
			<point x="353" y="465"/>
			<point x="320" y="422"/>
			<point x="320" y="363" type="curve" smooth="yes"/>
			<point x="320" y="304"/>
			<point x="353" y="263"/>
		</contour>
	</outline>
</glyph>
<glyph name="P" format="2">
	<advance width="709"/>
	<unicode hex="0050"/>
	<outline>
		<contour>
			<point x="20" y="727" type="line"/>
			<point x="20" y="0" type="line"/>
			<point x="317" y="0" type="line"/>
			<point x="317" y="489" type="line"/>
			<point x="359" y="489" type="line" smooth="yes"/>
			<point x="403" y="489"/>
			<point x="418" y="471"/>
			<point x="418" y="436" type="curve" smooth="yes"/>
			<point x="418" y="402"/>
			<point x="403" y="380"/>
			<point x="358" y="380" type="curve" smooth="yes"/>
			<point x="241" y="380" type="line"/>
			<point x="241" y="180" type="line"/>
			<point x="400" y="180" type="line" smooth="yes"/>
			<point x="585" y="180"/>
			<point x="696" y="285"/>
			<point x="696" y="453" type="curve" smooth="yes"/>
			<point x="696" y="632"/>
			<point x="585" y="727"/>
			<point x="399" y="727" type="curve" smooth="yes"/>
		</contour>
	</outline>
</glyph>
<glyph name="Q" format="2">
	<advance width="817"/>
	<unicode hex="0051"/>
	<guideline x="0" y="0" angle="270"/>
	<guideline x="97" y="0" angle="270"/>
	<guideline x="194" y="0" angle="270"/>
	<guideline x="291" y="0" angle="270"/>
	<guideline x="388" y="0" angle="270"/>
	<guideline x="485" y="0" angle="270"/>
	<guideline x="582" y="0" angle="270"/>
	<guideline x="679" y="0" angle="270"/>
	<guideline x="776" y="0" angle="270"/>
	<guideline x="873" y="0" angle="270"/>
	<guideline x="970" y="0" angle="270"/>
	<guideline x="1067" y="0" angle="270"/>
	<guideline x="1164" y="0" angle="270"/>
	<guideline x="1261" y="0" angle="270"/>
	<guideline x="1358" y="0" angle="270"/>
	<guideline x="1455" y="0" angle="270"/>
	<guideline x="1552" y="0" angle="270"/>
	<guideline x="1649" y="0" angle="270"/>
	<guideline y="0"/>
	<guideline y="97"/>
	<guideline y="194"/>
	<guideline y="291"/>
	<guideline y="388"/>
	<guideline y="485"/>
	<guideline y="582"/>
	<guideline y="679"/>
	<guideline y="776"/>
	<guideline y="873"/>
	<guideline y="970"/>
	<guideline y="1067"/>
	<guideline y="1164"/>
	<guideline y="1261"/>
	<guideline y="1358"/>
	<guideline y="1455"/>
	<guideline y="1552"/>
	<guideline y="1649"/>
	<guideline y="1746"/>
	<guideline y="0"/>
	<guideline y="-97"/>
	<guideline y="-194"/>
	<guideline y="-291"/>
	<outline>
		<contour>
			<point x="529" y="277" type="line"/>
			<point x="607" y="189" type="line"/>
			<point x="735" y="180" type="line"/>
			<point x="756" y="155" type="line" smooth="yes"/>
			<point x="761" y="149"/>
			<point x="769" y="146"/>
			<point x="779" y="146" type="curve" smooth="yes"/>
			<point x="790" y="146"/>
			<point x="799" y="147"/>
			<point x="808" y="149" type="curve"/>
			<point x="808" y="-58" type="line"/>
			<point x="778" y="-64"/>
			<point x="755" y="-67"/>
			<point x="720" y="-67" type="curve" smooth="yes"/>
			<point x="645" y="-67"/>
			<point x="592" y="-47"/>
			<point x="545" y="13" type="curve" smooth="yes"/>
			<point x="523" y="41" type="line"/>
			<point x="528" y="137" type="line"/>
			<point x="460" y="212" type="line"/>
		</contour>
		<component base="O"/>
	</outline>
</glyph>
<glyph name="R" format="2">
	<advance width="709"/>
	<unicode hex="0052"/>
	<guideline x="519" y="342" angle="270"/>
	<anchor x="360" y="727" name="top"/>
	<anchor x="360" y="0" name="bottom"/>
	<outline>
		<contour>
			<point x="579" y="333" type="line"/>
			<point x="304" y="290" type="line"/>
			<point x="391" y="0" type="line"/>
			<point x="703" y="0" type="line"/>
		</contour>
		<component base="P"/>
	</outline>
</glyph>
<glyph name="S" format="2">
	<advance width="720"/>
	<unicode hex="0053"/>
	<guideline x="1119" y="1057" angle="21.1247"/>
	<anchor x="347" y="727" name="top"/>
	<anchor x="349" y="0" name="bottom"/>
	<outline>
		<contour>
			<point x="28" y="503" type="curve" smooth="yes"/>
			<point x="28" y="374"/>
			<point x="119" y="299"/>
			<point x="245" y="269" type="curve" smooth="yes"/>
			<point x="340" y="246" type="line" smooth="yes"/>
			<point x="386" y="235"/>
			<point x="397" y="226"/>
			<point x="397" y="212" type="curve" smooth="yes"/>
			<point x="397" y="197"/>
			<point x="380" y="188"/>
			<point x="354" y="188" type="curve" smooth="yes"/>
			<point x="311" y="188"/>
			<point x="292" y="206"/>
			<point x="281" y="242" type="curve"/>
			<point x="13" y="242" type="line"/>
			<point x="47" y="73"/>
			<point x="159" y="-19"/>
			<point x="361" y="-19" type="curve" smooth="yes"/>
			<point x="579" y="-19"/>
			<point x="711" y="73"/>
			<point x="711" y="237" type="curve" smooth="yes"/>
			<point x="711" y="357"/>
			<point x="646" y="427"/>
			<point x="488" y="462" type="curve" smooth="yes"/>
			<point x="382" y="487" type="line" smooth="yes"/>
			<point x="324" y="501"/>
			<point x="315" y="511"/>
			<point x="315" y="524" type="curve" smooth="yes"/>
			<point x="315" y="538"/>
			<point x="329" y="546"/>
			<point x="359" y="546" type="curve" smooth="yes"/>
			<point x="398" y="546"/>
			<point x="430" y="525"/>
			<point x="436" y="494" type="curve"/>
			<point x="700" y="494" type="line"/>
			<point x="666" y="659"/>
			<point x="551" y="746"/>
			<point x="350" y="746" type="curve" smooth="yes"/>
			<point x="154" y="746"/>
			<point x="28" y="653"/>
		</contour>
	</outline>
</glyph>
<glyph name="T" format="2">
	<advance width="642"/>
	<unicode hex="0054"/>
	<anchor x="320" y="727" name="top"/>
	<anchor x="320" y="0" name="bottom"/>
	<outline>
		<contour>
			<point x="13" y="453" type="line"/>
			<point x="169" y="453" type="line"/>
			<point x="169" y="0" type="line"/>
			<point x="474" y="0" type="line"/>
			<point x="474" y="453" type="line"/>
			<point x="630" y="453" type="line"/>
			<point x="630" y="727" type="line"/>
			<point x="13" y="727" type="line"/>
		</contour>
	</outline>
</glyph>
<glyph name="U" format="2">
	<advance width="684"/>
	<unicode hex="0055"/>
	<anchor x="475" y="0" name="ogonek"/>
	<anchor x="348" y="-20" name="bottom"/>
	<anchor x="349" y="727" name="top"/>
	<outline>
		<contour>
			<point x="669" y="727" type="line"/>
			<point x="388" y="727" type="line"/>
			<point x="388" y="287" type="line" smooth="yes"/>
			<point x="388" y="261"/>
			<point x="373" y="248"/>
			<point x="350" y="248" type="curve" smooth="yes"/>
			<point x="328" y="248"/>
			<point x="315" y="261"/>
			<point x="315" y="287" type="curve" smooth="yes"/>
			<point x="315" y="727" type="line"/>
			<point x="15" y="727" type="line"/>
			<point x="15" y="275" type="line" smooth="yes"/>
			<point x="15" y="85"/>
			<point x="139" y="-20"/>
			<point x="339" y="-20" type="curve" smooth="yes"/>
			<point x="539" y="-20"/>
			<point x="669" y="85"/>
			<point x="669" y="275" type="curve" smooth="yes"/>
		</contour>
	</outline>
</glyph>
<glyph name="V" format="2">
	<advance width="756"/>
	<unicode hex="0056"/>
	<guideline x="106.89" y="0" angle="292.0836"/>
	<guideline x="268.14" y="269.04" angle="67.9164"/>
	<outline>
		<contour>
			<point x="319" y="727" type="line"/>
			<point x="391" y="423" type="line"/>
			<point x="337" y="426" type="line"/>
			<point x="449" y="426" type="line"/>
			<point x="393" y="423" type="line"/>
			<point x="466" y="727" type="line"/>
			<point x="763" y="727" type="line"/>
			<point x="521" y="0" type="line"/>
			<point x="235" y="0" type="line"/>
			<point x="-8" y="727" type="line"/>
		</contour>
	</outline>
</glyph>
<glyph name="W" format="2">
	<advance width="1069"/>
	<unicode hex="0057"/>
	<outline>
		<contour>
			<point x="-8" y="727" type="line"/>
			<point x="316" y="727" type="line"/>
			<point x="398" y="441" type="line"/>
			<point x="341" y="486" type="line"/>
			<point x="435" y="486" type="line"/>
			<point x="373" y="443" type="line"/>
			<point x="480" y="727" type="line"/>
			<point x="626" y="727" type="line"/>
			<point x="739" y="438" type="line"/>
			<point x="677" y="484" type="line"/>
			<point x="771" y="484" type="line"/>
			<point x="715" y="438" type="line"/>
			<point x="791" y="727" type="line"/>
			<point x="1077" y="727" type="line"/>
			<point x="841" y="0" type="line"/>
			<point x="632" y="0" type="line"/>
			<point x="523" y="276" type="line"/>
			<point x="581" y="240" type="line"/>
			<point x="489" y="240" type="line"/>
			<point x="547" y="276" type="line"/>
			<point x="438" y="0" type="line"/>
			<point x="239" y="0" type="line"/>
		</contour>
	</outline>
</glyph>
<glyph name="X" format="2">
	<advance width="767"/>
	<unicode hex="0058"/>
	<guideline x="483" y="828" angle="238.9752"/>
	<guideline x="1010" y="597" angle="59.0953"/>
	<guideline x="1010" y="597" angle="58.9969"/>
	<outline>
		<contour>
			<point x="329" y="727" type="line"/>
			<point x="0" y="727" type="line"/>
			<point x="248" y="315" type="line"/>
			<point x="319" y="230" type="line"/>
			<point x="449" y="0" type="line"/>
			<point x="774" y="0" type="line"/>
			<point x="515" y="435" type="line"/>
			<point x="441" y="525" type="line"/>
		</contour>
		<contour>
			<point x="283" y="0" type="line"/>
			<point x="360" y="152" type="line"/>
			<point x="434" y="152" type="line"/>
			<point x="237" y="419" type="line"/>
			<point x="-8" y="0" type="line"/>
		</contour>
		<contour>
			<point x="483" y="727" type="line"/>
			<point x="412" y="582" type="line"/>
			<point x="347" y="582" type="line"/>
			<point x="510" y="294" type="line"/>
			<point x="763" y="727" type="line"/>
		</contour>
	</outline>
</glyph>
<glyph name="Y" format="2">
	<advance width="749"/>
	<unicode hex="0059"/>
	<anchor x="393" y="727" name="top"/>
	<anchor x="375" y="0" name="bottom"/>
	<outline>
		<contour>
			<point x="327" y="727" type="line"/>
			<point x="392" y="555" type="line"/>
			<point x="355" y="557" type="line"/>
			<point x="430" y="557" type="line"/>
			<point x="393" y="555" type="line"/>
			<point x="452" y="727" type="line"/>
			<point x="757" y="727" type="line"/>
			<point x="460" y="149" type="line"/>
			<point x="289" y="149" type="line"/>
			<point x="-8" y="727" type="line"/>
		</contour>
		<contour>
			<point x="527" y="398" type="line"/>
			<point x="527" y="0" type="line"/>
			<point x="222" y="0" type="line"/>
			<point x="222" y="398" type="line"/>
		</contour>
	</outline>
</glyph>
<glyph name="Z" format="2">
	<advance width="622"/>
	<unicode hex="005A"/>
	<anchor x="324" y="727" name="top"/>
	<outline>
		<contour>
			<point x="14" y="727" type="line"/>
			<point x="609" y="727" type="line"/>
			<point x="609" y="533" type="line"/>
			<point x="362" y="206" type="line"/>
			<point x="417" y="326" type="line"/>
			<point x="417" y="221" type="line"/>
			<point x="364" y="274" type="line"/>
			<point x="618" y="274" type="line"/>
			<point x="591" y="0" type="line"/>
			<point x="14" y="0" type="line"/>
			<point x="14" y="195" type="line"/>
			<point x="285" y="522" type="line"/>
			<point x="224" y="401" type="line"/>
			<point x="224" y="506" type="line"/>
			<point x="294" y="454" type="line"/>
			<point x="14" y="454" type="line"/>
		</contour>
	</outline>
</glyph>
<glyph name="bracketleft" format="2">
	<advance width="358"/>
	<unicode hex="005B"/>
	<outline>
		<contour>
			<point x="270" y="93" type="line"/>
			<point x="343" y="93" type="line"/>
			<point x="343" y="-142" type="line"/>
			<point x="20" y="-142" type="line"/>
			<point x="20" y="804" type="line"/>
			<point x="343" y="804" type="line"/>
			<point x="343" y="569" type="line"/>
			<point x="270" y="569" type="line"/>
		</contour>
	</outline>
</glyph>
<glyph name="asciicircum" format="2">
	<advance width="620"/>
	<unicode hex="005E"/>
	<outline>
		<contour>
			<point x="360" y="408" type="line"/>
			<point x="618" y="408" type="line"/>
			<point x="430" y="727" type="line"/>
			<point x="190" y="727" type="line"/>
			<point x="3" y="408" type="line"/>
			<point x="243" y="408" type="line"/>
			<point x="298" y="540" type="line"/>
			<point x="301" y="540" type="line"/>
		</contour>
	</outline>
</glyph>
<glyph name="a" format="2">
	<advance width="602"/>
	<unicode hex="0061"/>
	<anchor x="584" y="0" name="ogonek"/>
	<anchor x="309" y="-8" name="bottom"/>
	<anchor x="299" y="552" name="top"/>
	<outline>
		<contour>
			<point x="251" y="337" type="line"/>
			<point x="254" y="356"/>
			<point x="266" y="368"/>
			<point x="289" y="368" type="curve" smooth="yes"/>
			<point x="313" y="368"/>
			<point x="329" y="352"/>
			<point x="329" y="328" type="curve" smooth="yes"/>
			<point x="329" y="322" type="line"/>
			<point x="217" y="318" type="line" smooth="yes"/>
			<point x="84" y="313"/>
			<point x="7" y="252"/>
			<point x="7" y="153" type="curve" smooth="yes"/>
			<point x="7" y="53"/>
			<point x="80" y="-8"/>
			<point x="197" y="-8" type="curve" smooth="yes"/>
			<point x="259" y="-8"/>
			<point x="302" y="12"/>
			<point x="331" y="50" type="curve"/>
			<point x="335" y="50" type="line"/>
			<point x="335" y="0" type="line"/>
			<point x="584" y="0" type="line"/>
			<point x="584" y="293" type="line" smooth="yes"/>
			<point x="584" y="476"/>
			<point x="488" y="566"/>
			<point x="305" y="566" type="curve" smooth="yes"/>
			<point x="142" y="566"/>
			<point x="47" y="483"/>
			<point x="27" y="337" type="curve"/>
		</contour>
		<contour>
			<point x="283" y="155" type="curve" smooth="yes"/>
			<point x="263" y="155"/>
			<point x="252" y="167"/>
			<point x="252" y="182" type="curve" smooth="yes"/>
			<point x="252" y="198"/>
			<point x="262" y="210"/>
			<point x="285" y="211" type="curve" smooth="yes"/>
			<point x="329" y="213" type="line"/>
			<point x="329" y="201" type="line" smooth="yes"/>
			<point x="329" y="168"/>
			<point x="312" y="155"/>
		</contour>
	</outline>
</glyph>
<glyph name="b" format="2">
	<advance width="650"/>
	<unicode hex="0062"/>
	<outline>
		<contour>
			<point x="275" y="727" type="line"/>
			<point x="275" y="516" type="line"/>
			<point x="279" y="516" type="line"/>
			<point x="308" y="541"/>
			<point x="353" y="558"/>
			<point x="404" y="558" type="curve" smooth="yes"/>
			<point x="548" y="558"/>
			<point x="638" y="445"/>
			<point x="638" y="275" type="curve" smooth="yes"/>
			<point x="638" y="106"/>
			<point x="548" y="-10"/>
			<point x="404" y="-10" type="curve" smooth="yes"/>
			<point x="348" y="-10"/>
			<point x="307" y="7"/>
			<point x="271" y="44" type="curve"/>
			<point x="267" y="44" type="line"/>
			<point x="267" y="0" type="line"/>
			<point x="20" y="0" type="line"/>
			<point x="20" y="727" type="line"/>
		</contour>
		<contour>
			<point x="327" y="342" type="curve" smooth="yes"/>
			<point x="295" y="342"/>
			<point x="273" y="316"/>
			<point x="273" y="277" type="curve" smooth="yes"/>
			<point x="273" y="238"/>
			<point x="295" y="212"/>
			<point x="327" y="212" type="curve" smooth="yes"/>
			<point x="360" y="212"/>
			<point x="382" y="238"/>
			<point x="382" y="277" type="curve" smooth="yes"/>
			<point x="382" y="316"/>
			<point x="360" y="342"/>
		</contour>
	</outline>
</glyph>
<glyph name="c" format="2">
	<advance width="623"/>
	<unicode hex="0063"/>
	<guideline x="273" y="551" angle="0.2301"/>
	<guideline x="633" y="552" angle="90"/>
	<anchor x="313" y="557" name="top"/>
	<anchor x="318" y="0" name="bottom"/>
	<outline>
		<contour>
			<point x="495" y="-18"/>
			<point x="601" y="85"/>
			<point x="612" y="267" type="curve"/>
			<point x="370" y="267" type="line"/>
			<point x="365" y="230"/>
			<point x="346" y="213"/>
			<point x="320" y="213" type="curve" smooth="yes"/>
			<point x="287" y="213"/>
			<point x="267" y="239"/>
			<point x="267" y="276" type="curve" smooth="yes"/>
			<point x="267" y="313"/>
			<point x="287" y="340"/>
			<point x="320" y="340" type="curve" smooth="yes"/>
			<point x="346" y="340"/>
			<point x="366" y="323"/>
			<point x="370" y="287" type="curve"/>
			<point x="612" y="287" type="line"/>
			<point x="603" y="462"/>
			<point x="502" y="570"/>
			<point x="318" y="570" type="curve" smooth="yes"/>
			<point x="136" y="570"/>
			<point x="11" y="448"/>
			<point x="11" y="275" type="curve" smooth="yes"/>
			<point x="11" y="102"/>
			<point x="137" y="-18"/>
			<point x="318" y="-18" type="curve" smooth="yes"/>
		</contour>
	</outline>
</glyph>
<glyph name="e" format="2">
	<advance width="628"/>
	<unicode hex="0065"/>
	<anchor x="606" y="166" name="ogonek"/>
	<anchor x="316" y="0" name="bottom"/>
	<anchor x="316" y="552" name="top"/>
	<outline>
		<contour>
			<point x="190" y="222" type="line"/>
			<point x="616" y="222" type="line"/>
			<point x="631" y="426"/>
			<point x="524" y="571"/>
			<point x="318" y="571" type="curve" smooth="yes"/>
			<point x="130" y="571"/>
			<point x="11" y="441"/>
			<point x="11" y="272" type="curve" smooth="yes"/>
			<point x="11" y="103"/>
			<point x="132" y="-18"/>
			<point x="316" y="-18" type="curve" smooth="yes"/>
			<point x="485" y="-18"/>
			<point x="582" y="63"/>
			<point x="613" y="202" type="curve"/>
			<point x="373" y="202" type="line"/>
			<point x="362" y="181"/>
			<point x="344" y="170"/>
			<point x="318" y="170" type="curve" smooth="yes"/>
			<point x="283" y="170"/>
			<point x="261" y="191"/>
			<point x="261" y="226" type="curve" smooth="yes"/>
			<point x="261" y="319" type="line" smooth="yes"/>
			<point x="261" y="349"/>
			<point x="281" y="376"/>
			<point x="318" y="376" type="curve" smooth="yes"/>
			<point x="354" y="376"/>
			<point x="375" y="352"/>
			<point x="375" y="320" type="curve"/>
			<point x="423" y="331" type="line"/>
			<point x="190" y="331" type="line"/>
		</contour>
	</outline>
</glyph>
<glyph name="f" format="2">
	<advance width="360"/>
	<unicode hex="0066"/>
	<outline>
		<contour>
			<point x="8" y="552" type="line"/>
			<point x="8" y="319" type="line"/>
			<point x="352" y="319" type="line"/>
			<point x="352" y="552" type="line"/>
		</contour>
		<contour>
			<point x="302" y="0" type="line"/>
			<point x="302" y="397" type="line"/>
			<point x="302" y="496" type="line"/>
			<point x="302" y="566" type="line" smooth="yes"/>
			<point x="302" y="576"/>
			<point x="307" y="581"/>
			<point x="321" y="581" type="curve" smooth="yes"/>
			<point x="330" y="581"/>
			<point x="341" y="580"/>
			<point x="353" y="578" type="curve"/>
			<point x="353" y="727" type="line"/>
			<point x="316" y="733"/>
			<point x="279" y="737"/>
			<point x="241" y="737" type="curve" smooth="yes"/>
			<point x="111" y="737"/>
			<point x="45" y="675"/>
			<point x="45" y="572" type="curve" smooth="yes"/>
			<point x="45" y="0" type="line"/>
		</contour>
	</outline>
</glyph>
<glyph name="g" format="2">
	<advance width="646"/>
	<unicode hex="0067"/>
	<anchor x="315" y="552" name="top"/>
	<outline>
		<contour>
			<point x="369" y="37" type="line" smooth="yes"/>
			<point x="369" y="-3"/>
			<point x="353" y="-19"/>
			<point x="311" y="-19" type="curve" smooth="yes"/>
			<point x="269" y="-20"/>
			<point x="253" y="-6"/>
			<point x="247" y="19" type="curve"/>
			<point x="8" y="19" type="line"/>
			<point x="31" y="-110"/>
			<point x="141" y="-168"/>
			<point x="310" y="-168" type="curve" smooth="yes"/>
			<point x="514" y="-168"/>
			<point x="626" y="-80"/>
			<point x="626" y="78" type="curve" smooth="yes"/>
			<point x="626" y="552" type="line"/>
			<point x="379" y="552" type="line"/>
			<point x="379" y="494" type="line"/>
			<point x="375" y="494" type="line"/>
			<point x="342" y="539"/>
			<point x="297" y="562"/>
			<point x="240" y="562" type="curve" smooth="yes"/>
			<point x="101" y="562"/>
			<point x="12" y="457"/>
			<point x="12" y="297" type="curve" smooth="yes"/>
			<point x="12" y="138"/>
			<point x="98" y="40"/>
			<point x="234" y="40" type="curve" smooth="yes"/>
			<point x="291" y="40"/>
			<point x="335" y="55"/>
			<point x="365" y="94" type="curve"/>
			<point x="369" y="94" type="line"/>
		</contour>
		<contour>
			<point x="319" y="231" type="curve" smooth="yes"/>
			<point x="287" y="231"/>
			<point x="265" y="257"/>
			<point x="265" y="296" type="curve" smooth="yes"/>
			<point x="265" y="335"/>
			<point x="287" y="361"/>
			<point x="319" y="361" type="curve" smooth="yes"/>
			<point x="351" y="361"/>
			<point x="374" y="334"/>
			<point x="374" y="296" type="curve" smooth="yes"/>
			<point x="374" y="295" type="line" smooth="yes"/>
			<point x="374" y="257"/>
			<point x="352" y="231"/>
		</contour>
	</outline>
</glyph>
<glyph name="h" format="2">
	<advance width="614"/>
	<unicode hex="0068"/>
	<outline>
		<contour>
			<point x="278" y="0" type="line"/>
			<point x="278" y="331" type="line" smooth="yes"/>
			<point x="278" y="349"/>
			<point x="287" y="361"/>
			<point x="308" y="361" type="curve" smooth="yes"/>
			<point x="329" y="361"/>
			<point x="339" y="349"/>
			<point x="339" y="331" type="curve" smooth="yes"/>
			<point x="339" y="0" type="line"/>
			<point x="596" y="0" type="line"/>
			<point x="596" y="361" type="line" smooth="yes"/>
			<point x="596" y="490"/>
			<point x="533" y="567"/>
			<point x="420" y="567" type="curve" smooth="yes"/>
			<point x="362" y="567"/>
			<point x="312" y="547"/>
			<point x="281" y="511" type="curve"/>
			<point x="277" y="511" type="line"/>
			<point x="277" y="552" type="line"/>
			<point x="277" y="727" type="line"/>
			<point x="20" y="727" type="line"/>
			<point x="20" y="0" type="line"/>
		</contour>
	</outline>
</glyph>
<glyph name="k" format="2">
	<advance width="650"/>
	<unicode hex="006B"/>
	<guideline x="666" y="178" angle="110.0089"/>
	<anchor x="148" y="727" name="top"/>
	<anchor x="317" y="0" name="bottom"/>
	<outline>
		<contour>
			<point x="278" y="0" type="line"/>
			<point x="20" y="0" type="line"/>
			<point x="20" y="727" type="line"/>
			<point x="278" y="727" type="line"/>
		</contour>
		<contour>
			<point x="651" y="552" type="line"/>
			<point x="447" y="257" type="line"/>
			<point x="324" y="181" type="line"/>
			<point x="255" y="69" type="line"/>
			<point x="221" y="89" type="line"/>
			<point x="221" y="430" type="line"/>
			<point x="283" y="430" type="line"/>
			<point x="367" y="552" type="line"/>
		</contour>
		<contour>
			<point x="366" y="0" type="line"/>
			<point x="309" y="148" type="line"/>
			<point x="240" y="148" type="line"/>
			<point x="461" y="429" type="line"/>
			<point x="649" y="0" type="line"/>
		</contour>
	</outline>
</glyph>
<glyph name="l" format="2">
	<advance width="297"/>
	<unicode hex="006C"/>
	<anchor x="150" y="727" name="top"/>
	<anchor x="190" y="0" name="bottom"/>
	<outline>
		<contour>
			<point x="20" y="0" type="line"/>
			<point x="277" y="0" type="line"/>
			<point x="277" y="727" type="line"/>
			<point x="20" y="727" type="line"/>
		</contour>
	</outline>
</glyph>
<glyph name="m" format="2">
	<advance width="933"/>
	<unicode hex="006D"/>
	<outline>
		<contour>
			<point x="278" y="0" type="line"/>
			<point x="278" y="331" type="line" smooth="yes"/>
			<point x="278" y="349"/>
			<point x="287" y="361"/>
			<point x="308" y="361" type="curve" smooth="yes"/>
			<point x="329" y="361"/>
			<point x="339" y="349"/>
			<point x="339" y="331" type="curve" smooth="yes"/>
			<point x="339" y="0" type="line"/>
			<point x="596" y="0" type="line"/>
			<point x="596" y="331" type="line" smooth="yes"/>
			<point x="596" y="349"/>
			<point x="606" y="361"/>
			<point x="627" y="361" type="curve" smooth="yes"/>
			<point x="648" y="361"/>
			<point x="657" y="349"/>
			<point x="657" y="331" type="curve" smooth="yes"/>
			<point x="657" y="0" type="line"/>
			<point x="915" y="0" type="line"/>
			<point x="915" y="358" type="line" smooth="yes"/>
			<point x="915" y="489"/>
			<point x="847" y="567"/>
			<point x="719" y="567" type="curve" smooth="yes"/>
			<point x="646" y="567"/>
			<point x="589" y="539"/>
			<point x="556" y="493" type="curve"/>
			<point x="552" y="493" type="line"/>
			<point x="522" y="540"/>
			<point x="466" y="567"/>
			<point x="400" y="567" type="curve" smooth="yes"/>
			<point x="327" y="567"/>
			<point x="273" y="539"/>
			<point x="245" y="493" type="curve"/>
			<point x="241" y="493" type="line"/>
			<point x="228" y="552" type="line"/>
			<point x="20" y="552" type="line"/>
			<point x="20" y="0" type="line"/>
		</contour>
	</outline>
</glyph>
<glyph name="n" format="2">
	<advance width="614"/>
	<unicode hex="006E"/>
	<anchor x="308" y="552" name="top"/>
	<anchor x="307" y="0" name="bottom"/>
	<outline>
		<contour>
			<point x="278" y="0" type="line"/>
			<point x="278" y="327" type="line" smooth="yes"/>
			<point x="278" y="348"/>
			<point x="287" y="361"/>
			<point x="308" y="361" type="curve" smooth="yes"/>
			<point x="329" y="361"/>
			<point x="339" y="348"/>
			<point x="339" y="327" type="curve" smooth="yes"/>
			<point x="339" y="0" type="line"/>
			<point x="596" y="0" type="line"/>
			<point x="596" y="358" type="line" smooth="yes"/>
			<point x="596" y="489"/>
			<point x="529" y="567"/>
			<point x="415" y="567" type="curve" smooth="yes"/>
			<point x="347" y="567"/>
			<point x="303" y="543"/>
			<point x="275" y="508" type="curve"/>
			<point x="271" y="508" type="line"/>
			<point x="271" y="552" type="line"/>
			<point x="20" y="552" type="line"/>
			<point x="20" y="0" type="line"/>
		</contour>
	</outline>
</glyph>
<glyph name="o" format="2">
	<advance width="635"/>
	<unicode hex="006F"/>
	<guideline x="278" y="551" angle="0"/>
	<anchor x="621" y="0" name="ogonek"/>
	<anchor x="318" y="-19" name="bottom"/>
	<anchor x="318" y="552" name="top"/>
	<outline>
		<contour>
			<point x="318" y="-19" type="curve" smooth="yes"/>
			<point x="131" y="-19"/>
			<point x="11" y="110"/>
			<point x="11" y="276" type="curve" smooth="yes"/>
			<point x="11" y="442"/>
			<point x="131" y="571"/>
			<point x="318" y="571" type="curve" smooth="yes"/>
			<point x="505" y="571"/>
			<point x="624" y="442"/>
			<point x="624" y="276" type="curve" smooth="yes"/>
			<point x="624" y="110"/>
			<point x="505" y="-19"/>
		</contour>
		<contour>
			<point x="318" y="211" type="curve" smooth="yes"/>
			<point x="350" y="211"/>
			<point x="371" y="236"/>
			<point x="371" y="276" type="curve" smooth="yes"/>
			<point x="371" y="315"/>
			<point x="350" y="341"/>
			<point x="318" y="341" type="curve" smooth="yes"/>
			<point x="287" y="341"/>
			<point x="265" y="315"/>
			<point x="265" y="276" type="curve" smooth="yes"/>
			<point x="265" y="236"/>
			<point x="287" y="211"/>
		</contour>
	</outline>
</glyph>
<glyph name="p" format="2">
	<advance width="650"/>
	<unicode hex="0070"/>
	<outline>
		<contour>
			<point x="275" y="-133" type="line"/>
			<point x="20" y="-133" type="line"/>
			<point x="20" y="552" type="line"/>
			<point x="267" y="552" type="line"/>
			<point x="267" y="508" type="line"/>
			<point x="271" y="508" type="line"/>
			<point x="307" y="545"/>
			<point x="348" y="562"/>
			<point x="404" y="562" type="curve" smooth="yes"/>
			<point x="548" y="562"/>
			<point x="638" y="446"/>
			<point x="638" y="277" type="curve" smooth="yes"/>
			<point x="638" y="107"/>
			<point x="548" y="-6"/>
			<point x="404" y="-6" type="curve" smooth="yes"/>
			<point x="353" y="-6"/>
			<point x="308" y="11"/>
			<point x="279" y="36" type="curve"/>
			<point x="275" y="36" type="line"/>
		</contour>
		<contour>
			<point x="327" y="210" type="curve" smooth="yes"/>
			<point x="360" y="210"/>
			<point x="382" y="236"/>
			<point x="382" y="275" type="curve" smooth="yes"/>
			<point x="382" y="314"/>
			<point x="360" y="340"/>
			<point x="327" y="340" type="curve" smooth="yes"/>
			<point x="295" y="340"/>
			<point x="273" y="314"/>
			<point x="273" y="275" type="curve" smooth="yes"/>
			<point x="273" y="236"/>
			<point x="295" y="210"/>
		</contour>
	</outline>
</glyph>
<glyph name="q" format="2">
	<advance width="650"/>
	<unicode hex="0071"/>
	<outline>
		<contour>
			<point x="375" y="-133" type="line"/>
			<point x="375" y="36" type="line"/>
			<point x="371" y="36" type="line"/>
			<point x="342" y="11"/>
			<point x="297" y="-6"/>
			<point x="246" y="-6" type="curve" smooth="yes"/>
			<point x="102" y="-6"/>
			<point x="12" y="107"/>
			<point x="12" y="277" type="curve" smooth="yes"/>
			<point x="12" y="446"/>
			<point x="102" y="562"/>
			<point x="246" y="562" type="curve" smooth="yes"/>
			<point x="302" y="562"/>
			<point x="343" y="545"/>
			<point x="379" y="508" type="curve"/>
			<point x="383" y="508" type="line"/>
			<point x="383" y="552" type="line"/>
			<point x="630" y="552" type="line"/>
			<point x="630" y="-133" type="line"/>
		</contour>
		<contour>
			<point x="323" y="210" type="curve" smooth="yes"/>
			<point x="355" y="210"/>
			<point x="377" y="236"/>
			<point x="377" y="275" type="curve" smooth="yes"/>
			<point x="377" y="314"/>
			<point x="355" y="340"/>
			<point x="323" y="340" type="curve" smooth="yes"/>
			<point x="290" y="340"/>
			<point x="268" y="314"/>
			<point x="268" y="275" type="curve" smooth="yes"/>
			<point x="268" y="236"/>
			<point x="290" y="210"/>
		</contour>
	</outline>
</glyph>
<glyph name="r" format="2">
	<advance width="386"/>
	<unicode hex="0072"/>
	<anchor x="195" y="552" name="top"/>
	<anchor x="145" y="0" name="bottom"/>
	<outline>
		<contour>
			<point x="278" y="0" type="line"/>
			<point x="278" y="251" type="line" smooth="yes"/>
			<point x="278" y="277"/>
			<point x="292" y="289"/>
			<point x="328" y="289" type="curve" smooth="yes"/>
			<point x="347" y="289"/>
			<point x="361" y="287"/>
			<point x="374" y="285" type="curve"/>
			<point x="374" y="552" type="line"/>
			<point x="363" y="555"/>
			<point x="355" y="556"/>
			<point x="345" y="556" type="curve" smooth="yes"/>
			<point x="303" y="556"/>
			<point x="275" y="534"/>
			<point x="258" y="479" type="curve"/>
			<point x="254" y="479" type="line"/>
			<point x="254" y="552" type="line"/>
			<point x="20" y="552" type="line"/>
			<point x="20" y="0" type="line"/>
		</contour>
	</outline>
</glyph>
<glyph name="s" format="2">
	<advance width="586"/>
	<unicode hex="0073"/>
	<guideline x="192" y="306" angle="12.0669"/>
	<guideline x="934" y="810" angle="12.6666"/>
	<anchor x="286" y="552" name="top"/>
	<anchor x="282" y="0" name="bottom"/>
	<outline>
		<contour>
			<point x="4" y="376" type="curve" smooth="yes"/>
			<point x="4" y="283"/>
			<point x="79" y="228"/>
			<point x="187" y="203" type="curve" smooth="yes"/>
			<point x="287" y="180" type="line" smooth="yes"/>
			<point x="314" y="174"/>
			<point x="321" y="169"/>
			<point x="321" y="159" type="curve" smooth="yes"/>
			<point x="321" y="150"/>
			<point x="310" y="144"/>
			<point x="288" y="144" type="curve" smooth="yes"/>
			<point x="246" y="144"/>
			<point x="223" y="160"/>
			<point x="215" y="186" type="curve"/>
			<point x="-2" y="186" type="line"/>
			<point x="19" y="38"/>
			<point x="141" y="-18"/>
			<point x="280" y="-18" type="curve" smooth="yes"/>
			<point x="484" y="-18"/>
			<point x="582" y="65"/>
			<point x="582" y="183" type="curve" smooth="yes"/>
			<point x="582" y="279"/>
			<point x="522" y="326"/>
			<point x="391" y="354" type="curve" smooth="yes"/>
			<point x="287" y="376" type="line" smooth="yes"/>
			<point x="264" y="381"/>
			<point x="255" y="385"/>
			<point x="255" y="394" type="curve" smooth="yes"/>
			<point x="255" y="403"/>
			<point x="264" y="409"/>
			<point x="290" y="409" type="curve" smooth="yes"/>
			<point x="320" y="409"/>
			<point x="343" y="399"/>
			<point x="350" y="372" type="curve"/>
			<point x="566" y="372" type="line"/>
			<point x="542" y="504"/>
			<point x="445" y="571"/>
			<point x="284" y="571" type="curve" smooth="yes"/>
			<point x="105" y="571"/>
			<point x="4" y="493"/>
		</contour>
	</outline>
</glyph>
<glyph name="t" format="2">
	<advance width="399"/>
	<unicode hex="0074"/>
	<anchor x="190" y="0" name="bottom"/>
	<outline>
		<contour>
			<point x="8" y="319" type="line"/>
			<point x="382" y="319" type="line"/>
			<point x="382" y="552" type="line"/>
			<point x="8" y="552" type="line"/>
		</contour>
		<contour>
			<point x="307" y="660" type="line"/>
			<point x="45" y="660" type="line"/>
			<point x="45" y="528" type="line"/>
			<point x="45" y="195" type="line" smooth="yes"/>
			<point x="45" y="59"/>
			<point x="108" y="-15"/>
			<point x="243" y="-15" type="curve" smooth="yes"/>
			<point x="301" y="-15"/>
			<point x="335" y="-10"/>
			<point x="382" y="0" type="curve"/>
			<point x="382" y="229" type="line"/>
			<point x="368" y="227"/>
			<point x="354" y="225"/>
			<point x="339" y="225" type="curve" smooth="yes"/>
			<point x="315" y="225"/>
			<point x="307" y="231"/>
			<point x="307" y="246" type="curve" smooth="yes"/>
		</contour>
	</outline>
</glyph>
<glyph name="u" format="2">
	<advance width="614"/>
	<unicode hex="0075"/>
	<anchor x="594" y="-1" name="ogonek"/>
	<anchor x="306" y="-20" name="bottom"/>
	<anchor x="306" y="552" name="top"/>
	<outline>
		<contour>
			<point x="337" y="552" type="line"/>
			<point x="337" y="222" type="line" smooth="yes"/>
			<point x="337" y="204"/>
			<point x="327" y="191"/>
			<point x="306" y="191" type="curve" smooth="yes"/>
			<point x="285" y="191"/>
			<point x="276" y="204"/>
			<point x="276" y="222" type="curve" smooth="yes"/>
			<point x="276" y="552" type="line"/>
			<point x="18" y="552" type="line"/>
			<point x="18" y="190" type="line" smooth="yes"/>
			<point x="18" y="59"/>
			<point x="86" y="-20"/>
			<point x="211" y="-20" type="curve" smooth="yes"/>
			<point x="276" y="-20"/>
			<point x="331" y="11"/>
			<point x="357" y="55" type="curve"/>
			<point x="361" y="55" type="line"/>
			<point x="374" y="0" type="line"/>
			<point x="594" y="0" type="line"/>
			<point x="594" y="552" type="line"/>
		</contour>
	</outline>
</glyph>
<glyph name="v" format="2">
	<advance width="612"/>
	<unicode hex="0076"/>
	<outline>
		<contour>
			<point x="265" y="552" type="line"/>
			<point x="327" y="199" type="line"/>
			<point x="261" y="274" type="line"/>
			<point x="376" y="274" type="line"/>
			<point x="308" y="199" type="line"/>
			<point x="365" y="552" type="line"/>
			<point x="620" y="552" type="line"/>
			<point x="479" y="0" type="line"/>
			<point x="134" y="0" type="line"/>
			<point x="-8" y="552" type="line"/>
		</contour>
	</outline>
</glyph>
<glyph name="w" format="2">
	<advance width="878"/>
	<unicode hex="0077"/>
	<guideline x="736" y="192" angle="70.2328"/>
	<guideline x="951" y="192" angle="109.1037"/>
	<outline>
		<contour>
			<point x="-8" y="552" type="line"/>
			<point x="257" y="552" type="line"/>
			<point x="321" y="264" type="line"/>
			<point x="247" y="339" type="line"/>
			<point x="355" y="339" type="line"/>
			<point x="293" y="264" type="line"/>
			<point x="359" y="552" type="line"/>
			<point x="528" y="552" type="line"/>
			<point x="596" y="269" type="line"/>
			<point x="542" y="339" type="line"/>
			<point x="650" y="339" type="line"/>
			<point x="570" y="269" type="line"/>
			<point x="629" y="552" type="line"/>
			<point x="886" y="552" type="line"/>
			<point x="739" y="0" type="line"/>
			<point x="489" y="0" type="line"/>
			<point x="405" y="322" type="line"/>
			<point x="529" y="184" type="line"/>
			<point x="354" y="184" type="line"/>
			<point x="472" y="321" type="line"/>
			<point x="384" y="0" type="line"/>
			<point x="141" y="0" type="line"/>
		</contour>
	</outline>
</glyph>
<glyph name="x" format="2">
	<advance width="626"/>
	<unicode hex="0078"/>
	<outline>
		<contour>
			<point x="275" y="552" type="line"/>
			<point x="-1" y="552" type="line"/>
			<point x="203" y="231" type="line"/>
			<point x="266" y="159" type="line"/>
			<point x="355" y="0" type="line"/>
			<point x="634" y="0" type="line"/>
			<point x="434" y="320" type="line"/>
			<point x="368" y="390" type="line"/>
		</contour>
		<contour>
			<point x="235" y="0" type="line"/>
			<point x="287" y="114" type="line"/>
			<point x="333" y="114" type="line"/>
			<point x="189" y="339" type="line"/>
			<point x="-8" y="0" type="line"/>
		</contour>
		<contour>
			<point x="394" y="552" type="line"/>
			<point x="344" y="440" type="line"/>
			<point x="298" y="440" type="line"/>
			<point x="431" y="212" type="line"/>
			<point x="630" y="552" type="line"/>
		</contour>
	</outline>
</glyph>
<glyph name="y" format="2">
	<advance width="631"/>
	<unicode hex="0079"/>
	<guideline x="212" y="574" angle="113.2051"/>
	<guideline x="287" y="-73" angle="0"/>
	<guideline x="1075" y="551" angle="70.0086"/>
	<anchor x="333" y="552" name="top"/>
	<anchor x="548" y="-50" name="bottom"/>
	<outline>
		<contour>
			<point x="189" y="-163" type="curve" smooth="yes"/>
			<point x="334" y="-163"/>
			<point x="416" y="-126"/>
			<point x="462" y="14" type="curve" smooth="yes"/>
			<point x="638" y="552" type="line"/>
			<point x="388" y="552" type="line"/>
			<point x="328" y="306" type="line"/>
			<point x="358" y="333" type="line"/>
			<point x="305" y="333" type="line"/>
			<point x="337" y="306" type="line"/>
			<point x="272" y="552" type="line"/>
			<point x="-8" y="552" type="line"/>
			<point x="203" y="40" type="line"/>
			<point x="200" y="33" type="line" smooth="yes"/>
			<point x="195" y="21"/>
			<point x="182" y="15"/>
			<point x="159" y="15" type="curve" smooth="yes"/>
			<point x="131" y="15"/>
			<point x="103" y="20"/>
			<point x="74" y="29" type="curve"/>
			<point x="74" y="-149" type="line"/>
			<point x="112" y="-158"/>
			<point x="151" y="-163"/>
		</contour>
	</outline>
</glyph>
<glyph name="z" format="2">
	<advance width="527"/>
	<unicode hex="007A"/>
	<anchor x="270" y="552" name="top"/>
	<outline>
		<contour>
			<point x="15" y="0" type="line"/>
			<point x="15" y="212" type="line"/>
			<point x="230" y="367" type="line"/>
			<point x="183" y="279" type="line"/>
			<point x="183" y="381" type="line"/>
			<point x="239" y="340" type="line"/>
			<point x="15" y="340" type="line"/>
			<point x="15" y="552" type="line"/>
			<point x="515" y="552" type="line"/>
			<point x="515" y="351" type="line"/>
			<point x="310" y="186" type="line"/>
			<point x="351" y="275" type="line"/>
			<point x="351" y="172" type="line"/>
			<point x="311" y="213" type="line"/>
			<point x="520" y="213" type="line"/>
			<point x="520" y="0" type="line"/>
		</contour>
	</outline>
</glyph>
<glyph name="braceleft" format="2">
	<advance width="358"/>
	<unicode hex="007B"/>
	<outline>
		<contour>
			<point x="10" y="448" type="line"/>
			<point x="10" y="215" type="line"/>
			<point x="29" y="215" type="line" smooth="yes"/>
			<point x="42" y="215"/>
			<point x="49" y="209"/>
			<point x="49" y="196" type="curve" smooth="yes"/>
			<point x="49" y="73" type="line" smooth="yes"/>
			<point x="49" y="-77"/>
			<point x="119" y="-142"/>
			<point x="253" y="-142" type="curve" smooth="yes"/>
			<point x="343" y="-142" type="line"/>
			<point x="343" y="93" type="line"/>
			<point x="305" y="93" type="line" smooth="yes"/>
			<point x="293" y="93"/>
			<point x="286" y="99"/>
			<point x="286" y="111" type="curve" smooth="yes"/>
			<point x="286" y="214" type="line" smooth="yes"/>
			<point x="286" y="268"/>
			<point x="271" y="306"/>
			<point x="234" y="330" type="curve"/>
			<point x="234" y="333" type="line"/>
			<point x="271" y="356"/>
			<point x="286" y="395"/>
			<point x="286" y="449" type="curve" smooth="yes"/>
			<point x="286" y="551" type="line" smooth="yes"/>
			<point x="286" y="564"/>
			<point x="293" y="570"/>
			<point x="305" y="570" type="curve" smooth="yes"/>
			<point x="343" y="570" type="line"/>
			<point x="343" y="804" type="line"/>
			<point x="253" y="804" type="line" smooth="yes"/>
			<point x="119" y="804"/>
			<point x="49" y="739"/>
			<point x="49" y="590" type="curve" smooth="yes"/>
			<point x="49" y="466" type="line" smooth="yes"/>
			<point x="49" y="454"/>
			<point x="42" y="448"/>
			<point x="29" y="448" type="curve" smooth="yes"/>
		</contour>
	</outline>
</glyph>
<glyph name="bar" format="2">
	<advance width="320"/>
	<unicode hex="007C"/>
	<outline>
		<contour>
			<point x="300" y="775" type="line"/>
			<point x="300" y="-143" type="line"/>
			<point x="20" y="-143" type="line"/>
			<point x="20" y="775" type="line"/>
		</contour>
	</outline>
</glyph>
<glyph name="asciitilde" format="2">
	<advance width="620"/>
	<unicode hex="007E"/>
	<outline>
		<contour>
			<point x="443" y="456" type="line"/>
			<point x="443" y="411"/>
			<point x="425" y="394"/>
			<point x="396" y="394" type="curve" smooth="yes"/>
			<point x="347" y="394"/>
			<point x="308" y="451"/>
			<point x="215" y="451" type="curve" smooth="yes"/>
			<point x="86" y="451"/>
			<point x="13" y="343"/>
			<point x="13" y="151" type="curve"/>
			<point x="177" y="125" type="line"/>
			<point x="178" y="170"/>
			<point x="195" y="188"/>
			<point x="225" y="188" type="curve" smooth="yes"/>
			<point x="273" y="188"/>
			<point x="312" y="130"/>
			<point x="405" y="130" type="curve" smooth="yes"/>
			<point x="534" y="130"/>
			<point x="608" y="238"/>
			<point x="608" y="431" type="curve"/>
		</contour>
	</outline>
</glyph>
<glyph name="exclamdown" format="2">
	<advance width="312"/>
	<unicode hex="00A1"/>
	<outline>
		<contour>
			<point x="252" y="290" type="line"/>
			<point x="286" y="50" type="line"/>
			<point x="286" y="-175" type="line"/>
			<point x="26" y="-175" type="line"/>
			<point x="26" y="50" type="line"/>
			<point x="60" y="290" type="line"/>
		</contour>
		<component base="period" xScale="-1" yScale="-1" xOffset="299" yOffset="552"/>
	</outline>
</glyph>
<glyph name="sterling" format="2">
	<advance width="620"/>
	<unicode hex="00A3"/>
	<outline>
		<contour>
			<point x="15" y="286" type="line"/>
			<point x="516" y="286" type="line"/>
			<point x="516" y="416" type="line"/>
			<point x="224" y="416" type="line"/>
			<point x="15" y="391" type="line"/>
		</contour>
		<contour>
			<point x="14" y="195" type="curve"/>
			<point x="14" y="0" type="line"/>
			<point x="606" y="0" type="line"/>
			<point x="606" y="213" type="line"/>
			<point x="233" y="213" type="line"/>
			<point x="257" y="199" type="line"/>
			<point x="257" y="233" type="line"/>
			<point x="234" y="208" type="line"/>
			<point x="337" y="246"/>
			<point x="375" y="304"/>
			<point x="375" y="366" type="curve" smooth="yes"/>
			<point x="376" y="439"/>
			<point x="305" y="462"/>
			<point x="305" y="511" type="curve" smooth="yes"/>
			<point x="305" y="533"/>
			<point x="318" y="546"/>
			<point x="346" y="546" type="curve" smooth="yes"/>
			<point x="372" y="546"/>
			<point x="396" y="529"/>
			<point x="400" y="494" type="curve"/>
			<point x="612" y="519" type="line"/>
			<point x="587" y="660"/>
			<point x="487" y="746"/>
			<point x="307" y="746" type="curve" smooth="yes"/>
			<point x="129" y="746"/>
			<point x="16" y="655"/>
			<point x="16" y="532" type="curve" smooth="yes"/>
			<point x="16" y="426"/>
			<point x="94" y="388"/>
			<point x="94" y="313" type="curve" smooth="yes"/>
			<point x="94" y="257"/>
			<point x="74" y="222"/>
		</contour>
	</outline>
</glyph>
<glyph name="yen" format="2">
	<advance width="620"/>
	<unicode hex="00A5"/>
	<outline>
		<contour>
			<point x="290" y="727" type="line"/>
			<point x="3" y="727" type="line"/>
			<point x="225" y="184" type="line"/>
			<point x="396" y="184" type="line"/>
			<point x="617" y="727" type="line"/>
			<point x="362" y="727" type="line"/>
			<point x="328" y="434" type="line"/>
			<point x="365" y="448" type="line"/>
			<point x="291" y="448" type="line"/>
			<point x="327" y="434" type="line"/>
		</contour>
		<contour>
			<point x="463" y="398" type="line"/>
			<point x="158" y="398" type="line"/>
			<point x="158" y="0" type="line"/>
			<point x="463" y="0" type="line"/>
		</contour>
		<contour>
			<point x="21" y="201" type="line"/>
			<point x="599" y="201" type="line"/>
			<point x="599" y="321" type="line"/>
			<point x="21" y="321" type="line"/>
		</contour>
		<contour>
			<point x="21" y="376" type="line"/>
			<point x="234" y="376" type="line"/>
			<point x="234" y="497" type="line"/>
			<point x="21" y="497" type="line"/>
		</contour>
		<contour>
			<point x="388" y="376" type="line"/>
			<point x="599" y="376" type="line"/>
			<point x="599" y="497" type="line"/>
			<point x="388" y="497" type="line"/>
		</contour>
	</outline>
</glyph>
<glyph name="section" format="2">
	<advance width="667"/>
	<unicode hex="00A7"/>
	<guideline x="759" y="1029" angle="4.8596"/>
	<guideline x="563" y="67" angle="184.8596"/>
	<outline>
		<contour>
			<point x="625" y="30" type="curve"/>
			<point x="625" y="-103"/>
			<point x="515" y="-197"/>
			<point x="329" y="-197" type="curve"/>
			<point x="152" y="-197"/>
			<point x="46" y="-114"/>
			<point x="15" y="18" type="curve"/>
			<point x="262" y="39" type="line"/>
			<point x="268" y="16"/>
			<point x="296" y="-3"/>
			<point x="345" y="-3" type="curve" smooth="yes"/>
			<point x="378" y="-3"/>
			<point x="390" y="9"/>
			<point x="390" y="21" type="curve" smooth="yes"/>
			<point x="390" y="35"/>
			<point x="377" y="41"/>
			<point x="356" y="46" type="curve" smooth="yes"/>
			<point x="198" y="88" type="line" smooth="yes"/>
			<point x="59" y="124"/>
			<point x="2" y="196"/>
			<point x="2" y="300" type="curve" smooth="yes"/>
			<point x="2" y="396"/>
			<point x="56" y="467"/>
			<point x="167" y="499" type="curve"/>
			<point x="225" y="341" type="line"/>
			<point x="219" y="336"/>
			<point x="217" y="329"/>
			<point x="217" y="318" type="curve" smooth="yes"/>
			<point x="217" y="305"/>
			<point x="223" y="291"/>
			<point x="243" y="286" type="curve" smooth="yes"/>
			<point x="594" y="186" type="line"/>
			<point x="594" y="126" type="line"/>
			<point x="619" y="99"/>
			<point x="625" y="67"/>
		</contour>
		<contour>
			<point x="36" y="532" type="curve"/>
			<point x="36" y="655"/>
			<point x="139" y="746"/>
			<point x="317" y="746" type="curve" smooth="yes"/>
			<point x="480" y="746"/>
			<point x="581" y="666"/>
			<point x="612" y="539" type="curve"/>
			<point x="380" y="520" type="line"/>
			<point x="373" y="543"/>
			<point x="353" y="561"/>
			<point x="317" y="561" type="curve" smooth="yes"/>
			<point x="284" y="561"/>
			<point x="272" y="550"/>
			<point x="272" y="538" type="curve" smooth="yes"/>
			<point x="272" y="524"/>
			<point x="284" y="518"/>
			<point x="305" y="513" type="curve" smooth="yes"/>
			<point x="453" y="476" type="line" smooth="yes"/>
			<point x="592" y="442"/>
			<point x="660" y="379"/>
			<point x="660" y="275" type="curve" smooth="yes"/>
			<point x="660" y="172"/>
			<point x="599" y="110"/>
			<point x="484" y="80" type="curve"/>
			<point x="422" y="222" type="line"/>
			<point x="428" y="227"/>
			<point x="430" y="235"/>
			<point x="430" y="246" type="curve" smooth="yes"/>
			<point x="430" y="261"/>
			<point x="422" y="274"/>
			<point x="399" y="280" type="curve" smooth="yes"/>
			<point x="61" y="375" type="line"/>
			<point x="61" y="449" type="line"/>
			<point x="45" y="470"/>
			<point x="36" y="496"/>
		</contour>
	</outline>
</glyph>
<glyph name="copyright" format="2">
	<advance width="1020"/>
	<unicode hex="00A9"/>
	<outline>
		<contour>
			<point x="783" y="331" type="line"/>
			<point x="769" y="182"/>
			<point x="666" y="87"/>
			<point x="516" y="87" type="curve" smooth="yes"/>
			<point x="350" y="87"/>
			<point x="235" y="199"/>
			<point x="235" y="360" type="curve" smooth="yes"/>
			<point x="235" y="522"/>
			<point x="349" y="636"/>
			<point x="516" y="636" type="curve" smooth="yes"/>
			<point x="657" y="636"/>
			<point x="767" y="540"/>
			<point x="783" y="387" type="curve"/>
			<point x="567" y="374" type="line"/>
			<point x="560" y="402"/>
			<point x="542" y="413"/>
			<point x="517" y="413" type="curve" smooth="yes"/>
			<point x="487" y="413"/>
			<point x="467" y="389"/>
			<point x="467" y="361" type="curve" smooth="yes"/>
			<point x="467" y="334"/>
			<point x="487" y="309"/>
			<point x="517" y="309" type="curve" smooth="yes"/>
			<point x="541" y="309"/>
			<point x="561" y="320"/>
			<point x="569" y="353" type="curve"/>
		</contour>
		<contour>
			<point x="508" y="-144" type="curve" smooth="yes"/>
			<point x="207" y="-144"/>
			<point x="-17" y="59"/>
			<point x="-17" y="362" type="curve" smooth="yes"/>
			<point x="-17" y="666"/>
			<point x="207" y="870"/>
			<point x="508" y="870" type="curve" smooth="yes"/>
			<point x="809" y="870"/>
			<point x="1037" y="665"/>
			<point x="1037" y="362" type="curve" smooth="yes"/>
			<point x="1037" y="59"/>
			<point x="808" y="-144"/>
		</contour>
		<contour>
			<point x="508" y="23" type="curve" smooth="yes"/>
			<point x="721" y="23"/>
			<point x="861" y="148"/>
			<point x="861" y="361" type="curve" smooth="yes"/>
			<point x="862" y="574"/>
			<point x="721" y="705"/>
			<point x="508" y="704" type="curve" smooth="yes"/>
			<point x="294" y="705"/>
			<point x="158" y="574"/>
			<point x="157" y="361" type="curve" smooth="yes"/>
			<point x="157" y="148"/>
			<point x="295" y="23"/>
		</contour>
	</outline>
</glyph>
<glyph name="ordfeminine" format="2">
	<advance width="357"/>
	<unicode hex="00AA"/>
	<guideline x="679" y="990" angle="90"/>
	<outline>
		<contour>
			<point x="33" y="637" type="line"/>
			<point x="59" y="702"/>
			<point x="109" y="734"/>
			<point x="188" y="734" type="curve" smooth="yes"/>
			<point x="280" y="734"/>
			<point x="340" y="682"/>
			<point x="340" y="590" type="curve" smooth="yes"/>
			<point x="340" y="400" type="line"/>
			<point x="226" y="400" type="line"/>
			<point x="216" y="435" type="line"/>
			<point x="212" y="435" type="line"/>
			<point x="192" y="410"/>
			<point x="164" y="395"/>
			<point x="121" y="395" type="curve" smooth="yes"/>
			<point x="57" y="395"/>
			<point x="11" y="432"/>
			<point x="11" y="490" type="curve" smooth="yes"/>
			<point x="11" y="545"/>
			<point x="57" y="583"/>
			<point x="126" y="583" type="curve" smooth="yes"/>
			<point x="200" y="583" type="line"/>
			<point x="200" y="597" type="line" smooth="yes"/>
			<point x="200" y="610"/>
			<point x="191" y="618"/>
			<point x="177" y="618" type="curve" smooth="yes"/>
			<point x="164" y="618"/>
			<point x="157" y="612"/>
			<point x="151" y="600" type="curve"/>
		</contour>
		<contour>
			<point x="169" y="482" type="curve" smooth="yes"/>
			<point x="188" y="482"/>
			<point x="200" y="493"/>
			<point x="200" y="516" type="curve" smooth="yes"/>
			<point x="200" y="523" type="line"/>
			<point x="169" y="523" type="line" smooth="yes"/>
			<point x="153" y="523"/>
			<point x="145" y="516"/>
			<point x="145" y="502" type="curve" smooth="yes"/>
			<point x="145" y="490"/>
			<point x="153" y="482"/>
		</contour>
		<contour>
			<point x="15" y="232" type="line"/>
			<point x="340" y="232" type="line"/>
			<point x="340" y="377" type="line"/>
			<point x="15" y="377" type="line"/>
		</contour>
	</outline>
</glyph>
<glyph name="logicalnot" format="2">
	<advance width="620"/>
	<unicode hex="00AC"/>
	<outline>
		<contour>
			<point x="360" y="179" type="line"/>
			<point x="360" y="17" type="line"/>
			<point x="584" y="17" type="line"/>
			<point x="584" y="403" type="line"/>
			<point x="36" y="403" type="line"/>
			<point x="36" y="179" type="line"/>
		</contour>
	</outline>
</glyph>
<glyph name="registered" format="2">
	<advance width="475"/>
	<unicode hex="00AE"/>
	<outline>
		<contour>
			<point x="237" y="347" type="curve" smooth="yes"/>
			<point x="108" y="347"/>
			<point x="12" y="434"/>
			<point x="12" y="564" type="curve" smooth="yes"/>
			<point x="12" y="694"/>
			<point x="108" y="782"/>
			<point x="237" y="782" type="curve" smooth="yes"/>
			<point x="365" y="782"/>
			<point x="463" y="694"/>
			<point x="463" y="564" type="curve" smooth="yes"/>
			<point x="463" y="434"/>
			<point x="365" y="347"/>
		</contour>
		<contour>
			<point x="237" y="408" type="curve" smooth="yes"/>
			<point x="335" y="408"/>
			<point x="399" y="466"/>
			<point x="399" y="564" type="curve" smooth="yes"/>
			<point x="399" y="661"/>
			<point x="335" y="722"/>
			<point x="237" y="722" type="curve" smooth="yes"/>
			<point x="138" y="722"/>
			<point x="76" y="661"/>
			<point x="76" y="564" type="curve" smooth="yes"/>
			<point x="75" y="466"/>
			<point x="138" y="408"/>
		</contour>
		<contour>
			<point x="315" y="538" type="line"/>
			<point x="348" y="458" type="line"/>
			<point x="256" y="458" type="line"/>
			<point x="234" y="526" type="line"/>
		</contour>
		<contour>
			<point x="134" y="672" type="line"/>
			<point x="264" y="672" type="line" smooth="yes"/>
			<point x="321" y="672"/>
			<point x="355" y="639"/>
			<point x="355" y="587" type="curve" smooth="yes"/>
			<point x="355" y="536"/>
			<point x="321" y="504"/>
			<point x="264" y="504" type="curve" smooth="yes"/>
			<point x="204" y="504" type="line"/>
			<point x="204" y="566" type="line"/>
			<point x="244" y="566" type="line" smooth="yes"/>
			<point x="258" y="566"/>
			<point x="264" y="572"/>
			<point x="264" y="583" type="curve" smooth="yes"/>
			<point x="264" y="594"/>
			<point x="258" y="600"/>
			<point x="244" y="600" type="curve" smooth="yes"/>
			<point x="223" y="600" type="line"/>
			<point x="223" y="458" type="line"/>
			<point x="134" y="458" type="line"/>
		</contour>
	</outline>
</glyph>
<glyph name="degree" format="2">
	<advance width="451"/>
	<unicode hex="00B0"/>
	<outline>
		<contour>
			<point x="226" y="330" type="curve" smooth="yes"/>
			<point x="348" y="330"/>
			<point x="430" y="416"/>
			<point x="430" y="533" type="curve" smooth="yes"/>
			<point x="430" y="650"/>
			<point x="348" y="736"/>
			<point x="226" y="736" type="curve" smooth="yes"/>
			<point x="104" y="736"/>
			<point x="21" y="650"/>
			<point x="21" y="533" type="curve" smooth="yes"/>
			<point x="21" y="416"/>
			<point x="104" y="330"/>
		</contour>
		<contour>
			<point x="226" y="490" type="curve"/>
			<point x="199" y="490"/>
			<point x="183" y="508"/>
			<point x="183" y="533" type="curve" smooth="yes"/>
			<point x="183" y="558"/>
			<point x="199" y="577"/>
			<point x="226" y="577" type="curve" smooth="yes"/>
			<point x="252" y="577"/>
			<point x="269" y="558"/>
			<point x="269" y="533" type="curve" smooth="yes"/>
			<point x="269" y="508"/>
			<point x="252" y="490"/>
		</contour>
	</outline>
</glyph>
<glyph name="plusminus" format="2">
	<advance width="620"/>
	<unicode hex="00B1"/>
	<outline>
		<contour>
			<point x="36" y="340" type="line"/>
			<point x="584" y="340" type="line"/>
			<point x="584" y="564" type="line"/>
			<point x="36" y="564" type="line"/>
		</contour>
		<contour>
			<point x="422" y="249" type="line"/>
			<point x="422" y="655" type="line"/>
			<point x="198" y="655" type="line"/>
			<point x="198" y="249" type="line"/>
		</contour>
		<contour>
			<point x="36" y="0" type="line"/>
			<point x="584" y="0" type="line"/>
			<point x="584" y="214" type="line"/>
			<point x="36" y="214" type="line"/>
		</contour>
	</outline>
</glyph>
<glyph name="ordmasculine" format="2">
	<advance width="377"/>
	<unicode hex="00BA"/>
	<outline>
		<contour>
			<point x="189" y="395" type="curve" smooth="yes"/>
			<point x="87" y="395"/>
			<point x="13" y="465"/>
			<point x="13" y="565" type="curve" smooth="yes"/>
			<point x="13" y="665"/>
			<point x="87" y="735"/>
			<point x="189" y="735" type="curve" smooth="yes"/>
			<point x="291" y="735"/>
			<point x="364" y="665"/>
			<point x="364" y="565" type="curve" smooth="yes"/>
			<point x="364" y="465"/>
			<point x="291" y="395"/>
		</contour>
		<contour>
			<point x="189" y="527" type="curve" smooth="yes"/>
			<point x="207" y="527"/>
			<point x="220" y="542"/>
			<point x="220" y="565" type="curve" smooth="yes"/>
			<point x="220" y="587"/>
			<point x="207" y="602"/>
			<point x="189" y="602" type="curve" smooth="yes"/>
			<point x="171" y="602"/>
			<point x="158" y="587"/>
			<point x="158" y="565" type="curve" smooth="yes"/>
			<point x="158" y="542"/>
			<point x="171" y="527"/>
		</contour>
		<contour>
			<point x="15" y="232" type="line"/>
			<point x="361" y="232" type="line"/>
			<point x="361" y="377" type="line"/>
			<point x="15" y="377" type="line"/>
		</contour>
	</outline>
</glyph>
<glyph name="questiondown" format="2">
	<advance width="501"/>
	<unicode hex="00BF"/>
	<outline>
		<contour>
			<point x="368" y="224" type="line" smooth="yes"/>
			<point x="368" y="163"/>
			<point x="346" y="125"/>
			<point x="306" y="101" type="curve" smooth="yes"/>
			<point x="267" y="77" type="line" smooth="yes"/>
			<point x="235" y="57"/>
			<point x="229" y="46"/>
			<point x="229" y="29" type="curve" smooth="yes"/>
			<point x="229" y="12"/>
			<point x="240" y="-3"/>
			<point x="270" y="-3" type="curve" smooth="yes"/>
			<point x="295" y="-3"/>
			<point x="311" y="12"/>
			<point x="315" y="36" type="curve"/>
			<point x="488" y="17" type="line"/>
			<point x="474" y="-105"/>
			<point x="401" y="-188"/>
			<point x="246" y="-188" type="curve" smooth="yes"/>
			<point x="99" y="-188"/>
			<point x="13" y="-95"/>
			<point x="13" y="21" type="curve" smooth="yes"/>
			<point x="13" y="97"/>
			<point x="40" y="147"/>
			<point x="95" y="182" type="curve" smooth="yes"/>
			<point x="133" y="206" type="line" smooth="yes"/>
			<point x="150" y="216"/>
			<point x="156" y="225"/>
			<point x="156" y="243" type="curve" smooth="yes"/>
			<point x="156" y="290" type="line"/>
			<point x="368" y="290" type="line"/>
		</contour>
		<component base="period" xScale="-1" yScale="-1" xOffset="405" yOffset="552"/>
	</outline>
</glyph>
<glyph name="AE" format="2">
	<advance width="956"/>
	<unicode hex="00C6"/>
	<outline>
		<contour>
			<point x="139" y="64" type="line"/>
			<point x="606" y="64" type="line"/>
			<point x="522" y="188" type="line"/>
			<point x="223" y="188" type="line"/>
		</contour>
		<contour>
			<point x="934" y="0" type="line"/>
			<point x="934" y="213" type="line"/>
			<point x="700" y="213" type="line"/>
			<point x="700" y="278" type="line"/>
			<point x="848" y="278" type="line"/>
			<point x="848" y="459" type="line"/>
			<point x="700" y="459" type="line"/>
			<point x="700" y="514" type="line"/>
			<point x="934" y="514" type="line"/>
			<point x="934" y="727" type="line"/>
			<point x="306" y="727" type="line"/>
			<point x="-10" y="-1" type="line"/>
			<point x="284" y="0" type="line"/>
			<point x="418" y="366" type="line"/>
			<point x="420" y="366" type="line"/>
			<point x="420" y="0" type="line"/>
		</contour>
	</outline>
</glyph>
<glyph name="Eth" format="2">
	<advance width="771"/>
	<unicode hex="00D0"/>
	<outline>
		<contour>
			<point x="7" y="240" type="line"/>
			<point x="7" y="488" type="line"/>
			<point x="81" y="488" type="line"/>
			<point x="234" y="425" type="line"/>
			<point x="396" y="425" type="line"/>
			<point x="396" y="302" type="line"/>
			<point x="234" y="302" type="line"/>
			<point x="81" y="240" type="line"/>
		</contour>
		<component base="D" xOffset="24"/>
	</outline>
</glyph>
<glyph name="Oslash" format="2">
	<advance width="817"/>
	<unicode hex="00D8"/>
	<anchor x="407" y="727" name="top"/>
	<outline>
		<contour>
			<point x="6" y="102" type="line"/>
			<point x="82" y="184" type="line"/>
			<point x="197" y="155" type="line"/>
			<point x="602" y="580" type="line"/>
			<point x="571" y="700" type="line"/>
			<point x="650" y="784" type="line"/>
			<point x="812" y="627" type="line"/>
			<point x="734" y="543" type="line"/>
			<point x="616" y="570" type="line"/>
			<point x="219" y="154" type="line"/>
			<point x="248" y="31" type="line"/>
			<point x="168" y="-56" type="line"/>
		</contour>
		<component base="O"/>
	</outline>
</glyph>
<glyph name="Thorn" format="2">
	<advance width="709"/>
	<unicode hex="00DE"/>
	<outline>
		<contour>
			<point x="241" y="422" type="line"/>
			<point x="359" y="422" type="line" smooth="yes"/>
			<point x="403" y="422"/>
			<point x="418" y="403"/>
			<point x="418" y="369" type="curve" smooth="yes"/>
			<point x="418" y="334"/>
			<point x="403" y="313"/>
			<point x="358" y="313" type="curve" smooth="yes"/>
			<point x="241" y="313" type="line"/>
			<point x="241" y="94" type="line"/>
			<point x="400" y="94" type="line" smooth="yes"/>
			<point x="585" y="94"/>
			<point x="696" y="198"/>
			<point x="696" y="366" type="curve" smooth="yes"/>
			<point x="696" y="545"/>
			<point x="585" y="641"/>
			<point x="399" y="641" type="curve" smooth="yes"/>
			<point x="241" y="641" type="line"/>
		</contour>
		<contour>
			<point x="20" y="727" type="line"/>
			<point x="20" y="0" type="line"/>
			<point x="317" y="0" type="line"/>
			<point x="317" y="727" type="line"/>
		</contour>
	</outline>
</glyph>
<glyph name="germandbls" format="2">
	<advance width="625"/>
	<unicode hex="00DF"/>
	<outline>
		<contour>
			<point x="307" y="0" type="line"/>
			<point x="360" y="0" type="line" smooth="yes"/>
			<point x="515" y="0"/>
			<point x="612" y="89"/>
			<point x="612" y="230" type="curve" smooth="yes"/>
			<point x="612" y="332"/>
			<point x="565" y="402"/>
			<point x="464" y="427" type="curve"/>
			<point x="464" y="431" type="line"/>
			<point x="526" y="449"/>
			<point x="571" y="501"/>
			<point x="571" y="570" type="curve" smooth="yes"/>
			<point x="571" y="673"/>
			<point x="494" y="737"/>
			<point x="359" y="737" type="curve" smooth="yes"/>
			<point x="225" y="737" type="line" smooth="yes"/>
			<point x="101" y="737"/>
			<point x="20" y="664"/>
			<point x="20" y="533" type="curve" smooth="yes"/>
			<point x="20" y="0" type="line"/>
			<point x="267" y="0" type="line"/>
			<point x="267" y="526" type="line" smooth="yes"/>
			<point x="267" y="541"/>
			<point x="274" y="552"/>
			<point x="291" y="552" type="curve" smooth="yes"/>
			<point x="333" y="552" type="line" smooth="yes"/>
			<point x="352" y="552"/>
			<point x="366" y="541"/>
			<point x="366" y="521" type="curve" smooth="yes"/>
			<point x="366" y="500"/>
			<point x="353" y="489"/>
			<point x="333" y="489" type="curve" smooth="yes"/>
			<point x="307" y="489" type="line"/>
			<point x="307" y="317" type="line"/>
			<point x="340" y="317" type="line" smooth="yes"/>
			<point x="366" y="317"/>
			<point x="380" y="304"/>
			<point x="380" y="280" type="curve" smooth="yes"/>
			<point x="380" y="257"/>
			<point x="366" y="243"/>
			<point x="340" y="243" type="curve" smooth="yes"/>
			<point x="307" y="243" type="line"/>
		</contour>
	</outline>
</glyph>
<glyph name="ae" format="2">
	<advance width="931"/>
	<unicode hex="00E6"/>
	<outline>
		<contour>
			<point x="275" y="155" type="curve"/>
			<point x="252" y="155"/>
			<point x="241" y="166"/>
			<point x="241" y="183" type="curve" smooth="yes"/>
			<point x="241" y="202"/>
			<point x="251" y="214"/>
			<point x="275" y="214" type="curve" smooth="yes"/>
			<point x="321" y="214" type="line"/>
			<point x="321" y="202" type="line"/>
			<point x="321" y="171"/>
			<point x="303" y="155"/>
		</contour>
		<contour>
			<point x="674" y="185"/>
			<point x="655" y="172"/>
			<point x="627" y="172" type="curve" smooth="yes"/>
			<point x="588" y="172"/>
			<point x="562" y="192"/>
			<point x="562" y="233" type="curve" smooth="yes"/>
			<point x="562" y="306" type="line" smooth="yes"/>
			<point x="562" y="341"/>
			<point x="581" y="368"/>
			<point x="618" y="368" type="curve" smooth="yes"/>
			<point x="654" y="368"/>
			<point x="674" y="344"/>
			<point x="674" y="307" type="curve"/>
			<point x="711" y="322" type="line"/>
			<point x="506" y="322" type="line"/>
			<point x="506" y="221" type="line"/>
			<point x="917" y="221" type="line"/>
			<point x="939" y="427"/>
			<point x="822" y="564"/>
			<point x="644" y="564" type="curve" smooth="yes"/>
			<point x="559" y="564"/>
			<point x="499" y="541"/>
			<point x="456" y="506" type="curve"/>
			<point x="453" y="506" type="line"/>
			<point x="412" y="542"/>
			<point x="354" y="566"/>
			<point x="272" y="566" type="curve" smooth="yes"/>
			<point x="163" y="566"/>
			<point x="71" y="503"/>
			<point x="27" y="399" type="curve"/>
			<point x="224" y="332" type="line"/>
			<point x="235" y="353"/>
			<point x="250" y="368"/>
			<point x="275" y="368" type="curve" smooth="yes"/>
			<point x="304" y="368"/>
			<point x="321" y="354"/>
			<point x="321" y="324" type="curve"/>
			<point x="321" y="318" type="line"/>
			<point x="204" y="318" type="line" smooth="yes"/>
			<point x="87" y="318"/>
			<point x="10" y="250"/>
			<point x="10" y="152" type="curve" smooth="yes"/>
			<point x="10" y="47"/>
			<point x="93" y="-15"/>
			<point x="225" y="-15" type="curve" smooth="yes"/>
			<point x="314" y="-15"/>
			<point x="380" y="12"/>
			<point x="424" y="57" type="curve"/>
			<point x="427" y="57" type="line"/>
			<point x="476" y="12"/>
			<point x="554" y="-15"/>
			<point x="641" y="-15" type="curve"/>
			<point x="758" y="-15"/>
			<point x="855" y="44"/>
			<point x="897" y="136" type="curve"/>
			<point x="685" y="208" type="line"/>
		</contour>
	</outline>
</glyph>
<glyph name="eth" format="2">
	<advance width="647"/>
	<unicode hex="00F0"/>
	<outline>
		<contour>
			<point x="75" y="516" type="line"/>
			<point x="48" y="612" type="line"/>
			<point x="214" y="660" type="line"/>
			<point x="214" y="672" type="line"/>
			<point x="384" y="700" type="line"/>
			<point x="552" y="747" type="line"/>
			<point x="580" y="651" type="line"/>
			<point x="516" y="634" type="line"/>
			<point x="516" y="619" type="line"/>
			<point x="386" y="604" type="line"/>
		</contour>
		<contour>
			<point x="269" y="261" type="curve" smooth="yes"/>
			<point x="269" y="222"/>
			<point x="291" y="198"/>
			<point x="324" y="198" type="curve" smooth="yes"/>
			<point x="357" y="198"/>
			<point x="378" y="222"/>
			<point x="378" y="261" type="curve" smooth="yes"/>
			<point x="378" y="299"/>
			<point x="357" y="324"/>
			<point x="324" y="324" type="curve" smooth="yes"/>
			<point x="291" y="324"/>
			<point x="269" y="299"/>
		</contour>
		<contour>
			<point x="634" y="299" type="curve" smooth="yes"/>
			<point x="634" y="94"/>
			<point x="511" y="-16"/>
			<point x="320" y="-16" type="curve" smooth="yes"/>
			<point x="141" y="-16"/>
			<point x="13" y="88"/>
			<point x="13" y="252" type="curve" smooth="yes"/>
			<point x="13" y="396"/>
			<point x="109" y="491"/>
			<point x="240" y="491" type="curve" smooth="yes"/>
			<point x="295" y="491"/>
			<point x="332" y="478"/>
			<point x="361" y="451" type="curve"/>
			<point x="364" y="452" type="line"/>
			<point x="331" y="564"/>
			<point x="236" y="677"/>
			<point x="98" y="724" type="curve"/>
			<point x="98" y="727" type="line"/>
			<point x="326" y="759" type="line"/>
			<point x="526" y="693"/>
			<point x="634" y="495"/>
		</contour>
	</outline>
</glyph>
<glyph name="divide" format="2">
	<advance width="620"/>
	<unicode hex="00F7"/>
	<outline>
		<contour>
			<point x="34" y="235" type="line"/>
			<point x="587" y="235" type="line"/>
			<point x="587" y="459" type="line"/>
			<point x="34" y="459" type="line"/>
		</contour>
		<contour>
			<point x="193" y="497" type="line"/>
			<point x="193" y="679" type="line"/>
			<point x="428" y="679" type="line"/>
			<point x="428" y="497" type="line"/>
		</contour>
		<contour>
			<point x="194" y="16" type="line"/>
			<point x="194" y="197" type="line"/>
			<point x="429" y="197" type="line"/>
			<point x="429" y="16" type="line"/>
		</contour>
	</outline>
</glyph>
<glyph name="oslash" format="2">
	<advance width="633"/>
	<unicode hex="00F8"/>
	<anchor x="323" y="553" name="top"/>
	<outline>
		<contour>
			<point x="25" y="77" type="line"/>
			<point x="101" y="159" type="line"/>
			<point x="192" y="155" type="line"/>
			<point x="426" y="409" type="line"/>
			<point x="420" y="504" type="line"/>
			<point x="499" y="589" type="line"/>
			<point x="611" y="481" type="line"/>
			<point x="533" y="397" type="line"/>
			<point x="440" y="399" type="line"/>
			<point x="214" y="154" type="line"/>
			<point x="218" y="56" type="line"/>
			<point x="137" y="-31" type="line"/>
		</contour>
		<component base="o"/>
	</outline>
</glyph>
<glyph name="thorn" format="2">
	<advance width="656"/>
	<unicode hex="00FE"/>
	<outline>
		<contour>
			<point x="544" y="-6"/>
			<point x="643" y="97"/>
			<point x="643" y="276" type="curve" smooth="yes"/>
			<point x="643" y="454"/>
			<point x="544" y="554"/>
			<point x="417" y="557" type="curve" smooth="yes"/>
			<point x="352" y="558"/>
			<point x="311" y="539"/>
			<point x="279" y="503" type="curve"/>
			<point x="275" y="503" type="line"/>
			<point x="275" y="552" type="line"/>
			<point x="275" y="727" type="line"/>
			<point x="20" y="727" type="line"/>
			<point x="20" y="-178" type="line"/>
			<point x="275" y="-178" type="line"/>
			<point x="275" y="0" type="line"/>
			<point x="275" y="49" type="line"/>
			<point x="279" y="49" type="line"/>
			<point x="311" y="14"/>
			<point x="352" y="-6"/>
			<point x="417" y="-6" type="curve" smooth="yes"/>
		</contour>
		<contour>
			<point x="364" y="346"/>
			<point x="387" y="319"/>
			<point x="387" y="276" type="curve" smooth="yes"/>
			<point x="387" y="233"/>
			<point x="364" y="206"/>
			<point x="332" y="206" type="curve" smooth="yes"/>
			<point x="301" y="206"/>
			<point x="278" y="233"/>
			<point x="278" y="276" type="curve" smooth="yes"/>
			<point x="278" y="319"/>
			<point x="301" y="346"/>
			<point x="332" y="346" type="curve" smooth="yes"/>
		</contour>
	</outline>
</glyph>
<glyph name="aogonek" format="2">
	<advance width="594"/>
	<unicode hex="0105"/>
	<outline>
		<contour>
			<point x="348" y="20" type="line"/>
			<point x="348" y="-1" type="line"/>
			<point x="313" y="-17" type="line" smooth="yes"/>
			<point x="275" y="-33"/>
			<point x="259" y="-60"/>
			<point x="259" y="-97" type="curve" smooth="yes"/>
			<point x="259" y="-151"/>
			<point x="296" y="-178"/>
			<point x="364" y="-178" type="curve" smooth="yes"/>
			<point x="576" y="-178" type="line"/>
			<point x="576" y="-38" type="line"/>
			<point x="510" y="-38" type="line" smooth="yes"/>
			<point x="507" y="-38"/>
			<point x="505" y="-37"/>
			<point x="505" y="-34" type="curve" smooth="yes"/>
			<point x="505" y="-31"/>
			<point x="506" y="-30"/>
			<point x="511" y="-28" type="curve" smooth="yes"/>
			<point x="576" y="0" type="line"/>
			<point x="542" y="46" type="line"/>
		</contour>
		<component base="a"/>
	</outline>
</glyph>
<glyph name="dcaron" format="2">
	<advance width="810"/>
	<unicode hex="010F"/>
	<outline>
		<contour>
			<point x="771" y="427" type="line"/>
			<point x="840" y="727" type="line"/>
			<point x="673" y="727" type="line"/>
			<point x="673" y="427" type="line"/>
		</contour>
		<component base="d"/>
	</outline>
</glyph>
<glyph name="dcroat" format="2">
	<advance width="656"/>
	<unicode hex="0111"/>
	<outline>
		<contour>
			<point x="282" y="591" type="line"/>
			<point x="656" y="591" type="line"/>
			<point x="656" y="685" type="line"/>
			<point x="282" y="685" type="line"/>
		</contour>
		<component base="d"/>
	</outline>
</glyph>
<glyph name="eogonek" format="2">
	<advance width="629"/>
	<unicode hex="0119"/>
	<outline>
		<contour>
			<point x="541" y="-12"/>
			<point x="571" y="86"/>
			<point x="586" y="134" type="curve"/>
			<point x="479" y="111" type="line"/>
			<point x="428" y="56" type="line"/>
			<point x="459" y="6" type="line"/>
			<point x="452" y="1"/>
			<point x="441" y="-7"/>
			<point x="421" y="-19" type="curve" smooth="yes"/>
			<point x="348" y="-62"/>
			<point x="357" y="-178"/>
			<point x="461" y="-178" type="curve" smooth="yes"/>
			<point x="603" y="-178" type="line"/>
			<point x="603" y="-36" type="line"/>
			<point x="544" y="-36" type="line" smooth="yes"/>
			<point x="538" y="-36"/>
			<point x="535" y="-32"/>
			<point x="537" y="-26" type="curve" smooth="yes"/>
		</contour>
		<component base="e"/>
	</outline>
</glyph>
<glyph name="idotless" format="2">
	<advance width="297"/>
	<unicode hex="0131"/>
	<anchor x="278" y="-1" name="ogonek"/>
	<anchor x="149" y="0" name="bottom"/>
	<anchor x="149" y="552" name="top"/>
	<outline>
		<contour>
			<point x="277" y="0" type="line"/>
			<point x="277" y="552" type="line"/>
			<point x="20" y="552" type="line"/>
			<point x="20" y="0" type="line"/>
		</contour>
	</outline>
</glyph>
<glyph name="IJ" format="2">
	<advance width="594"/>
	<unicode hex="0132"/>
	<outline>
		<contour>
			<point x="215" y="727" type="line"/>
			<point x="215" y="302" type="line"/>
			<point x="12" y="302" type="line"/>
			<point x="12" y="727" type="line"/>
		</contour>
		<contour>
			<point x="579" y="727" type="line"/>
			<point x="579" y="245" type="line" smooth="yes"/>
			<point x="579" y="70"/>
			<point x="446" y="-20"/>
			<point x="286" y="-20" type="curve" smooth="yes"/>
			<point x="136" y="-20"/>
			<point x="31" y="47"/>
			<point x="15" y="215" type="curve"/>
			<point x="205" y="276" type="line"/>
			<point x="205" y="247"/>
			<point x="221" y="235"/>
			<point x="241" y="235" type="curve" smooth="yes"/>
			<point x="268" y="235"/>
			<point x="282" y="250"/>
			<point x="282" y="277" type="curve" smooth="yes"/>
			<point x="282" y="727" type="line"/>
		</contour>
	</outline>
</glyph>
<glyph name="Lcaron" format="2">
	<advance width="540"/>
	<unicode hex="013D"/>
	<outline>
		<contour>
			<point x="471" y="427" type="line"/>
			<point x="540" y="727" type="line"/>
			<point x="353" y="747" type="line"/>
			<point x="353" y="427" type="line"/>
		</contour>
		<component base="L"/>
	</outline>
</glyph>
<glyph name="lcaron" format="2">
	<advance width="450"/>
	<unicode hex="013E"/>
	<outline>
		<contour>
			<point x="411" y="427" type="line"/>
			<point x="480" y="727" type="line"/>
			<point x="313" y="727" type="line"/>
			<point x="313" y="427" type="line"/>
		</contour>
		<component base="l"/>
	</outline>
</glyph>
<glyph name="Lslash" format="2">
	<advance width="548"/>
	<unicode hex="0141"/>
	<guideline x="375" y="584" angle="27.1419"/>
	<note>
		just draw this
	</note>
	<outline>
		<contour>
			<point x="3" y="152" type="line"/>
			<point x="442" y="379" type="line"/>
			<point x="442" y="609" type="line"/>
			<point x="3" y="383" type="line"/>
		</contour>
		<component base="L" xOffset="8"/>
	</outline>
</glyph>
<glyph name="lslash" format="2">
	<advance width="311"/>
	<unicode hex="0142"/>
	<note>
		just draw this
	</note>
	<outline>
		<contour>
			<point x="8" y="169" type="line"/>
			<point x="304" y="322" type="line"/>
			<point x="304" y="552" type="line"/>
			<point x="8" y="400" type="line"/>
		</contour>
		<component base="l" xOffset="5"/>
	</outline>
</glyph>
<glyph name="OE" format="2">
	<advance width="1031"/>
	<unicode hex="0152"/>
	<outline>
		<contour>
			<point x="402" y="272" type="curve" smooth="yes"/>
			<point x="346" y="272"/>
			<point x="312" y="308"/>
			<point x="312" y="363" type="curve" smooth="yes"/>
			<point x="312" y="418"/>
			<point x="346" y="455"/>
			<point x="402" y="455" type="curve" smooth="yes"/>
			<point x="458" y="455"/>
			<point x="495" y="418"/>
			<point x="495" y="363" type="curve" smooth="yes"/>
			<point x="495" y="308"/>
			<point x="459" y="272"/>
		</contour>
		<contour>
			<point x="317" y="-15" type="curve" smooth="yes"/>
			<point x="387" y="-15"/>
			<point x="448" y="10"/>
			<point x="490" y="55" type="curve"/>
			<point x="551" y="55" type="line"/>
			<point x="551" y="672" type="line"/>
			<point x="490" y="672" type="line"/>
			<point x="447" y="717"/>
			<point x="387" y="742"/>
			<point x="317" y="742" type="curve" smooth="yes"/>
			<point x="139" y="742"/>
			<point x="13" y="603"/>
			<point x="12" y="363" type="curve" smooth="yes"/>
			<point x="12" y="122"/>
			<point x="139" y="-15"/>
		</contour>
		<component base="E" xOffset="475" yOffset="1"/>
	</outline>
</glyph>
<glyph name="oe" format="2">
	<advance width="975"/>
	<unicode hex="0153"/>
	<outline>
		<contour>
			<point x="315" y="211" type="curve" smooth="yes"/>
			<point x="286" y="211"/>
			<point x="262" y="233"/>
			<point x="262" y="276" type="curve" smooth="yes"/>
			<point x="262" y="318"/>
			<point x="286" y="341"/>
			<point x="315" y="341" type="curve" smooth="yes"/>
			<point x="344" y="341"/>
			<point x="368" y="318"/>
			<point x="368" y="276" type="curve" smooth="yes"/>
			<point x="368" y="233"/>
			<point x="344" y="211"/>
		</contour>
		<contour>
			<point x="718" y="187"/>
			<point x="699" y="174"/>
			<point x="671" y="174" type="curve" smooth="yes"/>
			<point x="632" y="174"/>
			<point x="606" y="194"/>
			<point x="606" y="235" type="curve" smooth="yes"/>
			<point x="606" y="308" type="line" smooth="yes"/>
			<point x="606" y="343"/>
			<point x="625" y="370"/>
			<point x="662" y="370" type="curve" smooth="yes"/>
			<point x="698" y="370"/>
			<point x="718" y="346"/>
			<point x="718" y="309" type="curve"/>
			<point x="755" y="324" type="line"/>
			<point x="550" y="324" type="line"/>
			<point x="550" y="223" type="line"/>
			<point x="961" y="223" type="line"/>
			<point x="983" y="429"/>
			<point x="866" y="566"/>
			<point x="688" y="566" type="curve" smooth="yes"/>
			<point x="595" y="566"/>
			<point x="545" y="543"/>
			<point x="500" y="504" type="curve"/>
			<point x="497" y="504" type="line"/>
			<point x="452" y="547"/>
			<point x="387" y="566"/>
			<point x="315" y="566" type="curve" smooth="yes"/>
			<point x="138" y="566"/>
			<point x="11" y="448"/>
			<point x="11" y="278" type="curve" smooth="yes"/>
			<point x="11" y="107"/>
			<point x="138" y="-12"/>
			<point x="315" y="-12" type="curve" smooth="yes"/>
			<point x="384" y="-12"/>
			<point x="451" y="8"/>
			<point x="497" y="47" type="curve"/>
			<point x="500" y="47" type="line"/>
			<point x="541" y="9"/>
			<point x="610" y="-13"/>
			<point x="685" y="-13" type="curve"/>
			<point x="802" y="-13"/>
			<point x="899" y="46"/>
			<point x="941" y="138" type="curve"/>
			<point x="729" y="210" type="line"/>
		</contour>
	</outline>
</glyph>
<glyph name="tcaron" format="2">
	<advance width="398"/>
	<unicode hex="0165"/>
	<outline>
		<contour>
			<point x="445" y="591" type="line"/>
			<point x="514" y="777" type="line"/>
			<point x="347" y="802" type="line"/>
			<point x="347" y="591" type="line"/>
		</contour>
		<component base="t"/>
	</outline>
</glyph>
<glyph name="florin" format="2">
	<advance width="443"/>
	<unicode hex="0192"/>
	<outline>
		<contour>
			<point x="7" y="507" type="line"/>
			<point x="7" y="289" type="line"/>
			<point x="426" y="289" type="line"/>
			<point x="426" y="507" type="line"/>
		</contour>
		<contour>
			<point x="293" y="142" type="curve" smooth="yes"/>
			<point x="339" y="521" type="line" smooth="yes"/>
			<point x="341" y="542"/>
			<point x="352" y="552"/>
			<point x="370" y="552" type="curve" smooth="yes"/>
			<point x="435" y="552" type="line"/>
			<point x="435" y="727" type="line"/>
			<point x="280" y="727" type="line" smooth="yes"/>
			<point x="182" y="727"/>
			<point x="120" y="675"/>
			<point x="108" y="582" type="curve" smooth="yes"/>
			<point x="62" y="201" type="line" smooth="yes"/>
			<point x="59" y="180"/>
			<point x="48" y="170"/>
			<point x="30" y="170" type="curve" smooth="yes"/>
			<point x="-38" y="170" type="line"/>
			<point x="-38" y="0" type="line"/>
			<point x="121" y="0" type="line" smooth="yes"/>
			<point x="220" y="0"/>
			<point x="282" y="51"/>
		</contour>
	</outline>
</glyph>
<glyph name="Ohorn" format="2">
	<advance width="814"/>
	<unicode hex="01A0"/>
	<anchor x="406" y="727" name="top"/>
	<outline>
		<contour>
			<point x="406" y="-20" type="curve" smooth="yes"/>
			<point x="625" y="-20"/>
			<point x="807" y="125"/>
			<point x="807" y="363" type="curve" smooth="yes"/>
			<point x="807" y="487"/>
			<point x="757" y="586"/>
			<point x="679" y="653" type="curve"/>
			<point x="679" y="656" type="line"/>
			<point x="734" y="667"/>
			<point x="755" y="709"/>
			<point x="755" y="758" type="curve" smooth="yes"/>
			<point x="755" y="803" type="line"/>
			<point x="551" y="803" type="line"/>
			<point x="551" y="755" type="line" smooth="yes"/>
			<point x="551" y="742"/>
			<point x="544" y="735"/>
			<point x="533" y="735" type="curve" smooth="yes"/>
			<point x="513" y="735"/>
			<point x="464" y="747"/>
			<point x="406" y="747" type="curve" smooth="yes"/>
			<point x="188" y="747"/>
			<point x="10" y="601"/>
			<point x="10" y="363" type="curve" smooth="yes"/>
			<point x="10" y="125"/>
			<point x="188" y="-20"/>
		</contour>
		<contour>
			<point x="407" y="271" type="curve" smooth="yes"/>
			<point x="350" y="271"/>
			<point x="315" y="307"/>
			<point x="315" y="363" type="curve" smooth="yes"/>
			<point x="315" y="419"/>
			<point x="350" y="456"/>
			<point x="407" y="456" type="curve" smooth="yes"/>
			<point x="463" y="456"/>
			<point x="501" y="419"/>
			<point x="501" y="363" type="curve" smooth="yes"/>
			<point x="501" y="307"/>
			<point x="464" y="271"/>
		</contour>
	</outline>
</glyph>
<glyph name="ohorn" format="2">
	<advance width="628"/>
	<unicode hex="01A1"/>
	<anchor x="572" y="0" name="ogonek"/>
	<anchor x="318" y="0" name="bottom"/>
	<anchor x="307" y="552" name="top"/>
	<outline>
		<contour>
			<point x="14" y="109"/>
			<point x="141" y="-19"/>
			<point x="318" y="-19" type="curve" smooth="yes"/>
			<point x="495" y="-19"/>
			<point x="621" y="109"/>
			<point x="621" y="276" type="curve" smooth="yes"/>
			<point x="621" y="357"/>
			<point x="591" y="428"/>
			<point x="541" y="481" type="curve"/>
			<point x="541" y="486" type="line"/>
			<point x="595" y="496"/>
			<point x="616" y="528"/>
			<point x="616" y="582" type="curve" smooth="yes"/>
			<point x="616" y="613" type="line"/>
			<point x="427" y="613" type="line"/>
			<point x="427" y="580" type="line" smooth="yes"/>
			<point x="427" y="567"/>
			<point x="420" y="560"/>
			<point x="409" y="560" type="curve" smooth="yes"/>
			<point x="395" y="560"/>
			<point x="363" y="571"/>
			<point x="317" y="571" type="curve" smooth="yes"/>
			<point x="141" y="571"/>
			<point x="14" y="443"/>
			<point x="14" y="276" type="curve" smooth="yes"/>
		</contour>
		<contour>
			<point x="318" y="220" type="curve" smooth="yes"/>
			<point x="286" y="220"/>
			<point x="263" y="242"/>
			<point x="263" y="276" type="curve" smooth="yes"/>
			<point x="263" y="309"/>
			<point x="286" y="331"/>
			<point x="318" y="331" type="curve" smooth="yes"/>
			<point x="349" y="331"/>
			<point x="372" y="309"/>
			<point x="372" y="276" type="curve" smooth="yes"/>
			<point x="372" y="242"/>
			<point x="349" y="220"/>
		</contour>
	</outline>
</glyph>
<glyph name="Uhorn" format="2">
	<advance width="695"/>
	<unicode hex="01AF"/>
	<anchor x="349" y="727" name="top"/>
	<outline>
		<contour>
			<point x="491" y="803" type="line"/>
			<point x="491" y="741" type="line" smooth="yes"/>
			<point x="491" y="732"/>
			<point x="486" y="727"/>
			<point x="477" y="727" type="curve" smooth="yes"/>
			<point x="388" y="727" type="line"/>
			<point x="449" y="627" type="line"/>
			<point x="627" y="627" type="line" smooth="yes"/>
			<point x="681" y="627"/>
			<point x="703" y="660"/>
			<point x="703" y="709" type="curve" smooth="yes"/>
			<point x="703" y="803" type="line"/>
		</contour>
		<component base="U"/>
	</outline>
</glyph>
<glyph name="uhorn" format="2">
	<advance width="614"/>
	<unicode hex="01B0"/>
	<anchor x="305" y="552" name="top"/>
	<outline>
		<contour>
			<point x="425" y="613" type="line"/>
			<point x="425" y="566" type="line" smooth="yes"/>
			<point x="425" y="557"/>
			<point x="420" y="552"/>
			<point x="411" y="552" type="curve" smooth="yes"/>
			<point x="337" y="552" type="line"/>
			<point x="383" y="478" type="line"/>
			<point x="543" y="478" type="line" smooth="yes"/>
			<point x="598" y="478"/>
			<point x="619" y="508"/>
			<point x="619" y="552" type="curve" smooth="yes"/>
			<point x="619" y="613" type="line"/>
		</contour>
		<component base="u"/>
	</outline>
</glyph>
<glyph name="acutecomb" format="2">
	<advance width="0"/>
	<unicode hex="0301"/>
	<anchor x="0" y="552" name="_top"/>
	<outline>
		<contour>
			<point x="99" y="592" type="line"/>
			<point x="183" y="727" type="line"/>
			<point x="-43" y="773" type="line"/>
			<point x="-102" y="592" type="line"/>
		</contour>
	</outline>
</glyph>
<glyph name="circumflexcomb" format="2">
	<advance width="0"/>
	<unicode hex="0302"/>
	<anchor x="134" y="591" name="side"/>
	<anchor x="0" y="707" name="top"/>
	<anchor x="0" y="552" name="_top"/>
	<outline>
		<contour>
			<point x="-35" y="592" type="line"/>
			<point x="-1" y="621" type="line"/>
			<point x="1" y="621" type="line"/>
			<point x="35" y="592" type="line"/>
			<point x="216" y="592" type="line"/>
			<point x="61" y="747" type="line"/>
			<point x="-61" y="747" type="line"/>
			<point x="-216" y="592" type="line"/>
		</contour>
	</outline>
</glyph>
<glyph name="tildecomb" format="2">
	<advance width="0"/>
	<unicode hex="0303"/>
	<anchor x="0" y="552" name="_top"/>
	<outline>
		<contour>
			<point x="-84" y="574" type="line"/>
			<point x="-79" y="600"/>
			<point x="-69" y="609"/>
			<point x="-51" y="609" type="curve" smooth="yes"/>
			<point x="-43" y="609"/>
			<point x="-35" y="608"/>
			<point x="-30" y="605" type="curve" smooth="yes"/>
			<point x="3" y="589" type="line" smooth="yes"/>
			<point x="18" y="581"/>
			<point x="39" y="577"/>
			<point x="63" y="577" type="curve" smooth="yes"/>
			<point x="135" y="577"/>
			<point x="209" y="625"/>
			<point x="227" y="756" type="curve"/>
			<point x="84" y="790" type="line"/>
			<point x="80" y="766"/>
			<point x="69" y="758"/>
			<point x="51" y="758" type="curve" smooth="yes"/>
			<point x="43" y="758"/>
			<point x="35" y="759"/>
			<point x="30" y="762" type="curve" smooth="yes"/>
			<point x="-3" y="776" type="line" smooth="yes"/>
			<point x="-17" y="782"/>
			<point x="-39" y="787"/>
			<point x="-63" y="787" type="curve" smooth="yes"/>
			<point x="-135" y="787"/>
			<point x="-209" y="741"/>
			<point x="-227" y="609" type="curve"/>
		</contour>
	</outline>
</glyph>
<glyph name="macroncomb" format="2">
	<advance width="0"/>
	<unicode hex="0304"/>
	<anchor x="0" y="552" name="_top"/>
	<outline>
		<contour>
			<point x="-159" y="592" type="line"/>
			<point x="159" y="592" type="line"/>
			<point x="159" y="737" type="line"/>
			<point x="-159" y="737" type="line"/>
		</contour>
	</outline>
</glyph>
<glyph name="brevecomb" format="2">
	<advance width="0"/>
	<unicode hex="0306"/>
	<anchor x="0" y="719" name="top"/>
	<anchor x="0" y="552" name="_top"/>
	<outline>
		<contour>
			<point x="0" y="587" type="curve" smooth="yes"/>
			<point x="100" y="587"/>
			<point x="164" y="640"/>
			<point x="173" y="743" type="curve"/>
			<point x="42" y="760" type="line"/>
			<point x="39" y="731"/>
			<point x="22" y="721"/>
			<point x="0" y="721" type="curve" smooth="yes"/>
			<point x="-22" y="721"/>
			<point x="-39" y="731"/>
			<point x="-42" y="760" type="curve"/>
			<point x="-173" y="743" type="line"/>
			<point x="-164" y="640"/>
			<point x="-100" y="587"/>
		</contour>
	</outline>
</glyph>
<glyph name="dieresiscomb" format="2">
	<advance width="0"/>
	<unicode hex="0308"/>
	<anchor x="0" y="552" name="_top"/>
	<outline>
		<contour>
			<point x="-191" y="592" type="line"/>
			<point x="-191" y="737" type="line"/>
			<point x="-18" y="737" type="line"/>
			<point x="-18" y="592" type="line"/>
		</contour>
		<contour>
			<point x="18" y="592" type="line"/>
			<point x="18" y="737" type="line"/>
			<point x="191" y="737" type="line"/>
			<point x="191" y="592" type="line"/>
		</contour>
	</outline>
</glyph>
<glyph name="hookcomb" format="2">
	<advance width="0"/>
	<unicode hex="0309"/>
	<guideline x="-38" y="1288" angle="220.5526"/>
	<anchor x="0" y="552" name="_top"/>
	<outline>
		<contour>
			<point x="89" y="592" type="line"/>
			<point x="102" y="603" type="line" smooth="yes"/>
			<point x="143" y="639"/>
			<point x="157" y="667"/>
			<point x="157" y="700" type="curve" smooth="yes"/>
			<point x="157" y="757"/>
			<point x="120" y="795"/>
			<point x="54" y="795" type="curve" smooth="yes"/>
			<point x="-107" y="795" type="line"/>
			<point x="-107" y="656" type="line"/>
			<point x="-50" y="656" type="line" smooth="yes"/>
			<point x="-41" y="656"/>
			<point x="-37" y="652"/>
			<point x="-37" y="645" type="curve" smooth="yes"/>
			<point x="-37" y="640"/>
			<point x="-39" y="636"/>
			<point x="-46" y="631" type="curve" smooth="yes"/>
			<point x="-88" y="595" type="line"/>
			<point x="-88" y="592" type="line"/>
		</contour>
	</outline>
</glyph>
<glyph name="ringcomb" format="2">
	<advance width="0"/>
	<unicode hex="030A"/>
	<anchor x="0" y="740" name="_ring"/>
	<anchor x="0" y="552" name="_top"/>
	<outline>
		<contour>
			<point x="0" y="584" type="curve" smooth="yes"/>
			<point x="117" y="584"/>
			<point x="196" y="665"/>
			<point x="196" y="778" type="curve" smooth="yes"/>
			<point x="196" y="890"/>
			<point x="117" y="972"/>
			<point x="0" y="972" type="curve" smooth="yes"/>
			<point x="-116" y="972"/>
			<point x="-196" y="890"/>
			<point x="-196" y="778" type="curve" smooth="yes"/>
			<point x="-196" y="665"/>
			<point x="-116" y="584"/>
		</contour>
		<contour>
			<point x="0" y="740" type="curve" smooth="yes"/>
			<point x="-23" y="740"/>
			<point x="-38" y="756"/>
			<point x="-38" y="778" type="curve" smooth="yes"/>
			<point x="-38" y="799"/>
			<point x="-23" y="816"/>
			<point x="0" y="816" type="curve" smooth="yes"/>
			<point x="23" y="816"/>
			<point x="38" y="799"/>
			<point x="38" y="778" type="curve" smooth="yes"/>
			<point x="38" y="756"/>
			<point x="23" y="740"/>
		</contour>
	</outline>
</glyph>
<glyph name="hungarumlautcmb" format="2">
	<advance width="0"/>
	<unicode hex="030B"/>
	<anchor x="0" y="552" name="_top"/>
	<outline>
		<contour>
			<point x="180" y="592" type="line"/>
			<point x="294" y="727" type="line"/>
			<point x="104" y="768" type="line"/>
			<point x="19" y="592" type="line"/>
		</contour>
		<contour>
			<point x="-20" y="592" type="line"/>
			<point x="45" y="727" type="line"/>
			<point x="-141" y="773" type="line"/>
			<point x="-180" y="592" type="line"/>
		</contour>
	</outline>
</glyph>
<glyph name="horncmb" format="2">
	<advance width="0"/>
	<unicode hex="031B"/>
	<anchor x="0" y="552" name="_horn"/>
	<outline>
		<contour>
			<point x="110" y="613" type="line"/>
			<point x="299" y="613" type="line"/>
			<point x="299" y="570" type="line" smooth="yes"/>
			<point x="299" y="511"/>
			<point x="268" y="466"/>
			<point x="189" y="466" type="curve"/>
			<point x="0" y="466" type="line"/>
			<point x="0" y="552" type="line"/>
			<point x="92" y="552" type="line"/>
			<point x="103" y="552"/>
			<point x="110" y="559"/>
			<point x="110" y="572" type="curve" smooth="yes"/>
		</contour>
	</outline>
</glyph>
<glyph name="cedillacomb" format="2">
	<advance width="0"/>
	<unicode hex="0327"/>
	<anchor x="0" y="0" name="_bottom"/>
	<outline>
		<contour>
			<point x="76" y="38" type="line"/>
			<point x="-75" y="38" type="line"/>
			<point x="-75" y="-52" type="line"/>
			<point x="-35" y="-52" type="line" smooth="yes"/>
			<point x="-15" y="-52"/>
			<point x="-6" y="-61"/>
			<point x="-6" y="-77" type="curve" smooth="yes"/>
			<point x="-6" y="-92"/>
			<point x="-15" y="-103"/>
			<point x="-36" y="-103" type="curve" smooth="yes"/>
			<point x="-189" y="-103" type="line"/>
			<point x="-189" y="-198" type="line"/>
			<point x="133" y="-198" type="line" smooth="yes"/>
			<point x="203" y="-198"/>
			<point x="231" y="-162"/>
			<point x="231" y="-113" type="curve" smooth="yes"/>
			<point x="231" y="-64"/>
			<point x="203" y="-34"/>
			<point x="134" y="-34" type="curve" smooth="yes"/>
			<point x="76" y="-34" type="line"/>
		</contour>
	</outline>
</glyph>
<glyph name="ogonekcmb" format="2">
	<advance width="0"/>
	<unicode hex="0328"/>
	<anchor x="132" y="0" name="_ogonek"/>
	<outline>
		<contour>
			<point x="-26" y="0" type="line"/>
			<point x="-26" y="-6" type="line"/>
			<point x="-54" y="-17" type="line" smooth="yes"/>
			<point x="-99" y="-34"/>
			<point x="-119" y="-60"/>
			<point x="-119" y="-97" type="curve" smooth="yes"/>
			<point x="-119" y="-151"/>
			<point x="-82" y="-178"/>
			<point x="-14" y="-178" type="curve" smooth="yes"/>
			<point x="132" y="-178" type="line"/>
			<point x="132" y="-36" type="line"/>
			<point x="67" y="-36" type="line" smooth="yes"/>
			<point x="63" y="-36"/>
			<point x="61" y="-34"/>
			<point x="61" y="-31" type="curve" smooth="yes"/>
			<point x="61" y="-28"/>
			<point x="62" y="-27"/>
			<point x="68" y="-25" type="curve" smooth="yes"/>
			<point x="132" y="0" type="line"/>
			<point x="98" y="46" type="line"/>
		</contour>
	</outline>
</glyph>
<glyph name="Delta" format="2">
	<advance width="620"/>
	<unicode hex="0394"/>
	<guideline x="198" y="885" angle="69.4771"/>
	<guideline x="1042" y="885" angle="110.5229"/>
	<outline>
		<contour>
			<point x="307" y="369" type="line"/>
			<point x="309" y="369" type="line"/>
			<point x="360" y="220" type="line"/>
			<point x="360" y="219" type="line"/>
			<point x="255" y="219" type="line"/>
			<point x="255" y="220" type="line"/>
		</contour>
		<contour>
			<point x="206" y="727" type="line"/>
			<point x="15" y="181" type="line"/>
			<point x="15" y="0" type="line"/>
			<point x="606" y="0" type="line"/>
			<point x="606" y="181" type="line"/>
			<point x="415" y="727" type="line"/>
		</contour>
	</outline>
</glyph>
<glyph name="Omega" format="2">
	<advance width="761"/>
	<unicode hex="03A9"/>
	<outline>
		<contour>
			<point x="378" y="747" type="curve" smooth="yes"/>
			<point x="586" y="747"/>
			<point x="744" y="631"/>
			<point x="744" y="423" type="curve"/>
			<point x="744" y="248"/>
			<point x="595" y="180"/>
			<point x="595" y="180" type="curve"/>
			<point x="595" y="174" type="line"/>
			<point x="738" y="174" type="line"/>
			<point x="738" y="0" type="line"/>
			<point x="400" y="0" type="line"/>
			<point x="400" y="331" type="line"/>
			<point x="445" y="344"/>
			<point x="464" y="370"/>
			<point x="464" y="413" type="curve" smooth="yes"/>
			<point x="464" y="462"/>
			<point x="431" y="496"/>
			<point x="381" y="496" type="curve" smooth="yes"/>
			<point x="332" y="496"/>
			<point x="301" y="462"/>
			<point x="301" y="413" type="curve" smooth="yes"/>
			<point x="301" y="371"/>
			<point x="319" y="344"/>
			<point x="362" y="332" type="curve"/>
			<point x="362" y="0" type="line"/>
			<point x="24" y="0" type="line"/>
			<point x="24" y="174" type="line"/>
			<point x="159" y="174" type="line"/>
			<point x="159" y="180" type="line"/>
			<point x="159" y="180"/>
			<point x="17" y="248"/>
			<point x="17" y="423" type="curve"/>
			<point x="17" y="631"/>
			<point x="170" y="747"/>
		</contour>
	</outline>
</glyph>
<glyph name="mu" format="2">
	<advance width="627"/>
	<unicode hex="03BC"/>
	<outline>
		<contour>
			<point x="625" y="0" type="line"/>
			<point x="625" y="227" type="line"/>
			<point x="602" y="227" type="line" smooth="yes"/>
			<point x="595" y="227"/>
			<point x="591" y="230"/>
			<point x="591" y="237" type="curve"/>
			<point x="591" y="552" type="line"/>
			<point x="339" y="552" type="line"/>
			<point x="339" y="222" type="line" smooth="yes"/>
			<point x="339" y="204"/>
			<point x="329" y="191"/>
			<point x="308" y="191" type="curve" smooth="yes"/>
			<point x="287" y="191"/>
			<point x="278" y="204"/>
			<point x="278" y="222" type="curve" smooth="yes"/>
			<point x="278" y="552" type="line"/>
			<point x="20" y="552" type="line"/>
			<point x="20" y="-178" type="line"/>
			<point x="270" y="-178" type="line"/>
			<point x="270" y="5" type="line"/>
			<point x="263" y="5" type="line"/>
			<point x="270" y="3"/>
			<point x="265" y="0"/>
			<point x="288" y="0" type="curve" smooth="yes"/>
			<point x="331" y="0"/>
			<point x="356" y="33"/>
			<point x="358" y="57" type="curve"/>
			<point x="363" y="57" type="line"/>
			<point x="373" y="18"/>
			<point x="397" y="0"/>
			<point x="507" y="0" type="curve"/>
		</contour>
	</outline>
</glyph>
<glyph name="pi" format="2">
	<advance width="647"/>
	<unicode hex="03C0"/>
	<outline>
		<contour>
			<point x="13" y="552" type="line"/>
			<point x="13" y="354" type="line"/>
			<point x="56" y="354" type="line"/>
			<point x="56" y="0" type="line"/>
			<point x="306" y="0" type="line"/>
			<point x="306" y="354" type="line"/>
			<point x="356" y="354" type="line"/>
			<point x="356" y="183" type="line"/>
			<point x="356" y="55"/>
			<point x="416" y="0"/>
			<point x="531" y="0" type="curve"/>
			<point x="632" y="0" type="line"/>
			<point x="632" y="185" type="line"/>
			<point x="601" y="185" type="line" smooth="yes"/>
			<point x="594" y="185"/>
			<point x="590" y="188"/>
			<point x="590" y="195" type="curve" smooth="yes"/>
			<point x="590" y="354" type="line"/>
			<point x="632" y="354" type="line"/>
			<point x="632" y="552" type="line"/>
		</contour>
	</outline>
</glyph>
<glyph name="Germandbls" format="2">
	<advance width="731"/>
	<unicode hex="1E9E"/>
	<outline>
		<contour>
			<point x="354" y="0" type="line"/>
			<point x="459" y="0" type="line" smooth="yes"/>
			<point x="629" y="0"/>
			<point x="724" y="82"/>
			<point x="724" y="236" type="curve" smooth="yes"/>
			<point x="724" y="360"/>
			<point x="645" y="450"/>
			<point x="531" y="450" type="curve" smooth="yes"/>
			<point x="481" y="450" type="line"/>
			<point x="560" y="433" type="line"/>
			<point x="560" y="454" type="line"/>
			<point x="700" y="583" type="line"/>
			<point x="700" y="727" type="line"/>
			<point x="221" y="727" type="line" smooth="yes"/>
			<point x="97" y="727"/>
			<point x="17" y="654"/>
			<point x="17" y="523" type="curve" smooth="yes"/>
			<point x="17" y="0" type="line"/>
			<point x="314" y="0" type="line"/>
			<point x="314" y="488" type="line" smooth="yes"/>
			<point x="314" y="503"/>
			<point x="321" y="514"/>
			<point x="337" y="514" type="curve" smooth="yes"/>
			<point x="440" y="514" type="line"/>
			<point x="440" y="509" type="line"/>
			<point x="354" y="430" type="line"/>
			<point x="354" y="317" type="line"/>
			<point x="421" y="317" type="line" smooth="yes"/>
			<point x="448" y="317"/>
			<point x="461" y="304"/>
			<point x="461" y="280" type="curve" smooth="yes"/>
			<point x="461" y="257"/>
			<point x="448" y="243"/>
			<point x="421" y="243" type="curve" smooth="yes"/>
			<point x="354" y="243" type="line"/>
		</contour>
	</outline>
</glyph>
<glyph name="endash" format="2">
	<advance width="620"/>
	<unicode hex="2013"/>
	<outline>
		<contour>
			<point x="20" y="179" type="line"/>
			<point x="600" y="179" type="line"/>
			<point x="600" y="403" type="line"/>
			<point x="20" y="403" type="line"/>
		</contour>
	</outline>
</glyph>
<glyph name="emdash" format="2">
	<advance width="961"/>
	<unicode hex="2014"/>
	<outline>
		<contour>
			<point x="20" y="179" type="line"/>
			<point x="941" y="179" type="line"/>
			<point x="941" y="403" type="line"/>
			<point x="20" y="403" type="line"/>
		</contour>
	</outline>
</glyph>
<glyph name="quoteleft" format="2">
	<advance width="280"/>
	<unicode hex="2018"/>
	<outline>
		<contour>
			<point x="263" y="619" type="line"/>
			<point x="263" y="392" type="line"/>
			<point x="18" y="392" type="line"/>
			<point x="18" y="619" type="line"/>
			<point x="103" y="786" type="line"/>
			<point x="249" y="786" type="line"/>
			<point x="188" y="624" type="line"/>
			<point x="191" y="619" type="line"/>
		</contour>
	</outline>
</glyph>
<glyph name="dagger" format="2">
	<advance width="587"/>
	<unicode hex="2020"/>
	<guideline x="815" y="1454" angle="270"/>
	<outline>
		<contour>
			<point x="417" y="727" type="line"/>
			<point x="170" y="727" type="line"/>
			<point x="170" y="17" type="line" smooth="yes"/>
			<point x="170" y="-119"/>
			<point x="234" y="-178"/>
			<point x="357" y="-178" type="curve" smooth="yes"/>
			<point x="417" y="-178" type="line"/>
		</contour>
		<contour>
			<point x="10" y="342" type="line"/>
			<point x="577" y="342" type="line"/>
			<point x="577" y="552" type="line"/>
			<point x="10" y="552" type="line"/>
		</contour>
	</outline>
</glyph>
<glyph name="daggerdbl" format="2">
	<advance width="597"/>
	<unicode hex="2021"/>
	<outline>
		<contour>
			<point x="422" y="727" type="line"/>
			<point x="175" y="727" type="line"/>
			<point x="175" y="-178" type="line"/>
			<point x="422" y="-178" type="line"/>
		</contour>
		<contour>
			<point x="15" y="342" type="line"/>
			<point x="582" y="342" type="line"/>
			<point x="582" y="552" type="line"/>
			<point x="15" y="552" type="line"/>
		</contour>
		<contour>
			<point x="15" y="61" type="line"/>
			<point x="582" y="61" type="line"/>
			<point x="582" y="271" type="line"/>
			<point x="15" y="271" type="line"/>
		</contour>
	</outline>
</glyph>
<glyph name="bullet" format="2">
	<advance width="485"/>
	<unicode hex="2022"/>
	<guideline x="0"/>
	<guideline x="97"/>
	<guideline x="194"/>
	<guideline x="291"/>
	<guideline x="388"/>
	<guideline x="485"/>
	<guideline x="582"/>
	<guideline x="679"/>
	<guideline x="776"/>
	<guideline x="873"/>
	<guideline y="0"/>
	<guideline y="97"/>
	<guideline y="194"/>
	<guideline y="291"/>
	<guideline y="388"/>
	<guideline y="485"/>
	<guideline y="582"/>
	<guideline y="679"/>
	<guideline y="776"/>
	<guideline y="873"/>
	<guideline y="970"/>
	<guideline y="1067"/>
	<guideline y="1164"/>
	<guideline y="1261"/>
	<guideline y="1358"/>
	<guideline y="1455"/>
	<guideline y="1552"/>
	<guideline y="1649"/>
	<guideline y="1746"/>
	<guideline y="0"/>
	<guideline y="-97"/>
	<guideline y="-194"/>
	<guideline y="-291"/>
	<outline>
		<contour>
			<point x="49" y="96" type="line"/>
			<point x="49" y="485" type="line"/>
			<point x="437" y="485" type="line"/>
			<point x="437" y="96" type="line"/>
		</contour>
	</outline>
</glyph>
<glyph name="perthousand" format="2">
	<advance width="1265"/>
	<unicode hex="2030"/>
	<outline>
		<contour>
			<point x="224" y="332" type="curve" smooth="yes"/>
			<point x="100" y="332"/>
			<point x="10" y="417"/>
			<point x="10" y="540" type="curve" smooth="yes"/>
			<point x="10" y="662"/>
			<point x="100" y="747"/>
			<point x="224" y="747" type="curve" smooth="yes"/>
			<point x="349" y="747"/>
			<point x="438" y="662"/>
			<point x="438" y="540" type="curve" smooth="yes"/>
			<point x="438" y="417"/>
			<point x="349" y="332"/>
		</contour>
		<contour>
			<point x="224" y="492" type="curve" smooth="yes"/>
			<point x="251" y="492"/>
			<point x="271" y="511"/>
			<point x="271" y="540" type="curve" smooth="yes"/>
			<point x="271" y="568"/>
			<point x="251" y="586"/>
			<point x="224" y="586" type="curve" smooth="yes"/>
			<point x="198" y="586"/>
			<point x="178" y="568"/>
			<point x="178" y="540" type="curve" smooth="yes"/>
			<point x="178" y="511"/>
			<point x="198" y="492"/>
		</contour>
		<contour>
			<point x="582" y="-20" type="curve" smooth="yes"/>
			<point x="457" y="-20"/>
			<point x="367" y="66"/>
			<point x="367" y="189" type="curve" smooth="yes"/>
			<point x="367" y="311"/>
			<point x="457" y="396"/>
			<point x="582" y="396" type="curve" smooth="yes"/>
			<point x="706" y="396"/>
			<point x="795" y="311"/>
			<point x="795" y="189" type="curve" smooth="yes"/>
			<point x="795" y="66"/>
			<point x="706" y="-20"/>
		</contour>
		<contour>
			<point x="581" y="141" type="curve" smooth="yes"/>
			<point x="608" y="141"/>
			<point x="628" y="159"/>
			<point x="628" y="189" type="curve" smooth="yes"/>
			<point x="628" y="217"/>
			<point x="608" y="236"/>
			<point x="581" y="236" type="curve" smooth="yes"/>
			<point x="554" y="236"/>
			<point x="535" y="217"/>
			<point x="535" y="189" type="curve" smooth="yes"/>
			<point x="535" y="159"/>
			<point x="554" y="141"/>
		</contour>
		<contour>
			<point x="774" y="727" type="line"/>
			<point x="597" y="436" type="line"/>
			<point x="466" y="436" type="line"/>
			<point x="538" y="727" type="line"/>
		</contour>
		<contour>
			<point x="35" y="0" type="line"/>
			<point x="207" y="292" type="line"/>
			<point x="338" y="292" type="line"/>
			<point x="271" y="0" type="line"/>
		</contour>
		<contour>
			<point x="1042" y="-20" type="curve" smooth="yes"/>
			<point x="917" y="-20"/>
			<point x="827" y="66"/>
			<point x="827" y="189" type="curve" smooth="yes"/>
			<point x="827" y="311"/>
			<point x="917" y="396"/>
			<point x="1042" y="396" type="curve" smooth="yes"/>
			<point x="1166" y="396"/>
			<point x="1255" y="311"/>
			<point x="1255" y="189" type="curve" smooth="yes"/>
			<point x="1255" y="66"/>
			<point x="1166" y="-20"/>
		</contour>
		<contour>
			<point x="1041" y="141" type="curve" smooth="yes"/>
			<point x="1068" y="141"/>
			<point x="1088" y="159"/>
			<point x="1088" y="189" type="curve" smooth="yes"/>
			<point x="1088" y="217"/>
			<point x="1068" y="236"/>
			<point x="1041" y="236" type="curve" smooth="yes"/>
			<point x="1014" y="236"/>
			<point x="995" y="217"/>
			<point x="995" y="189" type="curve" smooth="yes"/>
			<point x="995" y="159"/>
			<point x="1014" y="141"/>
		</contour>
	</outline>
</glyph>
<glyph name="guilsinglleft" format="2">
	<advance width="345"/>
	<unicode hex="2039"/>
	<guideline x="821" y="387" angle="319.8123"/>
	<guideline x="1085" y="1046" angle="220.1679"/>
	<guideline x="747" y="758" angle="270"/>
	<outline>
		<contour>
			<point x="219" y="71" type="line"/>
			<point x="13" y="267" type="line"/>
			<point x="13" y="338" type="line"/>
			<point x="221" y="532" type="line"/>
			<point x="337" y="396" type="line"/>
			<point x="242" y="304" type="line"/>
			<point x="242" y="301" type="line"/>
			<point x="337" y="210" type="line"/>
		</contour>
	</outline>
</glyph>
<glyph name="fraction" format="2">
	<advance width="125"/>
	<unicode hex="2044"/>
	<outline>
		<contour>
			<point x="369" y="727" type="line"/>
			<point x="-87" y="0" type="line"/>
			<point x="-244" y="0" type="line"/>
			<point x="212" y="727" type="line"/>
		</contour>
	</outline>
</glyph>
<glyph name="commercialminus" format="2">
	<advance width="620"/>
	<unicode hex="2052"/>
	<guideline y="727" name="capCenter"/>
	<outline>
		<contour>
			<point x="610" y="727" type="line"/>
			<point x="220" y="0" type="line"/>
			<point x="10" y="0" type="line"/>
			<point x="401" y="727" type="line"/>
		</contour>
		<component base="period" yOffset="501"/>
		<component base="period" xOffset="335"/>
	</outline>
</glyph>
<glyph name="Euro" format="2">
	<advance width="620"/>
	<unicode hex="20AC"/>
	<outline>
		<contour>
			<point x="607" y="264" type="curve"/>
			<point x="407" y="293" type="line"/>
			<point x="410" y="245"/>
			<point x="392" y="221"/>
			<point x="357" y="221" type="curve" smooth="yes"/>
			<point x="325" y="221"/>
			<point x="312" y="240"/>
			<point x="312" y="278" type="curve" smooth="yes"/>
			<point x="312" y="452" type="line" smooth="yes"/>
			<point x="312" y="492"/>
			<point x="326" y="509"/>
			<point x="358" y="509" type="curve" smooth="yes"/>
			<point x="389" y="509"/>
			<point x="406" y="494"/>
			<point x="406" y="449" type="curve"/>
			<point x="607" y="474" type="line"/>
			<point x="598" y="636"/>
			<point x="508" y="740"/>
			<point x="330" y="740" type="curve" smooth="yes"/>
			<point x="161" y="740"/>
			<point x="53" y="647"/>
			<point x="53" y="467" type="curve" smooth="yes"/>
			<point x="53" y="263" type="line" smooth="yes"/>
			<point x="53" y="83"/>
			<point x="159" y="-11"/>
			<point x="326" y="-11" type="curve" smooth="yes"/>
			<point x="482" y="-11"/>
			<point x="597" y="73"/>
		</contour>
		<contour>
			<point x="16" y="384" type="line"/>
			<point x="361" y="384" type="line"/>
			<point x="361" y="465" type="line"/>
			<point x="16" y="465" type="line"/>
		</contour>
		<contour>
			<point x="16" y="267" type="line"/>
			<point x="361" y="267" type="line"/>
			<point x="361" y="344" type="line"/>
			<point x="16" y="344" type="line"/>
		</contour>
	</outline>
</glyph>
<glyph name="trademark" format="2">
	<advance width="762"/>
	<unicode hex="2122"/>
	<outline>
		<contour>
			<point x="15" y="582" type="line"/>
			<point x="78" y="582" type="line"/>
			<point x="78" y="402" type="line"/>
			<point x="248" y="402" type="line"/>
			<point x="248" y="582" type="line"/>
			<point x="311" y="582" type="line"/>
			<point x="311" y="727" type="line"/>
			<point x="15" y="727" type="line"/>
		</contour>
		<contour>
			<point x="336" y="402" type="line"/>
			<point x="482" y="402" type="line"/>
			<point x="482" y="485" type="line"/>
			<point x="484" y="485" type="line"/>
			<point x="540" y="402" type="line"/>
			<point x="542" y="402" type="line"/>
			<point x="597" y="485" type="line"/>
			<point x="599" y="485" type="line"/>
			<point x="599" y="402" type="line"/>
			<point x="745" y="402" type="line"/>
			<point x="745" y="727" type="line"/>
			<point x="598" y="727" type="line"/>
			<point x="542" y="649" type="line"/>
			<point x="540" y="649" type="line"/>
			<point x="484" y="727" type="line"/>
			<point x="336" y="727" type="line"/>
		</contour>
	</outline>
</glyph>
<glyph name="arrowleft" format="2">
	<advance width="750"/>
	<unicode hex="2190"/>
	<outline>
		<contour>
			<point x="370" y="-2" type="line"/>
			<point x="12" y="328" type="line"/>
			<point x="12" y="399" type="line"/>
			<point x="370" y="729" type="line"/>
			<point x="510" y="584" type="line"/>
			<point x="379" y="473" type="line"/>
			<point x="379" y="471" type="line"/>
			<point x="739" y="471" type="line"/>
			<point x="739" y="256" type="line"/>
			<point x="378" y="256" type="line"/>
			<point x="378" y="255" type="line"/>
			<point x="510" y="143" type="line"/>
		</contour>
	</outline>
</glyph>
<glyph name="arrowup" format="2">
	<advance width="750"/>
	<unicode hex="2191"/>
	<guideline x="680" y="1454" angle="227.4512"/>
	<guideline x="823" y="1454" angle="312.6507"/>
	<guideline x="121" y="187" angle="50.1145"/>
	<guideline x="970" y="681" angle="309.9649"/>
	<outline>
		<contour>
			<point x="741" y="369" type="line"/>
			<point x="411" y="727" type="line"/>
			<point x="340" y="727" type="line"/>
			<point x="10" y="369" type="line"/>
			<point x="155" y="229" type="line"/>
			<point x="266" y="360" type="line"/>
			<point x="268" y="360" type="line"/>
			<point x="268" y="0" type="line"/>
			<point x="483" y="0" type="line"/>
			<point x="483" y="361" type="line"/>
			<point x="484" y="361" type="line"/>
			<point x="596" y="229" type="line"/>
		</contour>
	</outline>
</glyph>
<glyph name="arrowright" format="2">
	<advance width="750"/>
	<unicode hex="2192"/>
	<outline>
		<contour>
			<point x="380" y="-2" type="line"/>
			<point x="739" y="328" type="line"/>
			<point x="739" y="399" type="line"/>
			<point x="380" y="729" type="line"/>
			<point x="240" y="584" type="line"/>
			<point x="372" y="473" type="line"/>
			<point x="372" y="471" type="line"/>
			<point x="12" y="471" type="line"/>
			<point x="12" y="256" type="line"/>
			<point x="372" y="256" type="line"/>
			<point x="372" y="255" type="line"/>
			<point x="240" y="143" type="line"/>
		</contour>
	</outline>
</glyph>
<glyph name="partialdiff" format="2">
	<advance width="620"/>
	<unicode hex="2202"/>
	<outline>
		<contour>
			<point x="373" y="286"/>
			<point x="340" y="201"/>
			<point x="278" y="201" type="curve" smooth="yes"/>
			<point x="249" y="201"/>
			<point x="230" y="222"/>
			<point x="230" y="250" type="curve" smooth="yes"/>
			<point x="230" y="281"/>
			<point x="253" y="306"/>
			<point x="283" y="306" type="curve" smooth="yes"/>
			<point x="324" y="306"/>
			<point x="348" y="284"/>
			<point x="368" y="234" type="curve"/>
			<point x="390" y="402" type="line"/>
			<point x="370" y="399" type="line"/>
			<point x="343" y="445"/>
			<point x="296" y="470"/>
			<point x="234" y="470" type="curve" smooth="yes"/>
			<point x="102" y="470"/>
			<point x="10" y="366"/>
			<point x="10" y="227" type="curve" smooth="yes"/>
			<point x="10" y="87"/>
			<point x="96" y="-12"/>
			<point x="266" y="-12" type="curve" smooth="yes"/>
			<point x="474" y="-12"/>
			<point x="610" y="164"/>
			<point x="610" y="431" type="curve" smooth="yes"/>
			<point x="610" y="638"/>
			<point x="501" y="727"/>
			<point x="287" y="727" type="curve" smooth="yes"/>
			<point x="186" y="727" type="line"/>
			<point x="186" y="535" type="line"/>
			<point x="264" y="535" type="line" smooth="yes"/>
			<point x="337" y="535"/>
			<point x="373" y="504"/>
			<point x="373" y="434" type="curve" smooth="yes"/>
		</contour>
	</outline>
</glyph>
<glyph name="product" format="2">
	<advance width="748"/>
	<unicode hex="220F"/>
	<outline>
		<contour>
			<point x="345" y="-55" type="line"/>
			<point x="345" y="514" type="line"/>
			<point x="403" y="514" type="line"/>
			<point x="403" y="-55" type="line"/>
			<point x="676" y="-55" type="line"/>
			<point x="676" y="514" type="line"/>
			<point x="733" y="514" type="line"/>
			<point x="733" y="727" type="line"/>
			<point x="15" y="727" type="line"/>
			<point x="15" y="514" type="line"/>
			<point x="72" y="514" type="line"/>
			<point x="72" y="-55" type="line"/>
		</contour>
	</outline>
</glyph>
<glyph name="summation" format="2">
	<advance width="620"/>
	<unicode hex="2211"/>
	<outline>
		<contour>
			<point x="601" y="-178" type="line"/>
			<point x="601" y="95" type="line"/>
			<point x="405" y="95" type="line"/>
			<point x="405" y="102" type="line"/>
			<point x="593" y="262" type="line"/>
			<point x="593" y="267" type="line"/>
			<point x="405" y="432" type="line"/>
			<point x="405" y="439" type="line"/>
			<point x="601" y="439" type="line"/>
			<point x="601" y="727" type="line"/>
			<point x="19" y="727" type="line"/>
			<point x="19" y="429" type="line"/>
			<point x="206" y="269" type="line"/>
			<point x="206" y="264" type="line"/>
			<point x="19" y="105" type="line"/>
			<point x="19" y="-178" type="line"/>
		</contour>
	</outline>
</glyph>
<glyph name="minus" format="2">
	<advance width="620"/>
	<unicode hex="2212"/>
	<outline>
		<contour>
			<point x="36" y="179" type="line"/>
			<point x="584" y="179" type="line"/>
			<point x="584" y="403" type="line"/>
			<point x="36" y="403" type="line"/>
		</contour>
	</outline>
</glyph>
<glyph name="radical" format="2">
	<advance width="663"/>
	<unicode hex="221A"/>
	<outline>
		<contour>
			<point x="-1" y="440" type="line"/>
			<point x="231" y="440" type="line"/>
			<point x="278" y="225" type="line"/>
			<point x="282" y="225" type="line"/>
			<point x="478" y="912" type="line"/>
			<point x="778" y="912" type="line"/>
			<point x="778" y="757" type="line"/>
			<point x="662" y="757" type="line"/>
			<point x="417" y="-55" type="line"/>
			<point x="153" y="-55" type="line"/>
		</contour>
	</outline>
</glyph>
<glyph name="infinity" format="2">
	<advance width="901"/>
	<unicode hex="221E"/>
	<guideline x="608" y="700" angle="0"/>
	<guideline x="523" y="512" angle="0"/>
	<guideline x="1278" y="605" angle="90"/>
	<guideline x="1253" y="605" angle="0"/>
	<outline>
		<contour>
			<point x="271" y="542" type="curve" smooth="yes"/>
			<point x="130" y="542"/>
			<point x="28" y="443"/>
			<point x="28" y="302" type="curve" smooth="yes"/>
			<point x="28" y="161"/>
			<point x="130" y="63"/>
			<point x="271" y="63" type="curve" smooth="yes"/>
			<point x="347" y="63"/>
			<point x="405" y="89"/>
			<point x="450" y="144" type="curve"/>
			<point x="454" y="144" type="line"/>
			<point x="500" y="88"/>
			<point x="555" y="63"/>
			<point x="639" y="63" type="curve" smooth="yes"/>
			<point x="775" y="63"/>
			<point x="877" y="161"/>
			<point x="877" y="302" type="curve" smooth="yes"/>
			<point x="877" y="443"/>
			<point x="775" y="542"/>
			<point x="639" y="542" type="curve" smooth="yes"/>
			<point x="559" y="542"/>
			<point x="502" y="514"/>
			<point x="455" y="456" type="curve"/>
			<point x="451" y="456" type="line"/>
			<point x="403" y="516"/>
			<point x="348" y="542"/>
		</contour>
		<contour>
			<point x="226" y="303" type="curve" smooth="yes"/>
			<point x="226" y="335"/>
			<point x="247" y="356"/>
			<point x="281" y="356" type="curve" smooth="yes"/>
			<point x="311" y="356"/>
			<point x="337" y="337"/>
			<point x="355" y="304" type="curve"/>
			<point x="337" y="271"/>
			<point x="311" y="250"/>
			<point x="281" y="250" type="curve" smooth="yes"/>
			<point x="247" y="250"/>
			<point x="226" y="272"/>
		</contour>
		<contour>
			<point x="679" y="303" type="curve" smooth="yes"/>
			<point x="679" y="272"/>
			<point x="658" y="250"/>
			<point x="624" y="250" type="curve" smooth="yes"/>
			<point x="594" y="250"/>
			<point x="568" y="270"/>
			<point x="549" y="303" type="curve"/>
			<point x="568" y="336"/>
			<point x="594" y="356"/>
			<point x="624" y="356" type="curve" smooth="yes"/>
			<point x="658" y="356"/>
			<point x="679" y="335"/>
		</contour>
	</outline>
</glyph>
<glyph name="integral" format="2">
	<advance width="352"/>
	<unicode hex="222B"/>
	<outline>
		<contour>
			<point x="447" y="912" type="line"/>
			<point x="447" y="757" type="line"/>
			<point x="373" y="757" type="line" smooth="yes"/>
			<point x="355" y="757"/>
			<point x="344" y="747"/>
			<point x="342" y="726" type="curve" smooth="yes"/>
			<point x="250" y="-36" type="line" smooth="yes"/>
			<point x="239" y="-127"/>
			<point x="177" y="-178"/>
			<point x="78" y="-178" type="curve" smooth="yes"/>
			<point x="-95" y="-178" type="line"/>
			<point x="-95" y="-23" type="line"/>
			<point x="-23" y="-23" type="line" smooth="yes"/>
			<point x="-5" y="-23"/>
			<point x="6" y="-13"/>
			<point x="9" y="9" type="curve" smooth="yes"/>
			<point x="101" y="767" type="line" smooth="yes"/>
			<point x="113" y="860"/>
			<point x="175" y="912"/>
			<point x="273" y="912" type="curve" smooth="yes"/>
		</contour>
	</outline>
</glyph>
<glyph name="approxequal" format="2">
	<advance width="620"/>
	<unicode hex="2248"/>
	<outline>
		<contour>
			<point x="11" y="497" type="line"/>
			<point x="58" y="545"/>
			<point x="115" y="568"/>
			<point x="192" y="568" type="curve" smooth="yes"/>
			<point x="321" y="568"/>
			<point x="355" y="494"/>
			<point x="444" y="494" type="curve" smooth="yes"/>
			<point x="484" y="494"/>
			<point x="525" y="517"/>
			<point x="554" y="558" type="curve"/>
			<point x="610" y="383" type="line"/>
			<point x="566" y="326"/>
			<point x="519" y="295"/>
			<point x="443" y="295" type="curve" smooth="yes"/>
			<point x="347" y="295"/>
			<point x="286" y="374"/>
			<point x="184" y="374" type="curve" smooth="yes"/>
			<point x="138" y="374"/>
			<point x="107" y="366"/>
			<point x="73" y="341" type="curve"/>
		</contour>
		<contour>
			<point x="11" y="208" type="line"/>
			<point x="54" y="265"/>
			<point x="102" y="295"/>
			<point x="178" y="295" type="curve" smooth="yes"/>
			<point x="273" y="295"/>
			<point x="335" y="216"/>
			<point x="437" y="216" type="curve" smooth="yes"/>
			<point x="482" y="216"/>
			<point x="513" y="225"/>
			<point x="547" y="249" type="curve"/>
			<point x="610" y="93" type="line"/>
			<point x="562" y="46"/>
			<point x="506" y="22"/>
			<point x="428" y="22" type="curve" smooth="yes"/>
			<point x="299" y="22"/>
			<point x="266" y="96"/>
			<point x="177" y="96" type="curve" smooth="yes"/>
			<point x="137" y="96"/>
			<point x="96" y="73"/>
			<point x="66" y="32" type="curve"/>
		</contour>
	</outline>
</glyph>
<glyph name="notequal" format="2">
	<advance width="620"/>
	<unicode hex="2260"/>
	<outline>
		<contour>
			<point x="270" y="595" type="line"/>
			<point x="92" y="-18" type="line"/>
			<point x="344" y="-18" type="line"/>
			<point x="522" y="595" type="line"/>
		</contour>
		<component base="equal"/>
	</outline>
</glyph>
<glyph name="lessequal" format="2">
	<advance width="620"/>
	<unicode hex="2264"/>
	<outline>
		<contour>
			<point x="593" y="600" type="line" smooth="yes"/>
			<point x="28" y="487" type="line"/>
			<point x="28" y="286" type="line"/>
			<point x="593" y="199" type="line"/>
			<point x="593" y="376" type="line"/>
			<point x="132" y="404" type="line"/>
			<point x="330" y="366" type="line"/>
			<point x="330" y="422" type="line"/>
			<point x="132" y="376" type="line"/>
			<point x="593" y="423" type="line"/>
		</contour>
		<contour>
			<point x="28" y="0" type="line"/>
			<point x="593" y="0" type="line"/>
			<point x="593" y="178" type="line"/>
			<point x="28" y="178" type="line"/>
		</contour>
	</outline>
</glyph>
<glyph name="lozenge" format="2">
	<advance width="620"/>
	<unicode hex="25CA"/>
	<outline>
		<contour>
			<point x="184" y="727" type="line"/>
			<point x="2" y="315" type="line"/>
			<point x="2" y="232" type="line"/>
			<point x="184" y="-178" type="line"/>
			<point x="432" y="-178" type="line"/>
			<point x="619" y="232" type="line"/>
			<point x="619" y="315" type="line"/>
			<point x="432" y="727" type="line"/>
		</contour>
		<contour>
			<point x="308" y="411" type="line"/>
			<point x="310" y="411" type="line"/>
			<point x="382" y="274" type="line"/>
			<point x="382" y="272" type="line"/>
			<point x="310" y="134" type="line"/>
			<point x="308" y="134" type="line"/>
			<point x="236" y="272" type="line"/>
			<point x="236" y="274" type="line"/>
		</contour>
	</outline>
</glyph>
<glyph name="arrowrighttriangle" format="2">
	<advance width="1301"/>
	<unicode hex="279D"/>
	<outline>
		<contour>
			<point x="20" y="471" type="line"/>
			<point x="20" y="256" type="line"/>
			<point x="747" y="256" type="line"/>
			<point x="747" y="471" type="line"/>
		</contour>
		<contour>
			<point x="1281" y="276" type="line"/>
			<point x="1281" y="452" type="line"/>
			<point x="636" y="659" type="line"/>
			<point x="608" y="582"/>
			<point x="577" y="526"/>
			<point x="521" y="463" type="curve"/>
			<point x="521" y="264" type="line"/>
			<point x="577" y="202"/>
			<point x="608" y="146"/>
			<point x="636" y="68" type="curve"/>
		</contour>
	</outline>
</glyph>
<glyph name="anglebracketleft" format="2">
	<advance width="350"/>
	<unicode hex="27E8"/>
	<guideline x="686" y="664" angle="90"/>
	<outline>
		<contour>
			<point x="335" y="835" type="line" smooth="yes"/>
			<point x="13" y="432" type="line"/>
			<point x="13" y="199" type="line"/>
			<point x="335" y="-172" type="line"/>
			<point x="335" y="204" type="line"/>
			<point x="221" y="323" type="line"/>
			<point x="221" y="329" type="line"/>
			<point x="335" y="458" type="line"/>
		</contour>
	</outline>
</glyph>
<glyph name="arrowrighttailfeather" format="2">
	<advance width="1257"/>
	<unicode hex="291A"/>
	<outline>
		<contour>
			<point x="442" y="471" type="line"/>
			<point x="442" y="256" type="line"/>
			<point x="1237" y="256" type="line"/>
			<point x="1237" y="471" type="line"/>
		</contour>
		<contour>
			<point x="792" y="259" type="line"/>
			<point x="792" y="468" type="line"/>
			<point x="635" y="655" type="line"/>
			<point x="49" y="655" type="line"/>
			<point x="8" y="574" type="line"/>
			<point x="63" y="524"/>
			<point x="98" y="448"/>
			<point x="98" y="364" type="curve" smooth="yes"/>
			<point x="98" y="280"/>
			<point x="63" y="204"/>
			<point x="8" y="152" type="curve"/>
			<point x="49" y="73" type="line"/>
			<point x="635" y="73" type="line"/>
		</contour>
	</outline>
</glyph>
<glyph name="B.RECT" format="2">
	<advance width="696"/>
	<outline>
		<contour>
			<point x="20" y="0" type="line"/>
			<point x="483" y="0" type="line" smooth="yes"/>
			<point x="613" y="0"/>
			<point x="684" y="86"/>
			<point x="684" y="205" type="curve" smooth="yes"/>
			<point x="684" y="251" type="line" smooth="yes"/>
			<point x="684" y="334"/>
			<point x="656" y="397"/>
			<point x="562" y="412" type="curve"/>
			<point x="597" y="371" type="line"/>
			<point x="597" y="426" type="line"/>
			<point x="564" y="389" type="line"/>
			<point x="618" y="414"/>
			<point x="667" y="472"/>
			<point x="667" y="544" type="curve"/>
			<point x="667" y="648"/>
			<point x="603" y="727"/>
			<point x="423" y="727" type="curve" smooth="yes"/>
			<point x="20" y="727" type="line"/>
		</contour>
		<contour>
			<point x="356" y="529" type="line" smooth="yes"/>
			<point x="387" y="529"/>
			<point x="399" y="517"/>
			<point x="399" y="494" type="curve" smooth="yes"/>
			<point x="399" y="466"/>
			<point x="387" y="451"/>
			<point x="357" y="451" type="curve" smooth="yes"/>
			<point x="300" y="451" type="line"/>
			<point x="300" y="529" type="line"/>
		</contour>
		<contour>
			<point x="370" y="305" type="line" smooth="yes"/>
			<point x="395" y="305"/>
			<point x="404" y="296"/>
			<point x="404" y="278" type="curve" smooth="yes"/>
			<point x="404" y="245" type="line" smooth="yes"/>
			<point x="404" y="227"/>
			<point x="394" y="217"/>
			<point x="371" y="217" type="curve" smooth="yes"/>
			<point x="300" y="217" type="line"/>
			<point x="300" y="305" type="line"/>
		</contour>
	</outline>
</glyph>
<glyph name="C.RECT" format="2">
	<advance width="670"/>
	<guideline x="1017.24" y="885.04" angle="270"/>
	<guideline x="1296.34" y="954.81" angle="270"/>
	<guideline x="1098.04" y="967.67" angle="180"/>
	<anchor x="339" y="727" name="top"/>
	<anchor x="339" y="-11" name="bottom"/>
	<outline>
		<contour>
			<point x="660" y="272" type="curve"/>
			<point x="407" y="308" type="line"/>
			<point x="411" y="250"/>
			<point x="392" y="221"/>
			<point x="357" y="221" type="curve" smooth="yes"/>
			<point x="325" y="221"/>
			<point x="312" y="240"/>
			<point x="312" y="278" type="curve" smooth="yes"/>
			<point x="312" y="452" type="line" smooth="yes"/>
			<point x="312" y="492"/>
			<point x="326" y="509"/>
			<point x="358" y="509" type="curve" smooth="yes"/>
			<point x="389" y="509"/>
			<point x="406" y="491"/>
			<point x="406" y="434" type="curve"/>
			<point x="660" y="466" type="line"/>
			<point x="651" y="633"/>
			<point x="542" y="740"/>
			<point x="330" y="740" type="curve" smooth="yes"/>
			<point x="139" y="740"/>
			<point x="15" y="644"/>
			<point x="15" y="457" type="curve" smooth="yes"/>
			<point x="15" y="273" type="line" smooth="yes"/>
			<point x="15" y="86"/>
			<point x="136" y="-11"/>
			<point x="326" y="-11" type="curve" smooth="yes"/>
			<point x="512" y="-11"/>
			<point x="650" y="76"/>
		</contour>
	</outline>
</glyph>
<glyph name="D.RECT" format="2">
	<advance width="712"/>
	<outline>
		<contour>
			<point x="340" y="237" type="curve" smooth="yes"/>
			<point x="317" y="237" type="line"/>
			<point x="317" y="491" type="line"/>
			<point x="343" y="491" type="line" smooth="yes"/>
			<point x="384" y="491"/>
			<point x="400" y="478"/>
			<point x="400" y="434" type="curve" smooth="yes"/>
			<point x="400" y="288" type="line" smooth="yes"/>
			<point x="400" y="248"/>
			<point x="383" y="237"/>
		</contour>
		<contour>
			<point x="382" y="0" type="line" smooth="yes"/>
			<point x="584" y="0"/>
			<point x="697" y="84"/>
			<point x="697" y="273" type="curve" smooth="yes"/>
			<point x="697" y="455" type="line" smooth="yes"/>
			<point x="697" y="643"/>
			<point x="587" y="728"/>
			<point x="383" y="728" type="curve" smooth="yes"/>
			<point x="20" y="728" type="line"/>
			<point x="20" y="0" type="line"/>
		</contour>
	</outline>
</glyph>
<glyph name="Dcroat.RECT" format="2">
	<advance width="736"/>
	<outline>
		<contour>
			<point x="7" y="240" type="line"/>
			<point x="81" y="240" type="line"/>
			<point x="234" y="302" type="line"/>
			<point x="384" y="302" type="line"/>
			<point x="384" y="425" type="line"/>
			<point x="234" y="425" type="line"/>
			<point x="81" y="488" type="line"/>
			<point x="7" y="488" type="line"/>
		</contour>
		<component base="D.RECT" xOffset="24"/>
	</outline>
</glyph>
<glyph name="E.RECT" format="2">
	<advance width="549"/>
	<anchor x="534" y="0" name="ogonek"/>
	<anchor x="284" y="0" name="bottom"/>
	<anchor x="288" y="727" name="top"/>
	<outline>
		<contour>
			<point x="534" y="0" type="line"/>
			<point x="534" y="213" type="line"/>
			<point x="317" y="213" type="line"/>
			<point x="317" y="274" type="line"/>
			<point x="448" y="274" type="line"/>
			<point x="448" y="453" type="line"/>
			<point x="317" y="453" type="line"/>
			<point x="317" y="514" type="line"/>
			<point x="534" y="514" type="line"/>
			<point x="534" y="727" type="line"/>
			<point x="20" y="727" type="line"/>
			<point x="20" y="0" type="line"/>
		</contour>
	</outline>
</glyph>
<glyph name="G.RECT" format="2">
	<advance width="688"/>
	<anchor x="346" y="727" name="top"/>
	<anchor x="342" y="0" name="bottom"/>
	<outline>
		<contour>
			<point x="342" y="432" type="line"/>
			<point x="342" y="276" type="line"/>
			<point x="446" y="276" type="line"/>
			<point x="411" y="305" type="line"/>
			<point x="411" y="272" type="line" smooth="yes"/>
			<point x="411" y="235"/>
			<point x="395" y="221"/>
			<point x="360" y="221" type="curve" smooth="yes"/>
			<point x="325" y="221"/>
			<point x="312" y="240"/>
			<point x="312" y="278" type="curve" smooth="yes"/>
			<point x="312" y="452" type="line" smooth="yes"/>
			<point x="312" y="492"/>
			<point x="326" y="509"/>
			<point x="358" y="509" type="curve" smooth="yes"/>
			<point x="384" y="509"/>
			<point x="401" y="500"/>
			<point x="406" y="459" type="curve"/>
			<point x="653" y="516" type="line"/>
			<point x="622" y="676"/>
			<point x="502" y="740"/>
			<point x="345" y="740" type="curve" smooth="yes"/>
			<point x="149" y="740"/>
			<point x="15" y="644"/>
			<point x="15" y="457" type="curve" smooth="yes"/>
			<point x="15" y="272" type="line" smooth="yes"/>
			<point x="15" y="85"/>
			<point x="147" y="-12"/>
			<point x="342" y="-12" type="curve" smooth="yes"/>
			<point x="538" y="-12"/>
			<point x="673" y="85"/>
			<point x="673" y="279" type="curve"/>
			<point x="673" y="432" type="line"/>
		</contour>
	</outline>
</glyph>
<glyph name="Germandbls.RECT" format="2">
	<advance width="715"/>
	<outline>
		<contour>
			<point x="352" y="0" type="line"/>
			<point x="507" y="0" type="line" smooth="yes"/>
			<point x="638" y="0"/>
			<point x="708" y="76"/>
			<point x="708" y="205" type="curve" smooth="yes"/>
			<point x="708" y="266" type="line" smooth="yes"/>
			<point x="708" y="365"/>
			<point x="653" y="448"/>
			<point x="537" y="448" type="curve" smooth="yes"/>
			<point x="478" y="448" type="line"/>
			<point x="559" y="432" type="line"/>
			<point x="559" y="454" type="line"/>
			<point x="698" y="583" type="line"/>
			<point x="698" y="727" type="line"/>
			<point x="220" y="727" type="line" smooth="yes"/>
			<point x="96" y="727"/>
			<point x="15" y="654"/>
			<point x="15" y="523" type="curve" smooth="yes"/>
			<point x="15" y="0" type="line"/>
			<point x="312" y="0" type="line"/>
			<point x="312" y="488" type="line" smooth="yes"/>
			<point x="312" y="503"/>
			<point x="319" y="514"/>
			<point x="336" y="514" type="curve" smooth="yes"/>
			<point x="430" y="514" type="line"/>
			<point x="430" y="508" type="line"/>
			<point x="352" y="437" type="line"/>
			<point x="352" y="305" type="line"/>
			<point x="395" y="305" type="line" smooth="yes"/>
			<point x="417" y="305"/>
			<point x="428" y="295"/>
			<point x="428" y="278" type="curve" smooth="yes"/>
			<point x="428" y="245" type="line" smooth="yes"/>
			<point x="428" y="227"/>
			<point x="417" y="217"/>
			<point x="395" y="217" type="curve" smooth="yes"/>
			<point x="352" y="217" type="line"/>
		</contour>
	</outline>
</glyph>
<glyph name="I.text" format="2">
	<advance width="471"/>
	<anchor x="456" y="0" name="ogonek"/>
	<anchor x="228" y="0" name="bottom"/>
	<anchor x="227" y="727" name="top"/>
	<outline>
		<contour>
			<point x="15" y="0" type="line"/>
			<point x="456" y="0" type="line"/>
			<point x="456" y="274" type="line"/>
			<point x="384" y="274" type="line"/>
			<point x="384" y="453" type="line"/>
			<point x="456" y="453" type="line"/>
			<point x="456" y="727" type="line"/>
			<point x="15" y="727" type="line"/>
			<point x="15" y="453" type="line"/>
			<point x="87" y="453" type="line"/>
			<point x="87" y="274" type="line"/>
			<point x="15" y="274" type="line"/>
		</contour>
	</outline>
</glyph>
<glyph name="J.001" format="2">
	<advance width="620"/>
	<outline>
		<contour>
			<point x="604" y="727" type="line"/>
			<point x="604" y="260" type="line" smooth="yes"/>
			<point x="604" y="77"/>
			<point x="479" y="-20"/>
			<point x="301" y="-20" type="curve" smooth="yes"/>
			<point x="136" y="-20"/>
			<point x="34" y="53"/>
			<point x="-4" y="211" type="curve"/>
			<point x="236" y="275" type="line"/>
			<point x="239" y="248"/>
			<point x="253" y="238"/>
			<point x="271" y="238" type="curve" smooth="yes"/>
			<point x="294" y="238"/>
			<point x="307" y="252"/>
			<point x="307" y="277" type="curve" smooth="yes"/>
			<point x="307" y="727" type="line"/>
		</contour>
	</outline>
</glyph>
<glyph name="M.RECT" format="2">
	<advance width="820"/>
	<outline>
		<contour>
			<point x="20" y="0" type="line"/>
			<point x="20" y="727" type="line"/>
			<point x="281" y="727" type="line"/>
			<point x="471" y="407" type="line"/>
			<point x="328" y="510" type="line"/>
			<point x="492" y="510" type="line"/>
			<point x="354" y="407" type="line"/>
			<point x="542" y="727" type="line"/>
			<point x="800" y="727" type="line"/>
			<point x="800" y="0" type="line"/>
			<point x="541" y="0" type="line"/>
			<point x="541" y="459" type="line"/>
			<point x="715" y="212" type="line"/>
			<point x="477" y="212" type="line"/>
			<point x="638" y="385" type="line"/>
			<point x="413" y="0" type="line"/>
			<point x="409" y="0" type="line"/>
			<point x="183" y="385" type="line"/>
			<point x="342" y="212" type="line"/>
			<point x="106" y="212" type="line"/>
			<point x="280" y="459" type="line"/>
			<point x="280" y="0" type="line"/>
		</contour>
	</outline>
</glyph>
<glyph name="N.RECT" format="2">
	<advance width="698"/>
	<anchor x="349" y="727" name="top"/>
	<anchor x="349" y="0" name="bottom"/>
	<outline>
		<contour>
			<point x="20" y="0" type="line"/>
			<point x="20" y="727" type="line"/>
			<point x="249" y="727" type="line"/>
			<point x="414" y="480" type="line"/>
			<point x="358" y="519" type="line"/>
			<point x="433" y="519" type="line"/>
			<point x="389" y="480" type="line"/>
			<point x="389" y="727" type="line"/>
			<point x="678" y="727" type="line"/>
			<point x="678" y="0" type="line"/>
			<point x="450" y="0" type="line"/>
			<point x="285" y="246" type="line"/>
			<point x="340" y="207" type="line"/>
			<point x="266" y="207" type="line"/>
			<point x="309" y="246" type="line"/>
			<point x="309" y="0" type="line"/>
		</contour>
	</outline>
</glyph>
<glyph name="ND.ord" format="2">
	<advance width="758"/>
	<guideline x="1860" y="968" angle="0"/>
	<guideline x="1860" y="968" angle="0"/>
	<guideline x="1326" y="1128" angle="179.8187"/>
	<outline>
		<contour>
			<point x="17" y="402" type="line"/>
			<point x="170" y="402" type="line"/>
			<point x="170" y="464" type="line"/>
			<point x="174" y="464" type="line"/>
			<point x="224" y="402" type="line"/>
			<point x="361" y="402" type="line"/>
			<point x="361" y="727" type="line"/>
			<point x="208" y="727" type="line"/>
			<point x="208" y="665" type="line"/>
			<point x="205" y="665" type="line"/>
			<point x="155" y="727" type="line"/>
			<point x="17" y="727" type="line"/>
		</contour>
		<contour>
			<point x="573" y="402" type="curve" smooth="yes"/>
			<point x="392" y="402" type="line"/>
			<point x="392" y="727" type="line"/>
			<point x="567" y="727" type="line" smooth="yes"/>
			<point x="667" y="727"/>
			<point x="752" y="677"/>
			<point x="752" y="564" type="curve" smooth="yes"/>
			<point x="752" y="452"/>
			<point x="670" y="402"/>
		</contour>
		<contour>
			<point x="567" y="591" type="curve" smooth="yes"/>
			<point x="547" y="591" type="line"/>
			<point x="547" y="538" type="line"/>
			<point x="567" y="538" type="line" smooth="yes"/>
			<point x="581" y="538"/>
			<point x="592" y="546"/>
			<point x="592" y="565" type="curve" smooth="yes"/>
			<point x="592" y="584"/>
			<point x="581" y="591"/>
		</contour>
		<contour>
			<point x="17" y="232" type="line"/>
			<point x="743" y="232" type="line"/>
			<point x="743" y="377" type="line"/>
			<point x="17" y="377" type="line"/>
		</contour>
	</outline>
</glyph>
<glyph name="O.RECT" format="2">
	<advance width="719"/>
	<anchor x="362" y="727" name="top"/>
	<anchor x="360" y="0" name="bottom"/>
	<outline>
		<contour>
			<point x="362" y="739" type="curve" smooth="yes"/>
			<point x="571" y="739"/>
			<point x="704" y="643"/>
			<point x="704" y="456" type="curve" smooth="yes"/>
			<point x="704" y="272" type="line" smooth="yes"/>
			<point x="704" y="85"/>
			<point x="569" y="-12"/>
			<point x="358" y="-12" type="curve" smooth="yes"/>
			<point x="148" y="-12"/>
			<point x="15" y="85"/>
			<point x="15" y="272" type="curve" smooth="yes"/>
			<point x="15" y="456" type="line" smooth="yes"/>
			<point x="15" y="643"/>
			<point x="151" y="739"/>
		</contour>
		<contour>
			<point x="360" y="508" type="curve" smooth="yes"/>
			<point x="326" y="508"/>
			<point x="313" y="490"/>
			<point x="313" y="451" type="curve" smooth="yes"/>
			<point x="313" y="277" type="line" smooth="yes"/>
			<point x="313" y="239"/>
			<point x="326" y="220"/>
			<point x="360" y="220" type="curve" smooth="yes"/>
			<point x="392" y="220"/>
			<point x="407" y="239"/>
			<point x="407" y="277" type="curve" smooth="yes"/>
			<point x="407" y="451" type="line" smooth="yes"/>
			<point x="407" y="490"/>
			<point x="391" y="508"/>
		</contour>
	</outline>
</glyph>
<glyph name="OE.RECT" format="2">
	<advance width="985"/>
	<guideline x="779" y="563" angle="0"/>
	<anchor x="498" y="727" name="top"/>
	<outline>
		<contour>
			<point x="390" y="508" type="curve" smooth="yes"/>
			<point x="424" y="508"/>
			<point x="437" y="488"/>
			<point x="437" y="446" type="curve" smooth="yes"/>
			<point x="437" y="282" type="line" smooth="yes"/>
			<point x="437" y="241"/>
			<point x="423" y="220"/>
			<point x="390" y="220" type="curve" smooth="yes"/>
			<point x="356" y="220"/>
			<point x="343" y="241"/>
			<point x="343" y="282" type="curve" smooth="yes"/>
			<point x="343" y="446" type="line" smooth="yes"/>
			<point x="343" y="488"/>
			<point x="357" y="508"/>
		</contour>
		<contour>
			<point x="287" y="739" type="curve"/>
			<point x="143" y="739"/>
			<point x="45" y="643"/>
			<point x="45" y="456" type="curve" smooth="yes"/>
			<point x="45" y="272" type="line" smooth="yes"/>
			<point x="45" y="85"/>
			<point x="141" y="-12"/>
			<point x="283" y="-12" type="curve"/>
			<point x="347" y="-12"/>
			<point x="397" y="3"/>
			<point x="433" y="38" type="curve"/>
			<point x="483" y="38" type="line"/>
			<point x="483" y="691" type="line"/>
			<point x="433" y="691" type="line"/>
			<point x="398" y="725"/>
			<point x="349" y="739"/>
		</contour>
		<component base="E" xOffset="417"/>
	</outline>
</glyph>
<glyph name="Ohorn.RECT" format="2">
	<advance width="715"/>
	<anchor x="360" y="727" name="top"/>
	<anchor x="356" y="0" name="bottom"/>
	<outline>
		<contour>
			<point x="505" y="803" type="line"/>
			<point x="505" y="748" type="line" smooth="yes"/>
			<point x="505" y="735"/>
			<point x="498" y="728"/>
			<point x="487" y="728" type="curve" smooth="yes"/>
			<point x="465" y="728"/>
			<point x="433" y="739"/>
			<point x="360" y="739" type="curve" smooth="yes"/>
			<point x="150" y="739"/>
			<point x="15" y="642"/>
			<point x="15" y="456" type="curve" smooth="yes"/>
			<point x="15" y="272" type="line" smooth="yes"/>
			<point x="15" y="85"/>
			<point x="148" y="-12"/>
			<point x="358" y="-12" type="curve" smooth="yes"/>
			<point x="569" y="-12"/>
			<point x="704" y="85"/>
			<point x="704" y="272" type="curve" smooth="yes"/>
			<point x="704" y="456" type="line" smooth="yes"/>
			<point x="704" y="538"/>
			<point x="679" y="602"/>
			<point x="633" y="649" type="curve"/>
			<point x="633" y="651" type="line"/>
			<point x="688" y="662"/>
			<point x="709" y="704"/>
			<point x="709" y="753" type="curve" smooth="yes"/>
			<point x="709" y="803" type="line"/>
		</contour>
		<contour>
			<point x="360" y="508" type="curve" smooth="yes"/>
			<point x="391" y="508"/>
			<point x="407" y="490"/>
			<point x="407" y="451" type="curve" smooth="yes"/>
			<point x="407" y="277" type="line" smooth="yes"/>
			<point x="407" y="239"/>
			<point x="392" y="220"/>
			<point x="360" y="220" type="curve" smooth="yes"/>
			<point x="326" y="220"/>
			<point x="313" y="239"/>
			<point x="313" y="277" type="curve" smooth="yes"/>
			<point x="313" y="451" type="line" smooth="yes"/>
			<point x="313" y="490"/>
			<point x="326" y="508"/>
		</contour>
	</outline>
</glyph>
<glyph name="Oslash.RECT" format="2">
	<advance width="715"/>
	<guideline x="984" y="1110" angle="240.5875"/>
	<guideline x="586" y="-4" angle="242.8944"/>
	<guideline x="843" y="1458" angle="62.9917"/>
	<anchor x="312" y="727" name="top"/>
	<outline>
		<contour>
			<point x="40" y="0" type="line"/>
			<point x="91" y="100" type="line"/>
			<point x="205" y="119" type="line"/>
			<point x="459" y="637" type="line"/>
			<point x="422" y="729" type="line"/>
			<point x="464" y="812" type="line"/>
			<point x="673" y="725" type="line"/>
			<point x="621" y="623" type="line"/>
			<point x="500" y="607" type="line"/>
			<point x="252" y="98" type="line"/>
			<point x="293" y="-2" type="line"/>
			<point x="249" y="-88" type="line"/>
		</contour>
		<component base="O.RECT"/>
	</outline>
</glyph>
<glyph name="Oslash.RECT_open" format="2">
	<advance width="715"/>
	<guideline x="984" y="1110" angle="240.5875"/>
	<guideline x="586" y="-4" angle="242.8944"/>
	<guideline x="843" y="1458" angle="62.9917"/>
	<anchor x="307" y="727" name="top"/>
	<outline>
		<contour>
			<point x="40" y="0" type="line"/>
			<point x="91" y="100" type="line"/>
			<point x="345" y="100" type="line"/>
			<point x="249" y="-88" type="line"/>
		</contour>
		<contour>
			<point x="367" y="623" type="line"/>
			<point x="464" y="812" type="line"/>
			<point x="673" y="725" type="line"/>
			<point x="621" y="623" type="line"/>
		</contour>
		<component base="O.RECT"/>
	</outline>
</glyph>
<glyph name="Oslash.open" format="2">
	<advance width="817"/>
	<anchor x="407" y="727" name="top"/>
	<outline>
		<contour>
			<point x="248" y="31" type="line"/>
			<point x="168" y="-56" type="line"/>
			<point x="6" y="102" type="line"/>
			<point x="82" y="184" type="line"/>
		</contour>
		<contour>
			<point x="734" y="543" type="line"/>
			<point x="571" y="700" type="line"/>
			<point x="650" y="784" type="line"/>
			<point x="812" y="627" type="line"/>
		</contour>
		<component base="O"/>
	</outline>
</glyph>
<glyph name="P.RECT" format="2">
	<advance width="679"/>
	<outline>
		<contour>
			<point x="20" y="0" type="line"/>
			<point x="317" y="0" type="line"/>
			<point x="317" y="499" type="line"/>
			<point x="375" y="499" type="line" smooth="yes"/>
			<point x="396" y="499"/>
			<point x="407" y="489"/>
			<point x="407" y="471" type="curve" smooth="yes"/>
			<point x="407" y="427" type="line" smooth="yes"/>
			<point x="407" y="409"/>
			<point x="395" y="398"/>
			<point x="375" y="398" type="curve" smooth="yes"/>
			<point x="285" y="398" type="line"/>
			<point x="285" y="174" type="line"/>
			<point x="434" y="174" type="line" smooth="yes"/>
			<point x="590" y="174"/>
			<point x="667" y="250"/>
			<point x="667" y="373" type="curve" smooth="yes"/>
			<point x="667" y="522" type="line" smooth="yes"/>
			<point x="667" y="645"/>
			<point x="584" y="727"/>
			<point x="436" y="727" type="curve" smooth="yes"/>
			<point x="20" y="727" type="line"/>
		</contour>
	</outline>
</glyph>
<glyph name="Q.RECT" format="2">
	<advance width="719"/>
	<guideline x="594" y="374" angle="217.3853"/>
	<outline>
		<contour>
			<point x="460" y="-92" type="line"/>
			<point x="413" y="23" type="line"/>
			<point x="428" y="115" type="line"/>
			<point x="405" y="165" type="line"/>
			<point x="496" y="216" type="line"/>
			<point x="526" y="151" type="line"/>
			<point x="633" y="106" type="line"/>
			<point x="673" y="0" type="line"/>
		</contour>
		<component base="O.RECT"/>
	</outline>
</glyph>
<glyph name="Q.RECT_open" format="2">
	<advance width="685"/>
	<guideline x="594" y="374" angle="37.3853"/>
	<outline>
		<contour>
			<point x="433" y="-102" type="line"/>
			<point x="382" y="23" type="line"/>
			<point x="602" y="106" type="line"/>
			<point x="642" y="0" type="line"/>
		</contour>
		<component base="O.RECT"/>
	</outline>
</glyph>
<glyph name="Q.open" format="2">
	<advance width="814"/>
	<guideline x="0" y="0" angle="270"/>
	<guideline x="97" y="0" angle="270"/>
	<guideline x="194" y="0" angle="270"/>
	<guideline x="291" y="0" angle="270"/>
	<guideline x="388" y="0" angle="270"/>
	<guideline x="485" y="0" angle="270"/>
	<guideline x="582" y="0" angle="270"/>
	<guideline x="679" y="0" angle="270"/>
	<guideline x="776" y="0" angle="270"/>
	<guideline x="873" y="0" angle="270"/>
	<guideline x="970" y="0" angle="270"/>
	<guideline x="1067" y="0" angle="270"/>
	<guideline x="1164" y="0" angle="270"/>
	<guideline x="1261" y="0" angle="270"/>
	<guideline x="1358" y="0" angle="270"/>
	<guideline x="1455" y="0" angle="270"/>
	<guideline x="1552" y="0" angle="270"/>
	<guideline x="1649" y="0" angle="270"/>
	<guideline y="0"/>
	<guideline y="97"/>
	<guideline y="194"/>
	<guideline y="291"/>
	<guideline y="388"/>
	<guideline y="485"/>
	<guideline y="582"/>
	<guideline y="679"/>
	<guideline y="776"/>
	<guideline y="873"/>
	<guideline y="970"/>
	<guideline y="1067"/>
	<guideline y="1164"/>
	<guideline y="1261"/>
	<guideline y="1358"/>
	<guideline y="1455"/>
	<guideline y="1552"/>
	<guideline y="1649"/>
	<guideline y="1746"/>
	<guideline y="0"/>
	<guideline y="-97"/>
	<guideline y="-194"/>
	<guideline y="-291"/>
	<outline>
		<contour>
			<point x="723" y="178" type="line"/>
			<point x="746" y="151" type="line" smooth="yes"/>
			<point x="749" y="147"/>
			<point x="753" y="144"/>
			<point x="760" y="144" type="curve" smooth="yes"/>
			<point x="798" y="144" type="line"/>
			<point x="798" y="-89" type="line"/>
			<point x="699" y="-89" type="line" smooth="yes"/>
			<point x="627" y="-89"/>
			<point x="603" y="-82"/>
			<point x="545" y="-11" type="curve" smooth="yes"/>
			<point x="523" y="17" type="line"/>
		</contour>
		<component base="O"/>
	</outline>
</glyph>
<glyph name="R.RECT" format="2">
	<advance width="714"/>
	<anchor x="363" y="727" name="top"/>
	<anchor x="363" y="0" name="bottom"/>
	<outline>
		<contour>
			<point x="586" y="333" type="line"/>
			<point x="311" y="290" type="line"/>
			<point x="403" y="0" type="line"/>
			<point x="710" y="0" type="line"/>
		</contour>
		<contour>
			<point x="428" y="179" type="line"/>
			<point x="587" y="179"/>
			<point x="699" y="241"/>
			<point x="699" y="392" type="curve" smooth="yes"/>
			<point x="699" y="498" type="line" smooth="yes"/>
			<point x="699" y="645"/>
			<point x="626" y="727"/>
			<point x="457" y="727" type="curve" smooth="yes"/>
			<point x="20" y="727" type="line"/>
			<point x="20" y="0" type="line"/>
			<point x="317" y="0" type="line"/>
			<point x="317" y="179" type="line"/>
		</contour>
		<contour>
			<point x="409" y="410"/>
			<point x="399" y="398"/>
			<point x="376" y="398" type="curve" smooth="yes"/>
			<point x="317" y="398" type="line"/>
			<point x="317" y="499" type="line"/>
			<point x="375" y="499" type="line" smooth="yes"/>
			<point x="400" y="499"/>
			<point x="409" y="489"/>
			<point x="409" y="471" type="curve" smooth="yes"/>
			<point x="409" y="427" type="line" smooth="yes"/>
		</contour>
	</outline>
</glyph>
<glyph name="R.text" format="2">
	<advance width="708"/>
	<anchor x="354" y="727" name="top"/>
	<anchor x="354" y="0" name="bottom"/>
	<outline>
		<contour>
			<point x="579" y="333" type="line"/>
			<point x="304" y="290" type="line"/>
			<point x="391" y="0" type="line"/>
			<point x="703" y="0" type="line"/>
		</contour>
		<component base="P"/>
	</outline>
</glyph>
<glyph name="RD.ord" format="2">
	<advance width="773"/>
	<guideline x="112" y="966" angle="90"/>
	<outline>
		<contour>
			<point x="588" y="402" type="curve" smooth="yes"/>
			<point x="407" y="402" type="line"/>
			<point x="407" y="727" type="line"/>
			<point x="582" y="727" type="line" smooth="yes"/>
			<point x="696" y="727"/>
			<point x="767" y="665"/>
			<point x="767" y="564" type="curve" smooth="yes"/>
			<point x="767" y="464"/>
			<point x="699" y="402"/>
		</contour>
		<contour>
			<point x="582" y="591" type="curve" smooth="yes"/>
			<point x="562" y="591" type="line"/>
			<point x="562" y="538" type="line"/>
			<point x="582" y="538" type="line" smooth="yes"/>
			<point x="598" y="538"/>
			<point x="607" y="548"/>
			<point x="607" y="565" type="curve" smooth="yes"/>
			<point x="607" y="582"/>
			<point x="598" y="591"/>
		</contour>
		<contour>
			<point x="337" y="555" type="line"/>
			<point x="177" y="531" type="line"/>
			<point x="220" y="402" type="line"/>
			<point x="394" y="402" type="line"/>
		</contour>
		<contour>
			<point x="18" y="727" type="line"/>
			<point x="18" y="402" type="line"/>
			<point x="188" y="402" type="line"/>
			<point x="188" y="602" type="line"/>
			<point x="204" y="602" type="line" smooth="yes"/>
			<point x="220" y="602"/>
			<point x="229" y="594"/>
			<point x="229" y="578" type="curve" smooth="yes"/>
			<point x="229" y="562"/>
			<point x="220" y="554"/>
			<point x="204" y="554" type="curve" smooth="yes"/>
			<point x="142" y="554" type="line"/>
			<point x="142" y="466" type="line"/>
			<point x="243" y="466" type="line" smooth="yes"/>
			<point x="333" y="466"/>
			<point x="386" y="517"/>
			<point x="386" y="604" type="curve" smooth="yes"/>
			<point x="386" y="684"/>
			<point x="336" y="727"/>
			<point x="242" y="727" type="curve" smooth="yes"/>
		</contour>
		<contour>
			<point x="17" y="232" type="line"/>
			<point x="758" y="232" type="line"/>
			<point x="758" y="377" type="line"/>
			<point x="17" y="377" type="line"/>
		</contour>
	</outline>
</glyph>
<glyph name="ST.ord" format="2">
	<advance width="656"/>
	<guideline x="568" y="1288" angle="19.7045"/>
	<guideline x="1281" y="1309" angle="90"/>
	<outline>
		<contour>
			<point x="17" y="623" type="curve" smooth="yes"/>
			<point x="17" y="565"/>
			<point x="62" y="534"/>
			<point x="129" y="519" type="curve" smooth="yes"/>
			<point x="191" y="505" type="line" smooth="yes"/>
			<point x="201" y="503"/>
			<point x="204" y="501"/>
			<point x="204" y="496" type="curve" smooth="yes"/>
			<point x="204" y="490"/>
			<point x="198" y="486"/>
			<point x="178" y="486" type="curve" smooth="yes"/>
			<point x="147" y="486"/>
			<point x="124" y="493"/>
			<point x="108" y="513" type="curve"/>
			<point x="-6" y="474" type="line"/>
			<point x="32" y="417"/>
			<point x="87" y="395"/>
			<point x="167" y="395" type="curve" smooth="yes"/>
			<point x="272" y="395"/>
			<point x="345" y="439"/>
			<point x="345" y="513" type="curve" smooth="yes"/>
			<point x="345" y="570"/>
			<point x="302" y="600"/>
			<point x="227" y="615" type="curve" smooth="yes"/>
			<point x="171" y="626" type="line" smooth="yes"/>
			<point x="161" y="628"/>
			<point x="158" y="631"/>
			<point x="158" y="635" type="curve"/>
			<point x="158" y="640"/>
			<point x="163" y="644"/>
			<point x="179" y="644" type="curve" smooth="yes"/>
			<point x="200" y="644"/>
			<point x="212" y="639"/>
			<point x="223" y="625" type="curve"/>
			<point x="331" y="664" type="line"/>
			<point x="305" y="707"/>
			<point x="248" y="735"/>
			<point x="181" y="735" type="curve" smooth="yes"/>
			<point x="78" y="735"/>
			<point x="17" y="694"/>
		</contour>
		<contour>
			<point x="345" y="582" type="line"/>
			<point x="408" y="582" type="line"/>
			<point x="408" y="402" type="line"/>
			<point x="578" y="402" type="line"/>
			<point x="578" y="582" type="line"/>
			<point x="641" y="582" type="line"/>
			<point x="641" y="727" type="line"/>
			<point x="345" y="727" type="line"/>
		</contour>
		<contour>
			<point x="641" y="232" type="line"/>
			<point x="641" y="377" type="line"/>
			<point x="15" y="377" type="line"/>
			<point x="15" y="232" type="line"/>
		</contour>
	</outline>
</glyph>
<glyph name="TH.ord" format="2">
	<advance width="730"/>
	<guideline x="30" y="1309" angle="90"/>
	<guideline x="1405" y="1129" angle="90"/>
	<outline>
		<contour>
			<point x="511" y="727" type="line"/>
			<point x="336" y="727" type="line"/>
			<point x="336" y="402" type="line"/>
			<point x="511" y="402" type="line"/>
			<point x="511" y="492" type="line"/>
			<point x="537" y="492" type="line"/>
			<point x="537" y="402" type="line"/>
			<point x="713" y="402" type="line"/>
			<point x="713" y="727" type="line"/>
			<point x="537" y="727" type="line"/>
			<point x="537" y="637" type="line"/>
			<point x="511" y="637" type="line"/>
		</contour>
		<contour>
			<point x="15" y="582" type="line"/>
			<point x="78" y="582" type="line"/>
			<point x="78" y="402" type="line"/>
			<point x="248" y="402" type="line"/>
			<point x="248" y="582" type="line"/>
			<point x="311" y="582" type="line"/>
			<point x="311" y="727" type="line"/>
			<point x="15" y="727" type="line"/>
		</contour>
		<contour>
			<point x="15" y="232" type="line"/>
			<point x="713" y="232" type="line"/>
			<point x="713" y="377" type="line"/>
			<point x="15" y="377" type="line"/>
		</contour>
	</outline>
</glyph>
